SplineFontDB: 3.0
FontName: KAN-BadamiBoldItalic
FullName: KAN Badami Bold Italic
FamilyName: KAN Badami
Weight: Bold
Copyright: Copyright (c) 2009-2015, NLCI (http://www.nlci.in/fonts/)
Version: 1.0 Sat Apr 29 14:56:47 1995
ItalicAngle: 12
UnderlinePosition: -593
UnderlineWidth: 40
Ascent: 1638
Descent: 410
InvalidEm: 0
LayerCount: 2
Layer: 0 0 "Back" 1
Layer: 1 0 "Fore" 0
XUID: [1021 973 2083775245 8696693]
FSType: 0
OS2Version: 0
OS2_WeightWidthSlopeOnly: 0
OS2_UseTypoMetrics: 1
CreationTime: 1250825678
ModificationTime: 1523585989
PfmFamily: 81
TTFWeight: 700
TTFWidth: 5
LineGap: 0
VLineGap: 0
Panose: 5 0 0 0 0 0 0 0 0 0
OS2TypoAscent: -147
OS2TypoAOffset: 1
OS2TypoDescent: -401
OS2TypoDOffset: 1
OS2TypoLinegap: 0
OS2WinAscent: -236
OS2WinAOffset: 1
OS2WinDescent: -322
OS2WinDOffset: 1
HheadAscent: -236
HheadAOffset: 1
HheadDescent: 322
HheadDOffset: 1
OS2SubXSize: 1434
OS2SubYSize: 1331
OS2SubXOff: 0
OS2SubYOff: 293
OS2SupXSize: 1434
OS2SupYSize: 1331
OS2SupXOff: 0
OS2SupYOff: 928
OS2StrikeYSize: 102
OS2StrikeYPos: 530
OS2Vendor: 'Alts'
OS2UnicodeRanges: 00000000.00000000.00000000.00000000
Lookup: 262 0 0 "blwm" { "blwm-2sub"  } []
MarkAttachClasses: 1
DEI: 91125
TtTable: prep
NPUSHB
 1
 1
SCANTYPE
PUSHW_1
 511
SCANCTRL
EndTTInstrs
ShortTable: maxp 16
  1
  0
  319
  163
  6
  204
  8
  2
  8
  64
  10
  0
  3
  417
  4
  2
EndShort
LangName: 1033 "" "" "Bold Italic" "NLCI:KAN Badami Bold Italic" "" "1.0 Sat Apr 29 14:56:47 1995"
Encoding: Original
UnicodeInterp: none
NameList: Adobe Glyph List
DisplaySize: -48
AntiAlias: 1
FitToEm: 1
BeginPrivate: 0
EndPrivate
AnchorClass2: "Sub" "blwm-2sub" "Nukta"""  "s"""  "V""" 
BeginChars: 615 615

StartChar: .notdef
Encoding: 0 -1 0
Width: 1024
Flags: HW
LayerCount: 2
Fore
SplineSet
63 0 m 1
 63 1284 l 1
 961 1284 l 1
 961 0 l 1
 63 0 l 1
897 63 m 1
 897 1221 l 1
 127 1221 l 1
 127 63 l 1
 897 63 l 1
EndSplineSet
EndChar

StartChar: exclam
Encoding: 4 33 4
Width: 500
VWidth: 1024
Flags: HW
LayerCount: 2
Fore
SplineSet
316 419 m 0
 309.333007812 414.333007812 301.166992188 409.666992188 291.5 405 c 0
 281.833007812 400.333007812 271.833007812 395.833007812 261.5 391.5 c 0
 251.166992188 387.166992188 240.833007812 383.166992188 230.5 379.5 c 0
 220.166992188 375.833007812 211 372.666992188 203 370 c 0
 178 391 l 0
 223 1314 l 0
 237.666992188 1322 257.166992188 1332 281.5 1344 c 0
 305.833007812 1356 331 1368 357 1380 c 0
 383 1392 407.666992188 1403.16699219 431 1413.5 c 0
 454.333007812 1423.83300781 472.666992188 1431.33300781 486 1436 c 0
 530 1401 l 0
 316 419 l 0
373 172 m 0
 373 148.666992188 368.833007812 125 360.5 101 c 0
 352.166992188 77 339.666992188 55.3330078125 323 36 c 0
 306.333007812 16.6669921875 285.666992188 0.6669921875 261 -12 c 0
 236.333007812 -24.6669921875 207.666992188 -31 175 -31 c 0
 128.333007812 -31 94.3330078125 -20 73 2 c 0
 51.6669921875 24 41 52.6669921875 41 88 c 0
 41 110 45.6669921875 132.666992188 55 156 c 0
 64.3330078125 179.333007812 77.5 200.666992188 94.5 220 c 0
 111.5 239.333007812 132.333007812 255.166992188 157 267.5 c 0
 181.666992188 279.833007812 209.666992188 286 241 286 c 0
 285.666992188 286 318.833007812 275.166992188 340.5 253.5 c 0
 362.166992188 231.833007812 373 204.666992188 373 172 c 0
EndSplineSet
EndChar

StartChar: quotedbl
Encoding: 5 34 5
Width: 923
VWidth: 1024
Flags: HW
LayerCount: 2
Fore
SplineSet
732 849 m 0
 726.666992188 845.666992188 719 842.833007812 709 840.5 c 0
 699 838.166992188 688.5 836 677.5 834 c 0
 666.5 832 655.666992188 830.5 645 829.5 c 0
 634.333007812 828.5 625.333007812 828 618 828 c 0
 601 1342 l 0
 606.333007812 1344.66699219 615.5 1348.66699219 628.5 1354 c 0
 641.5 1359.33300781 656.333007812 1365 673 1371 c 0
 689.666992188 1377 707.333007812 1383.16699219 726 1389.5 c 0
 744.666992188 1395.83300781 762.5 1401.83300781 779.5 1407.5 c 0
 796.5 1413.16699219 811.333007812 1418 824 1422 c 0
 836.666992188 1426 845.333007812 1428.66699219 850 1430 c 0
 897 1399 l 0
 732 849 l 0
342 849 m 0
 336.666992188 845.666992188 329 842.833007812 319 840.5 c 0
 309 838.166992188 298.5 836 287.5 834 c 0
 276.5 832 265.666992188 830.5 255 829.5 c 0
 244.333007812 828.5 235.333007812 828 228 828 c 0
 211 1342 l 0
 216.333007812 1344.66699219 225.5 1348.66699219 238.5 1354 c 0
 251.5 1359.33300781 266.333007812 1365 283 1371 c 0
 299.666992188 1377 317.333007812 1383.16699219 336 1389.5 c 0
 354.666992188 1395.83300781 372.5 1401.83300781 389.5 1407.5 c 0
 406.5 1413.16699219 421.333007812 1418 434 1422 c 0
 446.666992188 1426 455.333007812 1428.66699219 460 1430 c 0
 507 1399 l 0
 342 849 l 0
EndSplineSet
EndChar

StartChar: numbersign
Encoding: 6 35 6
Width: 968
VWidth: 1024
Flags: HW
LayerCount: 2
Fore
SplineSet
416 610 m 0
 574 610 l 0
 661 826 l 0
 503 826 l 0
 416 610 l 0
864 981 m 0
 1008 981 l 0
 1028 956 l 0
 1025.33300781 948.666992188 1021.16699219 938.833007812 1015.5 926.5 c 0
 1009.83300781 914.166992188 1003.66699219 901.5 997 888.5 c 0
 990.333007812 875.5 983.833007812 863.166992188 977.5 851.5 c 0
 971.166992188 839.833007812 966.333007812 831.333007812 963 826 c 0
 801 826 l 0
 714 610 l 0
 859 610 l 0
 875 583 l 0
 873 576.333007812 869.333007812 567 864 555 c 0
 858.666992188 543 852.666992188 530.5 846 517.5 c 0
 839.333007812 504.5 833 492.333007812 827 481 c 0
 821 469.666992188 816.666992188 461 814 455 c 0
 652 455 l 0
 537 170 l 0
 531 165.333007812 522.5 161 511.5 157 c 0
 500.5 153 488.833007812 149.333007812 476.5 146 c 0
 464.166992188 142.666992188 452 139.333007812 440 136 c 0
 428 132.666992188 417.666992188 129.666992188 409 127 c 0
 388 147 l 0
 512 455 l 0
 354 455 l 0
 239 170 l 0
 233 165.333007812 224.5 161 213.5 157 c 0
 202.5 153 191 149.333007812 179 146 c 0
 143 136 l 0
 131 132.666992188 120.666992188 129.666992188 112 127 c 0
 91 147 l 0
 215 455 l 0
 55 455 l 0
 37 480 l 0
 39.6669921875 486.666992188 43.8330078125 495.833007812 49.5 507.5 c 0
 55.1669921875 519.166992188 61.1669921875 531.5 67.5 544.5 c 0
 73.8330078125 557.5 80.1669921875 570 86.5 582 c 0
 92.8330078125 594 98 603.333007812 102 610 c 0
 277 610 l 0
 364 826 l 0
 207 826 l 0
 187 850 l 0
 189 857.333007812 193 867 199 879 c 0
 205 891 211.333007812 903.5 218 916.5 c 0
 224.666992188 929.5 231.166992188 941.833007812 237.5 953.5 c 0
 243.833007812 965.166992188 248.666992188 974.333007812 252 981 c 0
 426 981 l 0
 535 1251 l 0
 542.333007812 1256.33300781 551.666992188 1260.83300781 563 1264.5 c 0
 574.333007812 1268.16699219 586 1271.33300781 598 1274 c 0
 632 1283 l 0
 642.666992188 1285.66699219 651.666992188 1288.66699219 659 1292 c 0
 683 1270 l 0
 566 981 l 0
 723 981 l 0
 832 1251 l 0
 839.333007812 1256.33300781 848.5 1260.83300781 859.5 1264.5 c 0
 870.5 1268.16699219 882 1271.5 894 1274.5 c 0
 906 1277.5 917.666992188 1280.33300781 929 1283 c 0
 940.333007812 1285.66699219 949.666992188 1288.66699219 957 1292 c 0
 980 1270 l 0
 864 981 l 0
EndSplineSet
EndChar

StartChar: dollar
Encoding: 7 36 7
Width: 968
VWidth: 1024
Flags: HW
LayerCount: 2
Fore
SplineSet
943 1144 m 0
 945.666992188 1142 945.5 1135.16699219 942.5 1123.5 c 0
 939.5 1111.83300781 934.666992188 1097.33300781 928 1080 c 0
 921.333007812 1062.66699219 913.666992188 1044.16699219 905 1024.5 c 0
 896.333007812 1004.83300781 887.5 986.166992188 878.5 968.5 c 0
 869.5 950.833007812 861.166992188 935.833007812 853.5 923.5 c 0
 845.833007812 911.166992188 840 903.666992188 836 901 c 0
 768 911 l 0
 764 931.666992188 758 951.333007812 750 970 c 0
 742 988.666992188 731.833007812 1005.83300781 719.5 1021.5 c 0
 707.166992188 1037.16699219 692.5 1051 675.5 1063 c 0
 658.5 1075 638.666992188 1084.33300781 616 1091 c 0
 567 741 l 0
 615 721.666992188 658.166992188 701.666992188 696.5 681 c 0
 734.833007812 660.333007812 767.5 637.333007812 794.5 612 c 0
 821.5 586.666992188 842.333007812 558.166992188 857 526.5 c 0
 871.666992188 494.833007812 879 458.666992188 879 418 c 0
 879 366 870.666992188 316 854 268 c 0
 837.333007812 220 811.666992188 176.5 777 137.5 c 0
 742.333007812 98.5 698.833007812 65.1669921875 646.5 37.5 c 0
 594.166992188 9.8330078125 532 -9.6669921875 460 -21 c 0
 445 -128 l 0
 433 -138 417.166992188 -147.833007812 397.5 -157.5 c 0
 377.833007812 -167.166992188 360 -174 344 -178 c 0
 314 -147 l 0
 330 -31 l 0
 322 -31 l 0
 288.666992188 -31 253 -25.5 215 -14.5 c 0
 177 -3.5 141.5 10.3330078125 108.5 27 c 0
 75.5 43.6669921875 48.1669921875 61.8330078125 26.5 81.5 c 0
 4.8330078125 101.166992188 -6 120 -6 138 c 0
 -6 145.333007812 -3.6669921875 156.333007812 1 171 c 0
 5.6669921875 185.666992188 11.8330078125 201.666992188 19.5 219 c 0
 27.1669921875 236.333007812 35.8330078125 254 45.5 272 c 0
 55.1669921875 290 65 306.333007812 75 321 c 0
 85 335.666992188 94.8330078125 347.666992188 104.5 357 c 0
 114.166992188 366.333007812 122.333007812 371 129 371 c 0
 135 371 141.333007812 366.166992188 148 356.5 c 0
 154.666992188 346.833007812 162 334.166992188 170 318.5 c 0
 178 302.833007812 187.333007812 285.666992188 198 267 c 0
 208.666992188 248.333007812 221.333007812 230 236 212 c 0
 250.666992188 194 267.5 177.5 286.5 162.5 c 0
 305.5 147.5 327.666992188 136.333007812 353 129 c 0
 414 565 l 0
 408 567.666992188 401.666992188 570.166992188 395 572.5 c 0
 388.333007812 574.833007812 381.666992188 577.666992188 375 581 c 0
 333 597 295.166992188 614.166992188 261.5 632.5 c 0
 227.833007812 650.833007812 199.333007812 671.5 176 694.5 c 0
 152.666992188 717.5 134.666992188 743.666992188 122 773 c 0
 109.333007812 802.333007812 103 836.333007812 103 875 c 0
 103 911.666992188 110.333007812 948.666992188 125 986 c 0
 139.666992188 1023.33300781 163.166992188 1058 195.5 1090 c 0
 227.833007812 1122 269.5 1149.83300781 320.5 1173.5 c 0
 371.5 1197.16699219 433.666992188 1213.66699219 507 1223 c 0
 524 1338 l 0
 541.333007812 1348.66699219 557.666992188 1359.66699219 573 1371 c 0
 588.333007812 1382.33300781 604.666992188 1390.66699219 622 1396 c 0
 654 1364 l 0
 635 1231 l 0
 639 1231 l 0
 668.333007812 1231 697.333007812 1228.5 726 1223.5 c 0
 754.666992188 1218.5 782.166992188 1212 808.5 1204 c 0
 834.833007812 1196 859.333007812 1186.66699219 882 1176 c 0
 904.666992188 1165.33300781 925 1154.66699219 943 1144 c 0
654 343 m 0
 654 377.666992188 644.5 408 625.5 434 c 0
 606.5 460 576 485 534 509 c 0
 480 125 l 0
 537.333007812 134.333007812 580.666992188 157.666992188 610 195 c 0
 639.333007812 232.333007812 654 281.666992188 654 343 c 0
329 950 m 0
 329 934 330.666992188 919.166992188 334 905.5 c 0
 337.333007812 891.833007812 343.333007812 878.666992188 352 866 c 0
 360.666992188 853.333007812 372.5 840.833007812 387.5 828.5 c 0
 402.5 816.166992188 422 804 446 792 c 0
 490 1100 l 0
 466 1096 444.166992188 1089.5 424.5 1080.5 c 0
 404.833007812 1071.5 388 1060.33300781 374 1047 c 0
 360 1033.66699219 349 1018.66699219 341 1002 c 0
 333 985.333007812 329 968 329 950 c 0
EndSplineSet
EndChar

StartChar: percent
Encoding: 8 37 8
Width: 1411
VWidth: 1024
Flags: HW
LayerCount: 2
Fore
SplineSet
712 995 m 0
 712 942.333007812 703.666992188 889.833007812 687 837.5 c 0
 670.333007812 785.166992188 645.833007812 738 613.5 696 c 0
 581.166992188 654 540.833007812 620 492.5 594 c 0
 444.166992188 568 388.333007812 555 325 555 c 0
 287.666992188 555 253.333007812 561.666992188 222 575 c 0
 190.666992188 588.333007812 163.666992188 606.333007812 141 629 c 0
 118.333007812 651.666992188 100.666992188 677.833007812 88 707.5 c 0
 75.3330078125 737.166992188 69 768 69 800 c 0
 69 852.666992188 77.6669921875 905.333007812 95 958 c 0
 112.333007812 1010.66699219 138 1057.66699219 172 1099 c 0
 206 1140.33300781 247.666992188 1174 297 1200 c 0
 346.333007812 1226 403 1239 467 1239 c 0
 501 1239 533 1233.33300781 563 1222 c 0
 593 1210.66699219 619 1194.5 641 1173.5 c 0
 663 1152.5 680.333007812 1127 693 1097 c 0
 705.666992188 1067 712 1033 712 995 c 0
504 1013 m 0
 504 1041 502.166992188 1064.83300781 498.5 1084.5 c 0
 494.833007812 1104.16699219 489.833007812 1120 483.5 1132 c 0
 477.166992188 1144 469.5 1152.66699219 460.5 1158 c 0
 451.5 1163.33300781 442 1166 432 1166 c 0
 412 1166 394.5 1158.66699219 379.5 1144 c 0
 364.5 1129.33300781 351.666992188 1110.5 341 1087.5 c 0
 330.333007812 1064.5 321.5 1038.5 314.5 1009.5 c 0
 307.5 980.5 301.833007812 951.666992188 297.5 923 c 0
 293.166992188 894.333007812 290.166992188 867 288.5 841 c 0
 286.833007812 815 286 793.666992188 286 777 c 0
 286 725 291.666992188 687.333007812 303 664 c 0
 314.333007812 640.666992188 334 629 362 629 c 0
 386 629 406.833007812 641.833007812 424.5 667.5 c 0
 442.166992188 693.166992188 457 725.333007812 469 764 c 0
 481 802.666992188 489.833007812 844.333007812 495.5 889 c 0
 501.166992188 933.666992188 504 975 504 1013 c 0
273 3 m 0
 265 -1 254.5 -4.5 241.5 -7.5 c 0
 228.5 -10.5 214.833007812 -13.3330078125 200.5 -16 c 0
 186.166992188 -18.6669921875 172.166992188 -21.1669921875 158.5 -23.5 c 0
 144.833007812 -25.8330078125 133.666992188 -28 125 -30 c 0
 106 0 l 0
 1137 1203 l 0
 1143.66699219 1205.66699219 1153.5 1208.5 1166.5 1211.5 c 0
 1179.5 1214.5 1193.33300781 1217.5 1208 1220.5 c 0
 1222.66699219 1223.5 1236.66699219 1226.33300781 1250 1229 c 0
 1263.33300781 1231.66699219 1273.66699219 1233.66699219 1281 1235 c 0
 1301 1207 l 0
 273 3 l 0
1338 408 m 0
 1338 355.333007812 1329.66699219 302.833007812 1313 250.5 c 0
 1296.33300781 198.166992188 1271.83300781 151 1239.5 109 c 0
 1207.16699219 67 1166.83300781 33 1118.5 7 c 0
 1070.16699219 -19 1014.33300781 -32 951 -32 c 0
 913.666992188 -32 879.333007812 -25.3330078125 848 -12 c 0
 816.666992188 1.3330078125 789.666992188 19.3330078125 767 42 c 0
 744.333007812 64.6669921875 726.666992188 90.8330078125 714 120.5 c 0
 701.333007812 150.166992188 695 181 695 213 c 0
 695 265.666992188 703.666992188 318.333007812 721 371 c 0
 738.333007812 423.666992188 764 470.666992188 798 512 c 0
 832 553.333007812 873.666992188 587 923 613 c 0
 972.333007812 639 1029 652 1093 652 c 0
 1127 652 1159 646.333007812 1189 635 c 0
 1219 623.666992188 1245 607.5 1267 586.5 c 0
 1289 565.5 1306.33300781 540 1319 510 c 0
 1331.66699219 480 1338 446 1338 408 c 0
1130 426 m 0
 1130 454 1128.16699219 477.833007812 1124.5 497.5 c 0
 1120.83300781 517.166992188 1115.83300781 533 1109.5 545 c 0
 1103.16699219 557 1095.5 565.666992188 1086.5 571 c 0
 1077.5 576.333007812 1068 579 1058 579 c 0
 1038 579 1020.5 571.666992188 1005.5 557 c 0
 990.5 542.333007812 977.666992188 523.5 967 500.5 c 0
 956.333007812 477.5 947.5 451.5 940.5 422.5 c 0
 933.5 393.5 927.833007812 364.666992188 923.5 336 c 0
 919.166992188 307.333007812 916.166992188 280 914.5 254 c 0
 912.833007812 228 912 206.666992188 912 190 c 0
 912 138 917.666992188 100.333007812 929 77 c 0
 940.333007812 53.6669921875 960 42 988 42 c 0
 1012 42 1032.83300781 54.8330078125 1050.5 80.5 c 0
 1068.16699219 106.166992188 1083 138.333007812 1095 177 c 0
 1107 215.666992188 1115.83300781 257.333007812 1121.5 302 c 0
 1127.16699219 346.666992188 1130 388 1130 426 c 0
EndSplineSet
EndChar

StartChar: ampersand
Encoding: 9 38 9
Width: 1327
VWidth: 1024
Flags: HW
LayerCount: 2
Fore
SplineSet
596 1130 m 0
 591.333007812 1096.66699219 590.833007812 1062.16699219 594.5 1026.5 c 0
 598.166992188 990.833007812 605 954.333007812 615 917 c 0
 642.333007812 933.666992188 665.833007812 952.5 685.5 973.5 c 0
 705.166992188 994.5 721.833007812 1016.16699219 735.5 1038.5 c 0
 749.166992188 1060.83300781 759.666992188 1083.33300781 767 1106 c 0
 774.333007812 1128.66699219 779.666992188 1150.33300781 783 1171 c 0
 786.333007812 1194.33300781 786.5 1214.83300781 783.5 1232.5 c 0
 780.5 1250.16699219 775.333007812 1265 768 1277 c 0
 760.666992188 1289 751.833007812 1298 741.5 1304 c 0
 731.166992188 1310 720 1313 708 1313 c 0
 692.666992188 1313 679 1308.33300781 667 1299 c 0
 655 1289.66699219 644.333007812 1276.83300781 635 1260.5 c 0
 625.666992188 1244.16699219 617.833007812 1224.83300781 611.5 1202.5 c 0
 605.166992188 1180.16699219 600 1156 596 1130 c 0
527 124 m 0
 557 124 586.833007812 128.666992188 616.5 138 c 0
 646.166992188 147.333007812 675.333007812 160 704 176 c 0
 656 233.333007812 608.333007812 298.5 561 371.5 c 0
 513.666992188 444.5 472 521.666992188 436 603 c 0
 406.666992188 565.666992188 385 528.5 371 491.5 c 0
 357 454.5 347.333007812 415 342 373 c 0
 335.333007812 326.333007812 336.5 287.166992188 345.5 255.5 c 0
 354.5 223.833007812 368.166992188 198.166992188 386.5 178.5 c 0
 404.833007812 158.833007812 426.5 144.833007812 451.5 136.5 c 0
 476.5 128.166992188 501.666992188 124 527 124 c 0
1401 748 m 0
 1391.66699219 738 1381.33300781 726.166992188 1370 712.5 c 0
 1358.66699219 698.833007812 1347.16699219 685.333007812 1335.5 672 c 0
 1323.83300781 658.666992188 1312.33300781 646.333007812 1301 635 c 0
 1289.66699219 623.666992188 1280 615 1272 609 c 0
 1250.66699219 620.333007812 1228.16699219 631.333007812 1204.5 642 c 0
 1180.83300781 652.666992188 1158.33300781 658.666992188 1137 660 c 0
 1147.66699219 642.666992188 1153.5 623.833007812 1154.5 603.5 c 0
 1155.5 583.166992188 1154.66699219 563 1152 543 c 0
 1146 499.666992188 1130.5 453.666992188 1105.5 405 c 0
 1080.5 356.333007812 1048 308.666992188 1008 262 c 0
 1017.33300781 252 1026.16699219 242.333007812 1034.5 233 c 0
 1042.83300781 223.666992188 1051.33300781 214.666992188 1060 206 c 0
 1090 174.666992188 1122.83300781 155.333007812 1158.5 148 c 0
 1194.16699219 140.666992188 1227.33300781 140.666992188 1258 148 c 0
 1264 65 l 0
 1235.33300781 52.3330078125 1204.5 40.1669921875 1171.5 28.5 c 0
 1138.5 16.8330078125 1107 6.6669921875 1077 -2 c 0
 1047 -10.6669921875 1020.83300781 -17.5 998.5 -22.5 c 0
 976.166992188 -27.5 961.666992188 -30 955 -30 c 0
 939 -30 917 -20.5 889 -1.5 c 0
 861 17.5 829.333007812 44 794 78 c 0
 740.666992188 44.6669921875 684.166992188 18.3330078125 624.5 -1 c 0
 564.833007812 -20.3330078125 503.666992188 -30 441 -30 c 0
 305 -30 204.5 2.1669921875 139.5 66.5 c 0
 74.5 130.833007812 50.6669921875 226 68 352 c 0
 76.6669921875 420 105.666992188 488.5 155 557.5 c 0
 204.333007812 626.5 278 696.666992188 376 768 c 0
 362 820 352.333007812 871.5 347 922.5 c 0
 341.666992188 973.5 342.333007812 1023.66699219 349 1073 c 0
 356.333007812 1127 373.333007812 1177 400 1223 c 0
 426.666992188 1269 459.666992188 1308.83300781 499 1342.5 c 0
 538.333007812 1376.16699219 582.666992188 1402.5 632 1421.5 c 0
 681.333007812 1440.5 732.666992188 1450 786 1450 c 0
 835.333007812 1450 877.166992188 1443.16699219 911.5 1429.5 c 0
 945.833007812 1415.83300781 973 1397.66699219 993 1375 c 0
 1013 1352.33300781 1026.66699219 1326.16699219 1034 1296.5 c 0
 1041.33300781 1266.83300781 1042.66699219 1236 1038 1204 c 0
 1033.33300781 1169.33300781 1019.33300781 1133.5 996 1096.5 c 0
 972.666992188 1059.5 944 1023.33300781 910 988 c 0
 876 952.666992188 838.5 919 797.5 887 c 0
 756.5 855 716 826.666992188 676 802 c 0
 659 791 l 0
 689.666992188 717.666992188 727.333007812 645.5 772 574.5 c 0
 816.666992188 503.5 863 437.333007812 911 376 c 0
 923.666992188 397.333007812 934 418.5 942 439.5 c 0
 950 460.5 955.666992188 481.333007812 959 502 c 0
 963 530 962.666992188 554.833007812 958 576.5 c 0
 953.333007812 598.166992188 945.5 616.166992188 934.5 630.5 c 0
 923.5 644.833007812 910.166992188 655.833007812 894.5 663.5 c 0
 878.833007812 671.166992188 862 675 844 675 c 0
 819 713 l 0
 837 731 l 0
 845 739 853.833007812 747.333007812 863.5 756 c 0
 873.166992188 764.666992188 882.833007812 772.5 892.5 779.5 c 0
 902.166992188 786.5 910.333007812 791.333007812 917 794 c 0
 1377 794 l 0
 1401 748 l 0
EndSplineSet
EndChar

StartChar: quotesingle
Encoding: 10 39 10
Width: 500
VWidth: 1024
Flags: HW
LayerCount: 2
Fore
SplineSet
342 849 m 0
 336.666992188 845.666992188 329 842.833007812 319 840.5 c 0
 309 838.166992188 298.5 836 287.5 834 c 0
 276.5 832 265.666992188 830.5 255 829.5 c 0
 244.333007812 828.5 235.333007812 828 228 828 c 0
 211 1342 l 0
 216.333007812 1344.66699219 225.5 1348.66699219 238.5 1354 c 0
 251.5 1359.33300781 266.333007812 1365 283 1371 c 0
 299.666992188 1377 317.333007812 1383.16699219 336 1389.5 c 0
 354.666992188 1395.83300781 372.5 1401.83300781 389.5 1407.5 c 0
 406.5 1413.16699219 421.333007812 1418 434 1422 c 0
 446.666992188 1426 455.333007812 1428.66699219 460 1430 c 0
 507 1399 l 0
 342 849 l 0
EndSplineSet
EndChar

StartChar: parenleft
Encoding: 11 40 11
Width: 641
VWidth: 1024
Flags: HW
LayerCount: 2
Fore
SplineSet
762 1519 m 0
 718 1481 676.166992188 1436.16699219 636.5 1384.5 c 0
 596.833007812 1332.83300781 560.666992188 1272.66699219 528 1204 c 0
 495.333007812 1135.33300781 466.5 1057.83300781 441.5 971.5 c 0
 416.5 885.166992188 396.666992188 788.666992188 382 682 c 0
 368 584.666992188 359.5 492.333007812 356.5 405 c 0
 353.5 317.666992188 357 235.666992188 367 159 c 0
 377 82.3330078125 394.166992188 11.5 418.5 -53.5 c 0
 442.833007812 -118.5 475.333007812 -177.333007812 516 -230 c 0
 449 -315 l 0
 381.666992188 -273 322.833007812 -218.833007812 272.5 -152.5 c 0
 222.166992188 -86.1669921875 181.833007812 -11.1669921875 151.5 72.5 c 0
 121.166992188 156.166992188 101.5 247 92.5 345 c 0
 83.5 443 86.6669921875 545 102 651 c 0
 117.333007812 760.333007812 143.166992188 864 179.5 962 c 0
 215.833007812 1060 260.666992188 1149.83300781 314 1231.5 c 0
 367.333007812 1313.16699219 428.166992188 1385.66699219 496.5 1449 c 0
 564.833007812 1512.33300781 639 1564 719 1604 c 0
 762 1519 l 0
EndSplineSet
EndChar

StartChar: parenright
Encoding: 12 41 12
Width: 641
VWidth: 1024
Flags: HW
LayerCount: 2
Fore
SplineSet
559 638 m 0
 543.666992188 528.666992188 517.833007812 425 481.5 327 c 0
 445.166992188 229 400.333007812 139.166992188 347 57.5 c 0
 293.666992188 -24.1669921875 232.833007812 -96.6669921875 164.5 -160 c 0
 96.1669921875 -223.333007812 22 -275 -58 -315 c 0
 -101 -230 l 0
 -57 -192 -15.1669921875 -147.166992188 24.5 -95.5 c 0
 64.1669921875 -43.8330078125 100.333007812 16.3330078125 133 85 c 0
 165.666992188 153.666992188 194.333007812 231 219 317 c 0
 243.666992188 403 263.666992188 499.666992188 279 607 c 0
 293 704.333007812 301.5 796.666992188 304.5 884 c 0
 307.5 971.333007812 304 1053.33300781 294 1130 c 0
 284 1206.66699219 266.833007812 1277.5 242.5 1342.5 c 0
 218.166992188 1407.5 185.666992188 1466.33300781 145 1519 c 0
 212 1604 l 0
 279.333007812 1562 338.166992188 1507.83300781 388.5 1441.5 c 0
 438.833007812 1375.16699219 479.166992188 1300.16699219 509.5 1216.5 c 0
 539.833007812 1132.83300781 559.5 1042 568.5 944 c 0
 577.5 846 574.333007812 744 559 638 c 0
EndSplineSet
EndChar

StartChar: asterisk
Encoding: 13 42 13
Width: 746
VWidth: 1024
Flags: HW
LayerCount: 2
Fore
SplineSet
453 1230 m 0
 666 1410 l 0
 671.333007812 1406 679.833007812 1398.5 691.5 1387.5 c 0
 703.166992188 1376.5 715.333007812 1364.83300781 728 1352.5 c 0
 740.666992188 1340.16699219 752.333007812 1328.16699219 763 1316.5 c 0
 773.666992188 1304.83300781 781 1296.33300781 785 1291 c 0
 766 1231 l 0
 494 1136 l 0
 720 1051 l 0
 718.666992188 1043 715.666992188 1030.16699219 711 1012.5 c 0
 706.333007812 994.833007812 701.166992188 976.166992188 695.5 956.5 c 0
 689.833007812 936.833007812 684.333007812 918.333007812 679 901 c 0
 673.666992188 883.666992188 669.666992188 871.333007812 667 864 c 0
 610 845 l 0
 431 1038 l 0
 446 775 l 0
 438.666992188 771 426.833007812 765.666992188 410.5 759 c 0
 394.166992188 752.333007812 376.833007812 745.333007812 358.5 738 c 0
 340.166992188 730.666992188 322.666992188 724.166992188 306 718.5 c 0
 289.333007812 712.833007812 277.666992188 709 271 707 c 0
 234 748 l 0
 327 1037 l 0
 115 858 l 0
 109 862 100.166992188 869.5 88.5 880.5 c 0
 76.8330078125 891.5 64.6669921875 903.166992188 52 915.5 c 0
 39.3330078125 927.833007812 27.5 939.833007812 16.5 951.5 c 0
 5.5 963.166992188 -2 971.666992188 -6 977 c 0
 15 1037 l 0
 288 1132 l 0
 60 1217 l 0
 62 1225 65.3330078125 1237.83300781 70 1255.5 c 0
 74.6669921875 1273.16699219 79.6669921875 1291.83300781 85 1311.5 c 0
 90.3330078125 1331.16699219 95.6669921875 1349.66699219 101 1367 c 0
 106.333007812 1384.33300781 110.666992188 1396.66699219 114 1404 c 0
 170 1423 l 0
 349 1229 l 0
 335 1493 l 0
 342.333007812 1497 354.166992188 1502.33300781 370.5 1509 c 0
 386.833007812 1515.66699219 404.166992188 1522.66699219 422.5 1530 c 0
 440.833007812 1537.33300781 458 1543.83300781 474 1549.5 c 0
 490 1555.16699219 501.666992188 1559 509 1561 c 0
 547 1520 l 0
 453 1230 l 0
EndSplineSet
EndChar

StartChar: plus
Encoding: 14 43 14
Width: 835
VWidth: 1024
Flags: HW
LayerCount: 2
Fore
SplineSet
785 606 m 0
 782.333007812 598.666992188 778.166992188 589.333007812 772.5 578 c 0
 766.833007812 566.666992188 760.666992188 555 754 543 c 0
 747.333007812 531 741 519.666992188 735 509 c 0
 729 498.333007812 724.666992188 490.333007812 722 485 c 0
 488 485 l 0
 452 221 l 0
 446 217.666992188 438 214 428 210 c 0
 418 206 407.5 202 396.5 198 c 0
 385.5 194 374.666992188 190.333007812 364 187 c 0
 353.333007812 183.666992188 344.666992188 181.333007812 338 180 c 0
 312 212 l 0
 349 485 l 0
 81 485 l 0
 55 519 l 0
 57.6669921875 526.333007812 61.6669921875 535.5 67 546.5 c 0
 72.3330078125 557.5 78.1669921875 568.833007812 84.5 580.5 c 0
 90.8330078125 592.166992188 97 603.333007812 103 614 c 0
 109 624.666992188 113.666992188 633.333007812 117 640 c 0
 370 640 l 0
 407 906 l 0
 413 908 421 910.833007812 431 914.5 c 0
 441 918.166992188 451.5 922 462.5 926 c 0
 473.5 930 484.333007812 933.666992188 495 937 c 0
 505.666992188 940.333007812 514.333007812 943 521 945 c 0
 546 912 l 0
 509 640 l 0
 757 640 l 0
 785 606 l 0
EndSplineSet
EndChar

StartChar: comma
Encoding: 15 44 15
Width: 500
VWidth: 1024
Flags: HW
LayerCount: 2
Fore
SplineSet
399 122 m 0
 399 91.3330078125 393.666992188 59.1669921875 383 25.5 c 0
 372.333007812 -8.1669921875 358.166992188 -41.8330078125 340.5 -75.5 c 0
 322.833007812 -109.166992188 302.333007812 -142 279 -174 c 0
 255.666992188 -206 231.166992188 -236.166992188 205.5 -264.5 c 0
 179.833007812 -292.833007812 154 -318.166992188 128 -340.5 c 0
 102 -362.833007812 77.3330078125 -381 54 -395 c 0
 -10 -340 l 0
 15.3330078125 -313.333007812 37.6669921875 -286 57 -258 c 0
 76.3330078125 -230 92.3330078125 -202.5 105 -175.5 c 0
 117.666992188 -148.5 127.166992188 -122.666992188 133.5 -98 c 0
 139.833007812 -73.3330078125 143 -50.6669921875 143 -30 c 0
 143 -18 140.666992188 -5.6669921875 136 7 c 0
 131.333007812 19.6669921875 124.333007812 31 115 41 c 0
 105.666992188 51 94 59 80 65 c 0
 66 71 49.3330078125 73 30 71 c 0
 27 159 l 0
 35 165.666992188 46.5 173 61.5 181 c 0
 76.5 189 93.3330078125 197.166992188 112 205.5 c 0
 130.666992188 213.833007812 150.333007812 221.666992188 171 229 c 0
 191.666992188 236.333007812 211.666992188 243 231 249 c 0
 250.333007812 255 268.333007812 259.833007812 285 263.5 c 0
 301.666992188 267.166992188 315.333007812 269 326 269 c 0
 349.333007812 255.666992188 367.333007812 238.166992188 380 216.5 c 0
 392.666992188 194.833007812 399 163.333007812 399 122 c 0
EndSplineSet
EndChar

StartChar: hyphen
Encoding: 16 45 16
Width: 691
VWidth: 1024
Flags: HW
LayerCount: 2
Fore
SplineSet
612 394 m 0
 62 394 l 0
 106 616 l 0
 656 616 l 0
 612 394 l 0
EndSplineSet
Refer: 375 727 N 1 0 0 1 0 0 2
EndChar

StartChar: period
Encoding: 17 46 17
Width: 500
VWidth: 1024
Flags: HW
LayerCount: 2
Fore
SplineSet
373 172 m 0
 373 148.666992188 368.833007812 125 360.5 101 c 0
 352.166992188 77 339.666992188 55.3330078125 323 36 c 0
 306.333007812 16.6669921875 285.666992188 0.6669921875 261 -12 c 0
 236.333007812 -24.6669921875 207.666992188 -31 175 -31 c 0
 128.333007812 -31 94.3330078125 -20 73 2 c 0
 51.6669921875 24 41 52.6669921875 41 88 c 0
 41 110 45.6669921875 132.666992188 55 156 c 0
 64.3330078125 179.333007812 77.5 200.666992188 94.5 220 c 0
 111.5 239.333007812 132.333007812 255.166992188 157 267.5 c 0
 181.666992188 279.833007812 209.666992188 286 241 286 c 0
 285.666992188 286 318.833007812 275.166992188 340.5 253.5 c 0
 362.166992188 231.833007812 373 204.666992188 373 172 c 0
EndSplineSet
EndChar

StartChar: slash
Encoding: 18 47 18
Width: 911
VWidth: 1024
Flags: HW
LayerCount: 2
Fore
SplineSet
121 -265 m 0
 114.333007812 -269.666992188 102 -275.5 84 -282.5 c 0
 66 -289.5 46.8330078125 -296.5 26.5 -303.5 c 0
 6.1669921875 -310.5 -13.3330078125 -317 -32 -323 c 0
 -50.6669921875 -329 -64 -333.333007812 -72 -336 c 0
 -111 -301 l 0
 785 1530 l 0
 793.666992188 1536 806.666992188 1542.5 824 1549.5 c 0
 841.333007812 1556.5 859.333007812 1563.16699219 878 1569.5 c 0
 896.666992188 1575.83300781 914.666992188 1581.66699219 932 1587 c 0
 949.333007812 1592.33300781 963 1596.33300781 973 1599 c 0
 1014 1567 l 0
 121 -265 l 0
EndSplineSet
EndChar

StartChar: zero
Encoding: 19 48 19
Width: 968
VWidth: 1024
Flags: HW
LayerCount: 2
Fore
SplineSet
928 784 m 0
 928 730.666992188 925.666992188 680.333007812 921 633 c 0
 916.333007812 585.666992188 908.666992188 539.666992188 898 495 c 0
 887.333007812 450.333007812 873.166992188 406.666992188 855.5 364 c 0
 837.833007812 321.333007812 816.333007812 278.666992188 791 236 c 0
 769 198.666992188 743.666992188 163.833007812 715 131.5 c 0
 686.333007812 99.1669921875 654.5 71 619.5 47 c 0
 584.5 23 546.5 4 505.5 -10 c 0
 464.5 -24 420.666992188 -31 374 -31 c 0
 322.666992188 -31 275.666992188 -18.5 233 6.5 c 0
 190.333007812 31.5 153.666992188 64.8330078125 123 106.5 c 0
 92.3330078125 148.166992188 68.6669921875 196.333007812 52 251 c 0
 35.3330078125 305.666992188 27 362.666992188 27 422 c 0
 27 478.666992188 29.3330078125 530.333007812 34 577 c 0
 38.6669921875 623.666992188 46.3330078125 668 57 710 c 0
 67.6669921875 752 81.3330078125 793.333007812 98 834 c 0
 114.666992188 874.666992188 134.666992188 917 158 961 c 0
 178.666992188 999 203.666992188 1034.66699219 233 1068 c 0
 262.333007812 1101.33300781 295 1130.33300781 331 1155 c 0
 367 1179.66699219 406.166992188 1199.16699219 448.5 1213.5 c 0
 490.833007812 1227.83300781 535.666992188 1235 583 1235 c 0
 629.666992188 1235 673.833007812 1224.66699219 715.5 1204 c 0
 757.166992188 1183.33300781 793.833007812 1153.5 825.5 1114.5 c 0
 857.166992188 1075.5 882.166992188 1028.16699219 900.5 972.5 c 0
 918.833007812 916.833007812 928 854 928 784 c 0
660 816 m 0
 660 868.666992188 656.833007812 913 650.5 949 c 0
 644.166992188 985 635.333007812 1014.16699219 624 1036.5 c 0
 612.666992188 1058.83300781 599.166992188 1075 583.5 1085 c 0
 567.833007812 1095 550.666992188 1100 532 1100 c 0
 498 1100 468.5 1086.5 443.5 1059.5 c 0
 418.5 1032.5 397.166992188 997.5 379.5 954.5 c 0
 361.833007812 911.5 347.5 863.333007812 336.5 810 c 0
 325.5 756.666992188 316.833007812 703.333007812 310.5 650 c 0
 304.166992188 596.666992188 299.833007812 546.166992188 297.5 498.5 c 0
 295.166992188 450.833007812 294 411.333007812 294 380 c 0
 294 283.333007812 304.5 213.5 325.5 170.5 c 0
 346.5 127.5 380.666992188 106 428 106 c 0
 456.666992188 106 482.166992188 117 504.5 139 c 0
 526.833007812 161 546.666992188 190.5 564 227.5 c 0
 581.333007812 264.5 596 307.333007812 608 356 c 0
 620 404.666992188 629.833007812 455.166992188 637.5 507.5 c 0
 645.166992188 559.833007812 650.833007812 612.666992188 654.5 666 c 0
 658.166992188 719.333007812 660 769.333007812 660 816 c 0
EndSplineSet
EndChar

StartChar: one
Encoding: 20 49 20
Width: 968
VWidth: 1024
Flags: HW
LayerCount: 2
Fore
SplineSet
806 0 m 0
 71 0 l 0
 83 93 l 0
 133 99 174.666992188 105.833007812 208 113.5 c 0
 241.333007812 121.166992188 268.166992188 129 288.5 137 c 0
 308.833007812 145 323.5 152.833007812 332.5 160.5 c 0
 341.5 168.166992188 346.666992188 175.666992188 348 183 c 0
 446 900 l 0
 449.333007812 926.666992188 451.166992188 947.333007812 451.5 962 c 0
 451.833007812 976.666992188 448.666992188 988.666992188 442 998 c 0
 438.666992188 1002 432.5 1005.33300781 423.5 1008 c 0
 414.5 1010.66699219 400.833007812 1011.66699219 382.5 1011 c 0
 364.166992188 1010.33300781 340.5 1008 311.5 1004 c 0
 282.5 1000 247 993.333007812 205 984 c 0
 190 1075 l 0
 208 1078.33300781 231 1084 259 1092 c 0
 287 1100 317.166992188 1109.16699219 349.5 1119.5 c 0
 381.833007812 1129.83300781 415.166992188 1141 449.5 1153 c 0
 483.833007812 1165 516.833007812 1176.66699219 548.5 1188 c 0
 580.166992188 1199.33300781 609.166992188 1210 635.5 1220 c 0
 661.833007812 1230 683.333007812 1238.33300781 700 1245 c 0
 738 1200 l 0
 599 183 l 0
 597.666992188 176.333007812 599.833007812 169.166992188 605.5 161.5 c 0
 611.166992188 153.833007812 622.166992188 146 638.5 138 c 0
 654.833007812 130 677.333007812 122 706 114 c 0
 734.666992188 106 772 99 818 93 c 0
 806 0 l 0
EndSplineSet
EndChar

StartChar: two
Encoding: 21 50 21
Width: 968
VWidth: 1024
Flags: HW
LayerCount: 2
Fore
SplineSet
921 1026 m 0
 921 998 917.333007812 969.833007812 910 941.5 c 0
 902.666992188 913.166992188 890 882.166992188 872 848.5 c 0
 854 814.833007812 829.666992188 777.333007812 799 736 c 0
 768.333007812 694.666992188 729.5 647.666992188 682.5 595 c 0
 635.5 542.333007812 579.333007812 482.833007812 514 416.5 c 0
 448.666992188 350.166992188 372.666992188 274.666992188 286 190 c 0
 641 190 l 0
 651.666992188 190 661.833007812 193 671.5 199 c 0
 681.166992188 205 689.833007812 212.833007812 697.5 222.5 c 0
 705.166992188 232.166992188 712.166992188 243.166992188 718.5 255.5 c 0
 724.833007812 267.833007812 730.666992188 280.666992188 736 294 c 0
 748 324.666992188 757.333007812 359.666992188 764 399 c 0
 848 377 l 0
 781 0 l 0
 6 0 l 0
 -10 74 l 0
 108.666992188 194.666992188 209.666992188 301.666992188 293 395 c 0
 376.333007812 488.333007812 444.333007812 571.166992188 497 643.5 c 0
 549.666992188 715.833007812 588 779 612 833 c 0
 636 887 648 935 648 977 c 0
 648 1025 638.833007812 1059.33300781 620.5 1080 c 0
 602.166992188 1100.66699219 575 1111 539 1111 c 0
 514.333007812 1111 493.666992188 1105.16699219 477 1093.5 c 0
 460.333007812 1081.83300781 447 1066.66699219 437 1048 c 0
 427 1029.33300781 420.166992188 1008.33300781 416.5 985 c 0
 412.833007812 961.666992188 411.666992188 938 413 914 c 0
 402.333007812 908 386.5 901.166992188 365.5 893.5 c 0
 344.5 885.833007812 322.166992188 878.666992188 298.5 872 c 0
 274.833007812 865.333007812 251.833007812 859.5 229.5 854.5 c 0
 207.166992188 849.5 189 846.333007812 175 845 c 0
 149 925 l 0
 153.666992188 959.666992188 169.5 995.333007812 196.5 1032 c 0
 223.5 1068.66699219 258.333007812 1102 301 1132 c 0
 343.666992188 1162 392.666992188 1186.66699219 448 1206 c 0
 503.333007812 1225.33300781 561.666992188 1235 623 1235 c 0
 661 1235 698 1231.5 734 1224.5 c 0
 770 1217.5 801.833007812 1206 829.5 1190 c 0
 857.166992188 1174 879.333007812 1152.66699219 896 1126 c 0
 912.666992188 1099.33300781 921 1066 921 1026 c 0
EndSplineSet
EndChar

StartChar: three
Encoding: 22 51 22
Width: 968
VWidth: 1024
Flags: HW
LayerCount: 2
Fore
SplineSet
873 1001 m 0
 873 965 867.166992188 931.5 855.5 900.5 c 0
 843.833007812 869.5 827.666992188 841.166992188 807 815.5 c 0
 786.333007812 789.833007812 762 767.166992188 734 747.5 c 0
 706 727.833007812 676 711.333007812 644 698 c 0
 679.333007812 694 709.833007812 684 735.5 668 c 0
 761.166992188 652 782.5 631.666992188 799.5 607 c 0
 816.5 582.333007812 829 554.666992188 837 524 c 0
 845 493.333007812 849 461.333007812 849 428 c 0
 849 365.333007812 835.666992188 306.166992188 809 250.5 c 0
 782.333007812 194.833007812 746.166992188 146.166992188 700.5 104.5 c 0
 654.833007812 62.8330078125 601.833007812 29.8330078125 541.5 5.5 c 0
 481.166992188 -18.8330078125 417.333007812 -31 350 -31 c 0
 326.666992188 -31 299.833007812 -27 269.5 -19 c 0
 239.166992188 -11 208.5 0.3330078125 177.5 15 c 0
 146.5 29.6669921875 116.166992188 47.5 86.5 68.5 c 0
 56.8330078125 89.5 30.6669921875 113 8 139 c 0
 67 246 l 0
 115.666992188 200 164.166992188 167.833007812 212.5 149.5 c 0
 260.833007812 131.166992188 308 122 354 122 c 0
 384 122 412.333007812 128.5 439 141.5 c 0
 465.666992188 154.5 489.166992188 173 509.5 197 c 0
 529.833007812 221 546 250.166992188 558 284.5 c 0
 570 318.833007812 576 357.666992188 576 401 c 0
 576 467.666992188 560.833007812 516.333007812 530.5 547 c 0
 500.166992188 577.666992188 460.666992188 593 412 593 c 0
 391 593 l 0
 385.666992188 593 380.166992188 592.666992188 374.5 592 c 0
 368.833007812 591.333007812 362.833007812 590.666992188 356.5 590 c 0
 350.166992188 589.333007812 342.333007812 588 333 586 c 0
 327 686 l 0
 512.333007812 731.333007812 605 832.666992188 605 990 c 0
 605 1032 598 1062.66699219 584 1082 c 0
 570 1101.33300781 548.666992188 1111 520 1111 c 0
 504 1111 489 1107.5 475 1100.5 c 0
 461 1093.5 449 1083.16699219 439 1069.5 c 0
 429 1055.83300781 421.5 1039.16699219 416.5 1019.5 c 0
 411.5 999.833007812 410 977.666992188 412 953 c 0
 398 945 380.666992188 936.333007812 360 927 c 0
 339.333007812 917.666992188 317.5 909.166992188 294.5 901.5 c 0
 271.5 893.833007812 249.166992188 887.5 227.5 882.5 c 0
 205.833007812 877.5 187 874.666992188 171 874 c 0
 145 945 l 0
 149 973 163 1003.83300781 187 1037.5 c 0
 211 1071.16699219 242.166992188 1102.66699219 280.5 1132 c 0
 318.833007812 1161.33300781 363.333007812 1185.83300781 414 1205.5 c 0
 464.666992188 1225.16699219 518.666992188 1235 576 1235 c 0
 634 1235 682 1228.5 720 1215.5 c 0
 758 1202.5 788.333007812 1185.16699219 811 1163.5 c 0
 833.666992188 1141.83300781 849.666992188 1116.83300781 859 1088.5 c 0
 868.333007812 1060.16699219 873 1031 873 1001 c 0
EndSplineSet
EndChar

StartChar: four
Encoding: 23 52 23
Width: 968
VWidth: 1024
Flags: HW
LayerCount: 2
Fore
SplineSet
255 481 m 0
 516 481 l 0
 582 960 l 0
 255 481 l 0
911 450 m 0
 903 439.333007812 893.833007812 428.166992188 883.5 416.5 c 0
 873.166992188 404.833007812 862.666992188 393.5 852 382.5 c 0
 841.333007812 371.5 831 361.5 821 352.5 c 0
 811 343.5 802 336 794 330 c 0
 737 330 l 0
 711 144 l 0
 710.333007812 138.666992188 711.666992188 133.833007812 715 129.5 c 0
 718.333007812 125.166992188 724.5 120.5 733.5 115.5 c 0
 742.5 110.5 755 105.333007812 771 100 c 0
 787 94.6669921875 807.666992188 89 833 83 c 0
 822 0 l 0
 255 0 l 0
 266 83 l 0
 307.333007812 90.3330078125 341.166992188 97.1669921875 367.5 103.5 c 0
 393.833007812 109.833007812 414.666992188 115.833007812 430 121.5 c 0
 445.333007812 127.166992188 456 132.666992188 462 138 c 0
 468 143.333007812 471.333007812 149 472 155 c 0
 496 330 l 0
 61 330 l 0
 27 373 l 0
 578 1164 l 0
 594 1169.33300781 612.666992188 1175.5 634 1182.5 c 0
 655.333007812 1189.5 677 1196.66699219 699 1204 c 0
 763 1225 l 0
 784.333007812 1232.33300781 803 1239 819 1245 c 0
 856 1200 l 0
 757 481 l 0
 891 481 l 0
 911 450 l 0
EndSplineSet
EndChar

StartChar: five
Encoding: 24 53 24
Width: 968
VWidth: 1024
Flags: HW
LayerCount: 2
Fore
SplineSet
948 1184 m 0
 940.666992188 1172 929.666992188 1157 915 1139 c 0
 900.333007812 1121 885 1103 869 1085 c 0
 853 1067 837.666992188 1050.5 823 1035.5 c 0
 808.333007812 1020.5 797 1010 789 1004 c 0
 376 1004 l 0
 372 984.666992188 367.166992188 963.5 361.5 940.5 c 0
 355.833007812 917.5 350 894.666992188 344 872 c 0
 338 849.333007812 332.166992188 827.666992188 326.5 807 c 0
 320.833007812 786.333007812 315.666992188 768.666992188 311 754 c 0
 335.666992188 767.333007812 367 778.333007812 405 787 c 0
 443 795.666992188 482.333007812 800 523 800 c 0
 581.666992188 800 632.333007812 790.5 675 771.5 c 0
 717.666992188 752.5 752.833007812 727.833007812 780.5 697.5 c 0
 808.166992188 667.166992188 828.666992188 632.666992188 842 594 c 0
 855.333007812 555.333007812 862 516.333007812 862 477 c 0
 862 437 857.333007812 396.833007812 848 356.5 c 0
 838.666992188 316.166992188 824.833007812 277.166992188 806.5 239.5 c 0
 788.166992188 201.833007812 765.166992188 166.5 737.5 133.5 c 0
 709.833007812 100.5 677.5 71.8330078125 640.5 47.5 c 0
 603.5 23.1669921875 561.666992188 4 515 -10 c 0
 468.333007812 -24 417.333007812 -31 362 -31 c 0
 332 -31 301.166992188 -27.3330078125 269.5 -20 c 0
 237.833007812 -12.6669921875 206.666992188 -2 176 12 c 0
 145.333007812 26 115.833007812 43.3330078125 87.5 64 c 0
 59.1669921875 84.6669921875 33.3330078125 108 10 134 c 0
 71 231 l 0
 101 207.666992188 129.166992188 188.333007812 155.5 173 c 0
 181.833007812 157.666992188 207 145.5 231 136.5 c 0
 255 127.5 277.833007812 121.166992188 299.5 117.5 c 0
 321.166992188 113.833007812 342.666992188 112 364 112 c 0
 396 112 426.5 120 455.5 136 c 0
 484.5 152 510 174 532 202 c 0
 554 230 571.5 263 584.5 301 c 0
 597.5 339 604 380 604 424 c 0
 604 456.666992188 599.666992188 486.333007812 591 513 c 0
 582.333007812 539.666992188 570 562.333007812 554 581 c 0
 538 599.666992188 518.5 614.166992188 495.5 624.5 c 0
 472.5 634.833007812 447 640 419 640 c 0
 365 640 318 631.666992188 278 615 c 0
 238 598.333007812 200.333007812 576.666992188 165 550 c 0
 123 583 l 0
 131.666992188 607 141 635.833007812 151 669.5 c 0
 161 703.166992188 171.333007812 739 182 777 c 0
 192.666992188 815 203.333007812 854.333007812 214 895 c 0
 224.666992188 935.666992188 234.5 974.833007812 243.5 1012.5 c 0
 252.5 1050.16699219 260.833007812 1085.66699219 268.5 1119 c 0
 276.166992188 1152.33300781 282 1180.66699219 286 1204 c 0
 805 1204 l 0
 821.666992188 1204 836.833007812 1204.83300781 850.5 1206.5 c 0
 864.166992188 1208.16699219 875.666992188 1210.33300781 885 1213 c 0
 896.333007812 1215.66699219 906.333007812 1219 915 1223 c 0
 948 1184 l 0
EndSplineSet
EndChar

StartChar: six
Encoding: 25 54 25
Width: 968
VWidth: 1024
Flags: HW
LayerCount: 2
Fore
SplineSet
900 1150 m 0
 821.333007812 1136 752.333007812 1114.66699219 693 1086 c 0
 633.666992188 1057.33300781 582.333007812 1023 539 983 c 0
 495.666992188 943 459.833007812 898.166992188 431.5 848.5 c 0
 403.166992188 798.833007812 380.666992188 745.666992188 364 689 c 0
 404.666992188 721.666992188 445.166992188 746.666992188 485.5 764 c 0
 525.833007812 781.333007812 563.666992188 790 599 790 c 0
 643.666992188 790 684.333007812 782.333007812 721 767 c 0
 757.666992188 751.666992188 789 730.5 815 703.5 c 0
 841 676.5 861.166992188 644.166992188 875.5 606.5 c 0
 889.833007812 568.833007812 897 527.666992188 897 483 c 0
 897 447 892.166992188 409.166992188 882.5 369.5 c 0
 872.833007812 329.833007812 858.833007812 291 840.5 253 c 0
 822.166992188 215 799.333007812 178.833007812 772 144.5 c 0
 744.666992188 110.166992188 713.5 80 678.5 54 c 0
 643.5 28 604.833007812 7.3330078125 562.5 -8 c 0
 520.166992188 -23.3330078125 474.333007812 -31 425 -31 c 0
 374.333007812 -31 326.5 -21.5 281.5 -2.5 c 0
 236.5 16.5 197 43.1669921875 163 77.5 c 0
 129 111.833007812 102.166992188 153 82.5 201 c 0
 62.8330078125 249 53 302 53 360 c 0
 53 432 61 502.5 77 571.5 c 0
 93 640.5 116.666992188 706.166992188 148 768.5 c 0
 179.333007812 830.833007812 218.333007812 889 265 943 c 0
 311.666992188 997 365.833007812 1045 427.5 1087 c 0
 489.166992188 1129 558.333007812 1164 635 1192 c 0
 711.666992188 1220 795.333007812 1239 886 1249 c 0
 900 1150 l 0
506 639 m 0
 482.666992188 639 456 629.666992188 426 611 c 0
 396 592.333007812 365 567 333 535 c 0
 329.666992188 508.333007812 327.333007812 481.666992188 326 455 c 0
 324.666992188 428.333007812 324 401 324 373 c 0
 324 323 327.666992188 281 335 247 c 0
 342.333007812 213 352.333007812 185.5 365 164.5 c 0
 377.666992188 143.5 392.833007812 128.5 410.5 119.5 c 0
 428.166992188 110.5 447 106 467 106 c 0
 487 106 505 111.5 521 122.5 c 0
 537 133.5 551.166992188 148.333007812 563.5 167 c 0
 575.833007812 185.666992188 586.166992188 207 594.5 231 c 0
 602.833007812 255 609.833007812 279.666992188 615.5 305 c 0
 621.166992188 330.333007812 625.166992188 355.833007812 627.5 381.5 c 0
 629.833007812 407.166992188 631 430.666992188 631 452 c 0
 631 490.666992188 627.333007812 522.166992188 620 546.5 c 0
 612.666992188 570.833007812 603 589.833007812 591 603.5 c 0
 579 617.166992188 565.5 626.5 550.5 631.5 c 0
 535.5 636.5 520.666992188 639 506 639 c 0
EndSplineSet
EndChar

StartChar: seven
Encoding: 26 55 26
Width: 968
VWidth: 1024
Flags: HW
LayerCount: 2
Fore
SplineSet
1005 1167 m 0
 966.333007812 1095 928.333007812 1022.66699219 891 950 c 0
 853.666992188 877.333007812 817.333007812 805.666992188 782 735 c 0
 746.666992188 664.333007812 713 595.666992188 681 529 c 0
 649 462.333007812 619.166992188 399.833007812 591.5 341.5 c 0
 563.833007812 283.166992188 538.833007812 229.5 516.5 180.5 c 0
 494.166992188 131.5 475.333007812 89.3330078125 460 54 c 0
 448 46 431.833007812 37.8330078125 411.5 29.5 c 0
 391.166992188 21.1669921875 369.666992188 13.3330078125 347 6 c 0
 324.333007812 -1.3330078125 302 -8.1669921875 280 -14.5 c 0
 258 -20.8330078125 239 -26 223 -30 c 0
 181 13 l 0
 226.333007812 81 268 144.833007812 306 204.5 c 0
 344 264.166992188 379.666992188 321.333007812 413 376 c 0
 446.333007812 430.666992188 477.833007812 483.5 507.5 534.5 c 0
 537.166992188 585.5 566.166992188 636.5 594.5 687.5 c 0
 622.833007812 738.5 651 790 679 842 c 0
 707 894 736.333007812 948.333007812 767 1005 c 0
 344 1005 l 0
 334.666992188 1005 324.5 1003.66699219 313.5 1001 c 0
 302.5 998.333007812 290.5 991.5 277.5 980.5 c 0
 264.5 969.5 250.166992188 953 234.5 931 c 0
 218.833007812 909 201.666992188 878.666992188 183 840 c 0
 115 868 l 0
 117.666992188 878 121.5 892 126.5 910 c 0
 131.5 928 137 947.833007812 143 969.5 c 0
 149 991.166992188 155.166992188 1013.66699219 161.5 1037 c 0
 167.833007812 1060.33300781 174 1082.83300781 180 1104.5 c 0
 186 1126.16699219 191.666992188 1145.66699219 197 1163 c 0
 202.333007812 1180.33300781 207 1194 211 1204 c 0
 979 1204 l 0
 1005 1167 l 0
EndSplineSet
EndChar

StartChar: eight
Encoding: 27 56 27
Width: 968
VWidth: 1024
Flags: HW
LayerCount: 2
Fore
SplineSet
933 1001 m 0
 933 967 925.666992188 935.833007812 911 907.5 c 0
 896.333007812 879.166992188 877.333007812 852.833007812 854 828.5 c 0
 830.666992188 804.166992188 804.666992188 781.666992188 776 761 c 0
 747.333007812 740.333007812 718.666992188 721.333007812 690 704 c 0
 716.666992188 690 742.5 674 767.5 656 c 0
 792.5 638 814.5 617 833.5 593 c 0
 852.5 569 867.666992188 541 879 509 c 0
 890.333007812 477 896 439.666992188 896 397 c 0
 896 340.333007812 882.333007812 286.166992188 855 234.5 c 0
 827.666992188 182.833007812 791.5 137.333007812 746.5 98 c 0
 701.5 58.6669921875 649.833007812 27.3330078125 591.5 4 c 0
 533.166992188 -19.3330078125 473 -31 411 -31 c 0
 345 -31 288.166992188 -23.3330078125 240.5 -8 c 0
 192.833007812 7.3330078125 153.666992188 28 123 54 c 0
 92.3330078125 80 69.6669921875 109.833007812 55 143.5 c 0
 40.3330078125 177.166992188 33 212.666992188 33 250 c 0
 33 292.666992188 41.8330078125 332.5 59.5 369.5 c 0
 77.1669921875 406.5 100.333007812 440.833007812 129 472.5 c 0
 157.666992188 504.166992188 190.5 533 227.5 559 c 0
 264.5 585 302.666992188 608.333007812 342 629 c 0
 318.666992188 641.666992188 296.5 655.5 275.5 670.5 c 0
 254.5 685.5 236.166992188 703 220.5 723 c 0
 204.833007812 743 192.333007812 766.5 183 793.5 c 0
 173.666992188 820.5 169 852.333007812 169 889 c 0
 169 937.666992188 181 983.166992188 205 1025.5 c 0
 229 1067.83300781 261.333007812 1104.5 302 1135.5 c 0
 342.666992188 1166.5 390 1190.83300781 444 1208.5 c 0
 498 1226.16699219 555 1235 615 1235 c 0
 671 1235 719 1229.16699219 759 1217.5 c 0
 799 1205.83300781 832 1189.66699219 858 1169 c 0
 884 1148.33300781 903 1123.66699219 915 1095 c 0
 927 1066.33300781 933 1035 933 1001 c 0
622 342 m 0
 622 374 617.5 401.833007812 608.5 425.5 c 0
 599.5 449.166992188 587.166992188 470 571.5 488 c 0
 555.833007812 506 537.666992188 521.833007812 517 535.5 c 0
 496.333007812 549.166992188 474.666992188 562 452 574 c 0
 431.333007812 553.333007812 412.333007812 531.833007812 395 509.5 c 0
 377.666992188 487.166992188 362.5 463.666992188 349.5 439 c 0
 336.5 414.333007812 326.333007812 388.333007812 319 361 c 0
 311.666992188 333.666992188 308 304.666992188 308 274 c 0
 308 245.333007812 311.833007812 220.166992188 319.5 198.5 c 0
 327.166992188 176.833007812 337.333007812 158.666992188 350 144 c 0
 362.666992188 129.333007812 377.166992188 118.333007812 393.5 111 c 0
 409.833007812 103.666992188 426.666992188 100 444 100 c 0
 470.666992188 100 495 107 517 121 c 0
 539 135 557.666992188 153.5 573 176.5 c 0
 588.333007812 199.5 600.333007812 225.333007812 609 254 c 0
 617.666992188 282.666992188 622 312 622 342 c 0
417 940 m 0
 417 916.666992188 421.166992188 896.333007812 429.5 879 c 0
 437.833007812 861.666992188 449.166992188 846 463.5 832 c 0
 477.833007812 818 494.666992188 805.166992188 514 793.5 c 0
 533.333007812 781.833007812 554 770.666992188 576 760 c 0
 602 786.666992188 624.666992188 817.333007812 644 852 c 0
 663.333007812 886.666992188 673 927.666992188 673 975 c 0
 673 1019 662.833007812 1052.66699219 642.5 1076 c 0
 622.166992188 1099.33300781 593.333007812 1111 556 1111 c 0
 536.666992188 1111 518.666992188 1106 502 1096 c 0
 485.333007812 1086 470.666992188 1072.83300781 458 1056.5 c 0
 445.333007812 1040.16699219 435.333007812 1021.83300781 428 1001.5 c 0
 420.666992188 981.166992188 417 960.666992188 417 940 c 0
EndSplineSet
EndChar

StartChar: nine
Encoding: 28 57 28
Width: 968
VWidth: 1024
Flags: HW
LayerCount: 2
Fore
SplineSet
942 862 m 0
 942 748 924.333007812 639.666992188 889 537 c 0
 853.666992188 434.333007812 800.666992188 342.5 730 261.5 c 0
 659.333007812 180.5 571.5 113.333007812 466.5 60 c 0
 361.5 6.6669921875 239.333007812 -27.6669921875 100 -43 c 0
 87 56 l 0
 167.666992188 74.6669921875 238.5 97.8330078125 299.5 125.5 c 0
 360.5 153.166992188 413 186 457 224 c 0
 501 262 537.166992188 305.666992188 565.5 355 c 0
 593.833007812 404.333007812 616 460 632 522 c 0
 597.333007812 490.666992188 559 464.833007812 517 444.5 c 0
 475 424.166992188 429.666992188 414 381 414 c 0
 331 414 288.166992188 422.666992188 252.5 440 c 0
 216.833007812 457.333007812 187.5 480.333007812 164.5 509 c 0
 141.5 537.666992188 124.666992188 570.666992188 114 608 c 0
 103.333007812 645.333007812 98 684.333007812 98 725 c 0
 98 786.333007812 110.666992188 847.333007812 136 908 c 0
 161.333007812 968.666992188 196 1023.33300781 240 1072 c 0
 284 1120.66699219 335.833007812 1160 395.5 1190 c 0
 455.166992188 1220 519.666992188 1235 589 1235 c 0
 643 1235 691.666992188 1227.5 735 1212.5 c 0
 778.333007812 1197.5 815.333007812 1174.66699219 846 1144 c 0
 876.666992188 1113.33300781 900.333007812 1074.5 917 1027.5 c 0
 933.666992188 980.5 942 925.333007812 942 862 c 0
474 575 m 0
 508.666992188 575 541.5 584.166992188 572.5 602.5 c 0
 603.5 620.833007812 632 644.333007812 658 673 c 0
 664 729 667 790 667 856 c 0
 667 904.666992188 664.166992188 944.833007812 658.5 976.5 c 0
 652.833007812 1008.16699219 644.666992188 1033.16699219 634 1051.5 c 0
 623.333007812 1069.83300781 610.666992188 1082.5 596 1089.5 c 0
 581.333007812 1096.5 565 1100 547 1100 c 0
 511.666992188 1100 482.166992188 1089.66699219 458.5 1069 c 0
 434.833007812 1048.33300781 416 1022 402 990 c 0
 388 958 378 922.5 372 883.5 c 0
 366 844.5 363 806.666992188 363 770 c 0
 363 734 366.333007812 703.666992188 373 679 c 0
 379.666992188 654.333007812 388.333007812 634.166992188 399 618.5 c 0
 409.666992188 602.833007812 421.5 591.666992188 434.5 585 c 0
 447.5 578.333007812 460.666992188 575 474 575 c 0
EndSplineSet
EndChar

StartChar: colon
Encoding: 29 58 29
Width: 500
VWidth: 1024
Flags: HW
LayerCount: 2
Fore
SplineSet
373 172 m 0
 373 148.666992188 368.833007812 125 360.5 101 c 0
 352.166992188 77 339.666992188 55.3330078125 323 36 c 0
 306.333007812 16.6669921875 285.666992188 0.6669921875 261 -12 c 0
 236.333007812 -24.6669921875 207.666992188 -31 175 -31 c 0
 128.333007812 -31 94.3330078125 -20 73 2 c 0
 51.6669921875 24 41 52.6669921875 41 88 c 0
 41 110 45.6669921875 132.666992188 55 156 c 0
 64.3330078125 179.333007812 77.5 200.666992188 94.5 220 c 0
 111.5 239.333007812 132.333007812 255.166992188 157 267.5 c 0
 181.666992188 279.833007812 209.666992188 286 241 286 c 0
 285.666992188 286 318.833007812 275.166992188 340.5 253.5 c 0
 362.166992188 231.833007812 373 204.666992188 373 172 c 0
466 847 m 0
 466 823.666992188 461.833007812 800 453.5 776 c 0
 445.166992188 752 432.666992188 730.333007812 416 711 c 0
 399.333007812 691.666992188 378.666992188 675.666992188 354 663 c 0
 329.333007812 650.333007812 300.666992188 644 268 644 c 0
 221.333007812 644 187.333007812 655 166 677 c 0
 144.666992188 699 134 727.666992188 134 763 c 0
 134 785 138.666992188 807.666992188 148 831 c 0
 157.333007812 854.333007812 170.5 875.666992188 187.5 895 c 0
 204.5 914.333007812 225.333007812 930.166992188 250 942.5 c 0
 274.666992188 954.833007812 302.666992188 961 334 961 c 0
 378.666992188 961 411.833007812 950.166992188 433.5 928.5 c 0
 455.166992188 906.833007812 466 879.666992188 466 847 c 0
EndSplineSet
EndChar

StartChar: semicolon
Encoding: 30 59 30
Width: 500
VWidth: 1024
Flags: HW
LayerCount: 2
Fore
SplineSet
399 122 m 0
 399 91.3330078125 393.666992188 59.1669921875 383 25.5 c 0
 372.333007812 -8.1669921875 358.166992188 -41.8330078125 340.5 -75.5 c 0
 322.833007812 -109.166992188 302.333007812 -142 279 -174 c 0
 255.666992188 -206 231.166992188 -236.166992188 205.5 -264.5 c 0
 179.833007812 -292.833007812 154 -318.166992188 128 -340.5 c 0
 102 -362.833007812 77.3330078125 -381 54 -395 c 0
 -10 -340 l 0
 15.3330078125 -313.333007812 37.6669921875 -286 57 -258 c 0
 76.3330078125 -230 92.3330078125 -202.5 105 -175.5 c 0
 117.666992188 -148.5 127.166992188 -122.666992188 133.5 -98 c 0
 139.833007812 -73.3330078125 143 -50.6669921875 143 -30 c 0
 143 -18 140.666992188 -5.6669921875 136 7 c 0
 131.333007812 19.6669921875 124.333007812 31 115 41 c 0
 105.666992188 51 94 59 80 65 c 0
 66 71 49.3330078125 73 30 71 c 0
 27 159 l 0
 35 165.666992188 46.5 173 61.5 181 c 0
 76.5 189 93.3330078125 197.166992188 112 205.5 c 0
 130.666992188 213.833007812 150.333007812 221.666992188 171 229 c 0
 191.666992188 236.333007812 211.666992188 243 231 249 c 0
 250.333007812 255 268.333007812 259.833007812 285 263.5 c 0
 301.666992188 267.166992188 315.333007812 269 326 269 c 0
 349.333007812 255.666992188 367.333007812 238.166992188 380 216.5 c 0
 392.666992188 194.833007812 399 163.333007812 399 122 c 0
468 847 m 0
 468 823.666992188 463.833007812 800 455.5 776 c 0
 447.166992188 752 434.666992188 730.333007812 418 711 c 0
 401.333007812 691.666992188 380.666992188 675.666992188 356 663 c 0
 331.333007812 650.333007812 302.666992188 644 270 644 c 0
 223.333007812 644 189.333007812 655 168 677 c 0
 146.666992188 699 136 727.666992188 136 763 c 0
 136 785 140.666992188 807.666992188 150 831 c 0
 159.333007812 854.333007812 172.5 875.666992188 189.5 895 c 0
 206.5 914.333007812 227.333007812 930.166992188 252 942.5 c 0
 276.666992188 954.833007812 304.666992188 961 336 961 c 0
 380.666992188 961 413.833007812 950.166992188 435.5 928.5 c 0
 457.166992188 906.833007812 468 879.666992188 468 847 c 0
EndSplineSet
EndChar

StartChar: less
Encoding: 31 60 31
Width: 900
VWidth: 1024
Flags: HW
LayerCount: 2
Fore
SplineSet
867 892 m 0
 864.333007812 884.666992188 860.5 874.666992188 855.5 862 c 0
 850.5 849.333007812 845.333007812 836 840 822 c 0
 834.666992188 808 829.5 794.666992188 824.5 782 c 0
 819.5 769.333007812 815.666992188 760 813 754 c 0
 321 569 l 0
 773 382 l 0
 791 336 l 0
 783.666992188 329.333007812 775.333007812 321.5 766 312.5 c 0
 756.666992188 303.5 746.833007812 294.333007812 736.5 285 c 0
 726.166992188 275.666992188 715.666992188 266.666992188 705 258 c 0
 694.333007812 249.333007812 684 242 674 236 c 0
 85 480 l 0
 60 525 l 0
 63.3330078125 533.666992188 67.3330078125 543.666992188 72 555 c 0
 76.6669921875 566.333007812 81.5 578 86.5 590 c 0
 91.5 602 96.5 613.666992188 101.5 625 c 0
 106.5 636.333007812 111 646 115 654 c 0
 839 927 l 0
 867 892 l 0
EndSplineSet
EndChar

StartChar: equal
Encoding: 32 61 32
Width: 900
VWidth: 1024
Flags: HW
LayerCount: 2
Fore
SplineSet
809 456 m 0
 806.333007812 448.666992188 802.166992188 439.333007812 796.5 428 c 0
 790.833007812 416.666992188 784.666992188 405 778 393 c 0
 771.333007812 381 765 369.666992188 759 359 c 0
 753 348.333007812 748.666992188 340.333007812 746 335 c 0
 66 335 l 0
 40 369 l 0
 42.6669921875 376.333007812 46.6669921875 385.5 52 396.5 c 0
 57.3330078125 407.5 63.1669921875 418.833007812 69.5 430.5 c 0
 75.8330078125 442.166992188 82 453.333007812 88 464 c 0
 94 474.666992188 99 483.333007812 103 490 c 0
 782 490 l 0
 809 456 l 0
850 756 m 0
 847.333007812 748.666992188 843.166992188 739.333007812 837.5 728 c 0
 831.833007812 716.666992188 825.666992188 705 819 693 c 0
 812.333007812 681 806 669.666992188 800 659 c 0
 794 648.333007812 789.666992188 640.333007812 787 635 c 0
 107 635 l 0
 81 669 l 0
 83.6669921875 676.333007812 87.6669921875 685.5 93 696.5 c 0
 98.3330078125 707.5 104.166992188 718.833007812 110.5 730.5 c 0
 116.833007812 742.166992188 123 753.333007812 129 764 c 0
 135 774.666992188 140 783.333007812 144 790 c 0
 823 790 l 0
 850 756 l 0
EndSplineSet
EndChar

StartChar: greater
Encoding: 33 62 33
Width: 900
VWidth: 1024
Flags: HW
LayerCount: 2
Fore
SplineSet
831 638 m 0
 827.666992188 628.666992188 823.666992188 618.166992188 819 606.5 c 0
 814.333007812 594.833007812 809.5 583.166992188 804.5 571.5 c 0
 799.5 559.833007812 794.5 548.5 789.5 537.5 c 0
 784.5 526.5 780 517 776 509 c 0
 51 236 l 0
 25 271 l 0
 27 277.666992188 30.5 287.5 35.5 300.5 c 0
 40.5 313.5 45.6669921875 327 51 341 c 0
 56.3330078125 355 61.6669921875 368.333007812 67 381 c 0
 72.3330078125 393.666992188 76.3330078125 403 79 409 c 0
 570 594 l 0
 118 781 l 0
 101 827 l 0
 108.333007812 833.666992188 116.666992188 841.5 126 850.5 c 0
 135.333007812 859.5 145 868.666992188 155 878 c 0
 165 887.333007812 175.333007812 896.333007812 186 905 c 0
 196.666992188 913.666992188 207 921 217 927 c 0
 805 683 l 0
 831 638 l 0
EndSplineSet
EndChar

StartChar: question
Encoding: 34 63 34
Width: 900
VWidth: 1024
Flags: HW
LayerCount: 2
Fore
SplineSet
919 1186 m 0
 919 1130.66699219 909.166992188 1081.33300781 889.5 1038 c 0
 869.833007812 994.666992188 845 954.833007812 815 918.5 c 0
 785 882.166992188 752.166992188 848 716.5 816 c 0
 680.833007812 784 647.166992188 752 615.5 720 c 0
 583.833007812 688 556.333007812 654.666992188 533 620 c 0
 509.666992188 585.333007812 495.333007812 547 490 505 c 0
 479 419 l 0
 473 414.333007812 465.166992188 409.5 455.5 404.5 c 0
 445.833007812 399.5 435.5 394.833007812 424.5 390.5 c 0
 413.5 386.166992188 402.666992188 382 392 378 c 0
 381.333007812 374 372 370.666992188 364 368 c 0
 341 389 l 0
 346 515 l 0
 348 556.333007812 356.5 595 371.5 631 c 0
 386.5 667 404.833007812 701.333007812 426.5 734 c 0
 448.166992188 766.666992188 471.5 798.333007812 496.5 829 c 0
 521.5 859.666992188 544.5 890.833007812 565.5 922.5 c 0
 586.5 954.166992188 604 986.833007812 618 1020.5 c 0
 632 1054.16699219 639 1090 639 1128 c 0
 639 1153.33300781 636.5 1177.33300781 631.5 1200 c 0
 626.5 1222.66699219 619.333007812 1242.5 610 1259.5 c 0
 600.666992188 1276.5 588.833007812 1290 574.5 1300 c 0
 560.166992188 1310 543.666992188 1315 525 1315 c 0
 505 1315 487.5 1309.16699219 472.5 1297.5 c 0
 457.5 1285.83300781 445.666992188 1269.66699219 437 1249 c 0
 428.333007812 1228.33300781 423.166992188 1204.33300781 421.5 1177 c 0
 419.833007812 1149.66699219 422 1120 428 1088 c 0
 413.333007812 1081.33300781 394.5 1074.16699219 371.5 1066.5 c 0
 348.5 1058.83300781 324.666992188 1051.83300781 300 1045.5 c 0
 275.333007812 1039.16699219 251.5 1033.5 228.5 1028.5 c 0
 205.5 1023.5 186.666992188 1020.33300781 172 1019 c 0
 142 1060 l 0
 142 1102.66699219 153.666992188 1145.83300781 177 1189.5 c 0
 200.333007812 1233.16699219 233 1272.83300781 275 1308.5 c 0
 317 1344.16699219 367.333007812 1373.33300781 426 1396 c 0
 484.666992188 1418.66699219 549.666992188 1430 621 1430 c 0
 668.333007812 1430 710.5 1423.66699219 747.5 1411 c 0
 784.5 1398.33300781 815.666992188 1381 841 1359 c 0
 866.333007812 1337 885.666992188 1311.16699219 899 1281.5 c 0
 912.333007812 1251.83300781 919 1220 919 1186 c 0
543 172 m 0
 543 148.666992188 538.833007812 125 530.5 101 c 0
 522.166992188 77 509.666992188 55.3330078125 493 36 c 0
 476.333007812 16.6669921875 455.666992188 0.6669921875 431 -12 c 0
 406.333007812 -24.6669921875 377.666992188 -31 345 -31 c 0
 298.333007812 -31 264.333007812 -20 243 2 c 0
 221.666992188 24 211 52.6669921875 211 88 c 0
 211 110 215.666992188 132.666992188 225 156 c 0
 234.333007812 179.333007812 247.5 200.666992188 264.5 220 c 0
 281.5 239.333007812 302.333007812 255.166992188 327 267.5 c 0
 351.666992188 279.833007812 379.666992188 286 411 286 c 0
 455.666992188 286 488.833007812 275.166992188 510.5 253.5 c 0
 532.166992188 231.833007812 543 204.666992188 543 172 c 0
EndSplineSet
EndChar

StartChar: at
Encoding: 35 64 35
Width: 1729
VWidth: 1024
Flags: HW
LayerCount: 2
Fore
SplineSet
1659 549 m 0
 1651 491 1635.16699219 436.333007812 1611.5 385 c 0
 1587.83300781 333.666992188 1559.5 286.166992188 1526.5 242.5 c 0
 1493.5 198.833007812 1457.33300781 159.5 1418 124.5 c 0
 1378.66699219 89.5 1339.33300781 59.6669921875 1300 35 c 0
 1260.66699219 10.3330078125 1223 -8.5 1187 -21.5 c 0
 1151 -34.5 1120 -41 1094 -41 c 0
 1084 -41 1072.16699219 -38.1669921875 1058.5 -32.5 c 0
 1044.83300781 -26.8330078125 1031.16699219 -16.5 1017.5 -1.5 c 0
 1003.83300781 13.5 991 34.1669921875 979 60.5 c 0
 967 86.8330078125 958 120.666992188 952 162 c 0
 934.666992188 134.666992188 914.666992188 108.666992188 892 84 c 0
 869.333007812 59.3330078125 845.666992188 37.6669921875 821 19 c 0
 796.333007812 0.3330078125 771.333007812 -14.3330078125 746 -25 c 0
 720.666992188 -35.6669921875 697 -41 675 -41 c 0
 652.333007812 -41 627.5 -34.6669921875 600.5 -22 c 0
 573.5 -9.3330078125 548.166992188 10.8330078125 524.5 38.5 c 0
 500.833007812 66.1669921875 481.166992188 101.833007812 465.5 145.5 c 0
 449.833007812 189.166992188 442 242.333007812 442 305 c 0
 442 357.666992188 448.666992188 409.166992188 462 459.5 c 0
 475.333007812 509.833007812 494.833007812 558 520.5 604 c 0
 546.166992188 650 577.333007812 693.166992188 614 733.5 c 0
 650.666992188 773.833007812 692.666992188 810 740 842 c 0
 758 854 779.333007812 865.666992188 804 877 c 0
 828.666992188 888.333007812 854.166992188 898.333007812 880.5 907 c 0
 906.833007812 915.666992188 933 922.666992188 959 928 c 0
 985 933.333007812 1008.66699219 936 1030 936 c 0
 1057.33300781 936 1084.16699219 930 1110.5 918 c 0
 1136.83300781 906 1161.66699219 893.333007812 1185 880 c 0
 1209 890.666992188 1232.33300781 900.666992188 1255 910 c 0
 1277.66699219 919.333007812 1297.66699219 928 1315 936 c 0
 1350 861 l 0
 1338.66699219 851.666992188 1329 843.333007812 1321 836 c 0
 1313 828.666992188 1306 820.166992188 1300 810.5 c 0
 1294 800.833007812 1288.83300781 789 1284.5 775 c 0
 1280.16699219 761 1275.66699219 742.666992188 1271 720 c 0
 1261 672 1252.16699219 626.5 1244.5 583.5 c 0
 1236.83300781 540.5 1230.5 501 1225.5 465 c 0
 1220.5 429 1216.66699219 397.666992188 1214 371 c 0
 1211.33300781 344.333007812 1210 323.666992188 1210 309 c 0
 1210 267.666992188 1215.33300781 236.5 1226 215.5 c 0
 1236.66699219 194.5 1250 184 1266 184 c 0
 1300 184 1329.83300781 210 1355.5 262 c 0
 1381.16699219 314 1402.66699219 396.666992188 1420 510 c 0
 1436.66699219 622.666992188 1435.83300781 720.666992188 1417.5 804 c 0
 1399.16699219 887.333007812 1368 956.333007812 1324 1011 c 0
 1280 1065.66699219 1226 1106.5 1162 1133.5 c 0
 1098 1160.5 1029 1174 955 1174 c 0
 875 1174 799.666992188 1156 729 1120 c 0
 658.333007812 1084 595.5 1035.33300781 540.5 974 c 0
 485.5 912.666992188 439.333007812 841.5 402 760.5 c 0
 364.666992188 679.5 339.666992188 594 327 504 c 0
 315.666992188 423.333007812 314.666992188 349.833007812 324 283.5 c 0
 333.333007812 217.166992188 350.333007812 157.666992188 375 105 c 0
 399.666992188 52.3330078125 430.833007812 6.5 468.5 -32.5 c 0
 506.166992188 -71.5 547.833007812 -103.833007812 593.5 -129.5 c 0
 639.166992188 -155.166992188 687.5 -174.333007812 738.5 -187 c 0
 789.5 -199.666992188 841 -206 893 -206 c 0
 929.666992188 -206 966.166992188 -202.5 1002.5 -195.5 c 0
 1038.83300781 -188.5 1074.33300781 -179.333007812 1109 -168 c 0
 1143.66699219 -156.666992188 1176.83300781 -143.833007812 1208.5 -129.5 c 0
 1240.16699219 -115.166992188 1269.5 -100.333007812 1296.5 -85 c 0
 1323.5 -69.6669921875 1347.66699219 -54.8330078125 1369 -40.5 c 0
 1390.33300781 -26.1669921875 1408 -13.3330078125 1422 -2 c 0
 1458 -107 l 0
 1432.66699219 -132.333007812 1399 -160.5 1357 -191.5 c 0
 1315 -222.5 1266.16699219 -251.666992188 1210.5 -279 c 0
 1154.83300781 -306.333007812 1093.16699219 -329.166992188 1025.5 -347.5 c 0
 957.833007812 -365.833007812 885.666992188 -375 809 -375 c 0
 731.666992188 -375 658 -366.166992188 588 -348.5 c 0
 518 -330.833007812 453.166992188 -305 393.5 -271 c 0
 333.833007812 -237 280.666992188 -195.666992188 234 -147 c 0
 187.333007812 -98.3330078125 149.166992188 -42.8330078125 119.5 19.5 c 0
 89.8330078125 81.8330078125 69.5 150.333007812 58.5 225 c 0
 47.5 299.666992188 48 379.666992188 60 465 c 0
 70.6669921875 539.666992188 90.3330078125 613.166992188 119 685.5 c 0
 147.666992188 757.833007812 184.166992188 826 228.5 890 c 0
 272.833007812 954 324 1013.16699219 382 1067.5 c 0
 440 1121.83300781 503.5 1168.66699219 572.5 1208 c 0
 641.5 1247.33300781 715.333007812 1278 794 1300 c 0
 872.666992188 1322 954.333007812 1333 1039 1333 c 0
 1135 1333 1224.66699219 1315.66699219 1308 1281 c 0
 1391.33300781 1246.33300781 1462 1195.5 1520 1128.5 c 0
 1578 1061.5 1620.16699219 979.333007812 1646.5 882 c 0
 1672.83300781 784.666992188 1677 673.666992188 1659 549 c 0
948 334 m 0
 950.666992188 360 954.833007812 391 960.5 427 c 0
 966.166992188 463 972 499.666992188 978 537 c 0
 984 574.333007812 990.166992188 610.333007812 996.5 645 c 0
 1002.83300781 679.666992188 1008 709 1012 733 c 0
 996.666992188 746.333007812 981 757.666992188 965 767 c 0
 949 776.333007812 933.333007812 781 918 781 c 0
 892.666992188 781 869.666992188 774.666992188 849 762 c 0
 828.333007812 749.333007812 809.833007812 732.5 793.5 711.5 c 0
 777.166992188 690.5 763.166992188 666.333007812 751.5 639 c 0
 739.833007812 611.666992188 730 583.166992188 722 553.5 c 0
 714 523.833007812 708.166992188 493.833007812 704.5 463.5 c 0
 700.833007812 433.166992188 699 405 699 379 c 0
 699 343.666992188 701.333007812 313.166992188 706 287.5 c 0
 710.666992188 261.833007812 716.5 240.666992188 723.5 224 c 0
 730.5 207.333007812 738 195.166992188 746 187.5 c 0
 754 179.833007812 761.333007812 176 768 176 c 0
 776.666992188 176 786.833007812 178.666992188 798.5 184 c 0
 810.166992188 189.333007812 823.5 198 838.5 210 c 0
 853.5 222 870.166992188 238.166992188 888.5 258.5 c 0
 906.833007812 278.833007812 926.666992188 304 948 334 c 0
EndSplineSet
EndChar

StartChar: A
Encoding: 36 65 36
Width: 1210
VWidth: 1024
Flags: HW
LayerCount: 2
Fore
SplineSet
712 555 m 0
 623 1003 l 0
 429 555 l 0
 712 555 l 0
371 424 m 0
 249 151 l 0
 240.333007812 130.333007812 245.666992188 115.333007812 265 106 c 0
 284.333007812 96.6669921875 319 89 369 83 c 0
 358 0 l 0
 -55 0 l 0
 -44 83 l 0
 -0.6669921875 91 32.5 99.3330078125 55.5 108 c 0
 78.5 116.666992188 94.3330078125 131 103 151 c 0
 564 1197 l 0
 583.333007812 1212.33300781 603.833007812 1226.16699219 625.5 1238.5 c 0
 647.166992188 1250.83300781 669.166992188 1262 691.5 1272 c 0
 713.833007812 1282 736 1290.66699219 758 1298 c 0
 780 1305.33300781 800.666992188 1311.66699219 820 1317 c 0
 1050 151 l 0
 1052 141.666992188 1054.83300781 133.333007812 1058.5 126 c 0
 1062.16699219 118.666992188 1067.66699219 112.333007812 1075 107 c 0
 1082.33300781 101.666992188 1092.33300781 97 1105 93 c 0
 1117.66699219 89 1134 85.6669921875 1154 83 c 0
 1143 0 l 0
 657 0 l 0
 668 83 l 0
 716.666992188 86.3330078125 750.166992188 93 768.5 103 c 0
 786.833007812 113 794 129 790 151 c 0
 737 424 l 0
 371 424 l 0
EndSplineSet
EndChar

StartChar: B
Encoding: 37 66 37
Width: 1114
VWidth: 1024
Flags: HW
LayerCount: 2
Fore
SplineSet
1054 410 m 0
 1054 344.666992188 1039.66699219 285 1011 231 c 0
 982.333007812 177 943.166992188 130.666992188 893.5 92 c 0
 843.833007812 53.3330078125 785.333007812 23.1669921875 718 1.5 c 0
 650.666992188 -20.1669921875 578.333007812 -31 501 -31 c 0
 487.666992188 -31 470.833007812 -30.6669921875 450.5 -30 c 0
 430.166992188 -29.3330078125 408 -28.1669921875 384 -26.5 c 0
 360 -24.8330078125 335 -23.1669921875 309 -21.5 c 0
 283 -19.8330078125 257.666992188 -18 233 -16 c 0
 174.333007812 -11.3330078125 112 -6 46 0 c 0
 -10 0 l 0
 -4 83 l 0
 38 92.3330078125 70 102.5 92 113.5 c 0
 114 124.5 125.666992188 134.666992188 127 144 c 0
 269 1160 l 0
 242.333007812 1156.66699219 217.833007812 1152.83300781 195.5 1148.5 c 0
 173.166992188 1144.16699219 151.666992188 1139.66699219 131 1135 c 0
 131 1227 l 0
 161.666992188 1235.66699219 195.666992188 1243.83300781 233 1251.5 c 0
 270.333007812 1259.16699219 309.833007812 1265.83300781 351.5 1271.5 c 0
 393.166992188 1277.16699219 436.5 1281.66699219 481.5 1285 c 0
 526.5 1288.33300781 572 1290 618 1290 c 0
 764.666992188 1290 873 1267.83300781 943 1223.5 c 0
 1013 1179.16699219 1048 1118 1048 1040 c 0
 1048 970 1026.33300781 907.333007812 983 852 c 0
 939.666992188 796.666992188 874.333007812 753.666992188 787 723 c 0
 825.666992188 718.333007812 861.5 706.833007812 894.5 688.5 c 0
 927.5 670.166992188 955.666992188 647 979 619 c 0
 1002.33300781 591 1020.66699219 559.166992188 1034 523.5 c 0
 1047.33300781 487.833007812 1054 450 1054 410 c 0
558 629 m 0
 544 629 532 628.666992188 522 628 c 0
 512 627.333007812 503.166992188 626.333007812 495.5 625 c 0
 487.833007812 623.666992188 480.666992188 622.333007812 474 621 c 0
 467.333007812 619.666992188 460.666992188 618 454 616 c 0
 388 144 l 0
 386 138 391.333007812 130.333007812 404 121 c 0
 425.333007812 110.333007812 447.833007812 103 471.5 99 c 0
 495.166992188 95 520.333007812 93 547 93 c 0
 585 93 618.5 100.166992188 647.5 114.5 c 0
 676.5 128.833007812 700.666992188 148.5 720 173.5 c 0
 739.333007812 198.5 753.833007812 228.166992188 763.5 262.5 c 0
 773.166992188 296.833007812 778 334.333007812 778 375 c 0
 778 408.333007812 774.5 440.333007812 767.5 471 c 0
 760.5 501.666992188 748.5 528.666992188 731.5 552 c 0
 714.5 575.333007812 691.833007812 594 663.5 608 c 0
 635.166992188 622 600 629 558 629 c 0
533 1176 m 0
 472 745 l 0
 505 745 l 0
 536.333007812 745 567.833007812 749.666992188 599.5 759 c 0
 631.166992188 768.333007812 659.833007812 782.833007812 685.5 802.5 c 0
 711.166992188 822.166992188 732 847.333007812 748 878 c 0
 764 908.666992188 772 945 772 987 c 0
 772 1023 765.833007812 1053 753.5 1077 c 0
 741.166992188 1101 725.333007812 1120.33300781 706 1135 c 0
 686.666992188 1149.66699219 665 1160.16699219 641 1166.5 c 0
 617 1172.83300781 593.666992188 1176 571 1176 c 0
 533 1176 l 0
EndSplineSet
EndChar

StartChar: C
Encoding: 38 67 38
Width: 1055
VWidth: 1024
Flags: HW
LayerCount: 2
Fore
SplineSet
1096 1190 m 0
 1097.33300781 1188 1095.83300781 1181.33300781 1091.5 1170 c 0
 1087.16699219 1158.66699219 1081 1144.83300781 1073 1128.5 c 0
 1065 1112.16699219 1055.83300781 1094.5 1045.5 1075.5 c 0
 1035.16699219 1056.5 1024.66699219 1038.33300781 1014 1021 c 0
 1003.33300781 1003.66699219 993.333007812 988.166992188 984 974.5 c 0
 974.666992188 960.833007812 967 951.666992188 961 947 c 0
 891 965 l 0
 883.666992188 988.333007812 874 1011 862 1033 c 0
 850 1055 835.5 1074.66699219 818.5 1092 c 0
 801.5 1109.33300781 782 1123.16699219 760 1133.5 c 0
 738 1143.83300781 713.333007812 1149 686 1149 c 0
 659.333007812 1149 635.166992188 1146 613.5 1140 c 0
 591.833007812 1134 567.666992188 1120.66699219 541 1100 c 0
 499 1067.33300781 464.166992188 1026.33300781 436.5 977 c 0
 408.833007812 927.666992188 387 875.833007812 371 821.5 c 0
 355 767.166992188 343.666992188 713.166992188 337 659.5 c 0
 330.333007812 605.833007812 327 558 327 516 c 0
 327 443.333007812 336.166992188 383.333007812 354.5 336 c 0
 372.833007812 288.666992188 395.666992188 251 423 223 c 0
 450.333007812 195 480.166992188 175.333007812 512.5 164 c 0
 544.833007812 152.666992188 575 146.666992188 603 146 c 0
 619 146 637.666992188 147.666992188 659 151 c 0
 680.333007812 154.333007812 704.5 161 731.5 171 c 0
 758.5 181 789.166992188 195.166992188 823.5 213.5 c 0
 857.833007812 231.833007812 896 256 938 286 c 0
 941.333007812 284.666992188 945 280.333007812 949 273 c 0
 953 265.666992188 956.833007812 257.666992188 960.5 249 c 0
 964.166992188 240.333007812 967.5 232.333007812 970.5 225 c 0
 973.5 217.666992188 975.666992188 213 977 211 c 0
 931.666992188 166.333007812 886.5 128.833007812 841.5 98.5 c 0
 796.5 68.1669921875 753 43.6669921875 711 25 c 0
 669 6.3330078125 629 -7 591 -15 c 0
 553 -23 518.333007812 -27 487 -27 c 0
 427 -27 370.666992188 -16.1669921875 318 5.5 c 0
 265.333007812 27.1669921875 219.666992188 58.6669921875 181 100 c 0
 142.333007812 141.333007812 111.833007812 192.166992188 89.5 252.5 c 0
 67.1669921875 312.833007812 56 381.666992188 56 459 c 0
 56 521.666992188 62.6669921875 585.5 76 650.5 c 0
 89.3330078125 715.5 109.666992188 778.833007812 137 840.5 c 0
 164.333007812 902.166992188 198.833007812 960.833007812 240.5 1016.5 c 0
 282.166992188 1072.16699219 331 1122.33300781 387 1167 c 0
 411 1185.66699219 438.333007812 1202.66699219 469 1218 c 0
 499.666992188 1233.33300781 531.5 1246.33300781 564.5 1257 c 0
 597.5 1267.66699219 631 1275.83300781 665 1281.5 c 0
 699 1287.16699219 731.666992188 1290 763 1290 c 0
 795.666992188 1290 828.666992188 1287.33300781 862 1282 c 0
 895.333007812 1276.66699219 927 1269.5 957 1260.5 c 0
 987 1251.5 1014 1241 1038 1229 c 0
 1062 1217 1081.33300781 1204 1096 1190 c 0
EndSplineSet
EndChar

StartChar: D
Encoding: 39 68 39
Width: 1238
VWidth: 1024
Flags: HW
LayerCount: 2
Fore
SplineSet
1217 755 m 0
 1217 696.333007812 1209.66699219 637 1195 577 c 0
 1180.33300781 517 1158.83300781 459 1130.5 403 c 0
 1102.16699219 347 1067.83300781 294.5 1027.5 245.5 c 0
 987.166992188 196.5 941.166992188 153.833007812 889.5 117.5 c 0
 837.833007812 81.1669921875 781.166992188 52.5 719.5 31.5 c 0
 657.833007812 10.5 591.666992188 0 521 0 c 0
 -10 0 l 0
 0 83 l 0
 42 92.3330078125 74 102.5 96 113.5 c 0
 118 124.5 129.666992188 134.666992188 131 144 c 0
 270 1148 l 0
 133 1126 l 0
 133 1229 l 0
 171 1238.33300781 211.666992188 1246.66699219 255 1254 c 0
 298.333007812 1261.33300781 341.666992188 1267.66699219 385 1273 c 0
 428.333007812 1278.33300781 470.833007812 1282.5 512.5 1285.5 c 0
 554.166992188 1288.5 592 1290 626 1290 c 0
 729.333007812 1290 818.166992188 1277.66699219 892.5 1253 c 0
 966.833007812 1228.33300781 1028 1192.83300781 1076 1146.5 c 0
 1124 1100.16699219 1159.5 1044 1182.5 978 c 0
 1205.5 912 1217 837.666992188 1217 755 c 0
594 1176 m 0
 584 1176 574 1175.33300781 564 1174 c 0
 554 1172.66699219 544 1171.66699219 534 1171 c 0
 399 169 l 0
 396.333007812 149.666992188 403.666992188 135.666992188 421 127 c 0
 438.333007812 118.333007812 469.666992188 114 515 114 c 0
 559.666992188 114 601.166992188 122.666992188 639.5 140 c 0
 677.833007812 157.333007812 712.666992188 180.833007812 744 210.5 c 0
 775.333007812 240.166992188 802.833007812 275 826.5 315 c 0
 850.166992188 355 870 397.666992188 886 443 c 0
 902 488.333007812 914.166992188 535.333007812 922.5 584 c 0
 930.833007812 632.666992188 935 680.333007812 935 727 c 0
 935 798.333007812 929 861.833007812 917 917.5 c 0
 905 973.166992188 885.5 1020.16699219 858.5 1058.5 c 0
 831.5 1096.83300781 796.333007812 1126 753 1146 c 0
 709.666992188 1166 656.666992188 1176 594 1176 c 0
EndSplineSet
EndChar

StartChar: E
Encoding: 40 69 40
Width: 1030
VWidth: 1024
Flags: HW
LayerCount: 2
Fore
SplineSet
977 324 m 0
 971 295.333007812 964 264.166992188 956 230.5 c 0
 948 196.833007812 940.166992188 164.5 932.5 133.5 c 0
 924.833007812 102.5 917.666992188 75 911 51 c 0
 904.333007812 27 899 10 895 0 c 0
 -10 0 l 0
 1 83 l 0
 44.3330078125 92.3330078125 77.1669921875 102.5 99.5 113.5 c 0
 121.833007812 124.5 133.666992188 134.666992188 135 144 c 0
 268 1115 l 0
 269.333007812 1123 261 1133 243 1145 c 0
 225 1157 194.333007812 1167.66699219 151 1177 c 0
 162 1260 l 0
 1005 1260 l 0
 1040 1225 l 0
 1036.66699219 1207.66699219 1031.83300781 1185 1025.5 1157 c 0
 1019.16699219 1129 1012.16699219 1100.33300781 1004.5 1071 c 0
 996.833007812 1041.66699219 989.166992188 1014 981.5 988 c 0
 973.833007812 962 967.333007812 942.666992188 962 930 c 0
 883 930 l 0
 888.333007812 992 887.166992188 1040.83300781 879.5 1076.5 c 0
 871.833007812 1112.16699219 856.333007812 1130 833 1130 c 0
 530 1130 l 0
 476 735 l 0
 843 735 l 0
 872 697 l 0
 866 687.666992188 858.5 676.333007812 849.5 663 c 0
 840.5 649.666992188 831.166992188 636.166992188 821.5 622.5 c 0
 811.833007812 608.833007812 802.166992188 596.333007812 792.5 585 c 0
 782.833007812 573.666992188 774.333007812 565.333007812 767 560 c 0
 759 570 750.166992188 578.333007812 740.5 585 c 0
 730.833007812 591.666992188 719.333007812 597.333007812 706 602 c 0
 692.666992188 606.666992188 676.666992188 610 658 612 c 0
 639.333007812 614 617 615 591 615 c 0
 459 615 l 0
 402 194 l 0
 400.666992188 184 401.666992188 175.166992188 405 167.5 c 0
 408.333007812 159.833007812 416.333007812 153.166992188 429 147.5 c 0
 441.666992188 141.833007812 460.166992188 137.5 484.5 134.5 c 0
 508.833007812 131.5 541.666992188 130 583 130 c 0
 666 130 l 0
 694.666992188 130 719.666992188 134.166992188 741 142.5 c 0
 762.333007812 150.833007812 782 164 800 182 c 0
 818 200 835.166992188 223 851.5 251 c 0
 867.833007812 279 885.333007812 312.666992188 904 352 c 0
 977 324 l 0
EndSplineSet
EndChar

StartChar: F
Encoding: 41 70 41
Width: 974
VWidth: 1024
Flags: HW
LayerCount: 2
Fore
SplineSet
846 697 m 0
 838.666992188 685 830.333007812 672.166992188 821 658.5 c 0
 811.666992188 644.833007812 802.333007812 631.5 793 618.5 c 0
 783.666992188 605.5 774.333007812 593.833007812 765 583.5 c 0
 755.666992188 573.166992188 747.333007812 565.333007812 740 560 c 0
 732 570 723.333007812 578.333007812 714 585 c 0
 704.666992188 591.666992188 693.166992188 597.333007812 679.5 602 c 0
 665.833007812 606.666992188 649.666992188 610 631 612 c 0
 612.333007812 614 590 615 564 615 c 0
 459 615 l 0
 395 144 l 0
 394.333007812 140 396 135.666992188 400 131 c 0
 404 126.333007812 411.5 121.5 422.5 116.5 c 0
 433.5 111.5 448.5 106.166992188 467.5 100.5 c 0
 486.5 94.8330078125 511 89 541 83 c 0
 530 0 l 0
 -10 0 l 0
 1 83 l 0
 44.3330078125 92.3330078125 77.1669921875 102.5 99.5 113.5 c 0
 121.833007812 124.5 133.666992188 134.666992188 135 144 c 0
 268 1115 l 0
 269.333007812 1123 261 1133 243 1145 c 0
 225 1157 194.333007812 1167.66699219 151 1177 c 0
 162 1260 l 0
 1014 1260 l 0
 1047 1225 l 0
 1044.33300781 1207.66699219 1039.83300781 1185 1033.5 1157 c 0
 1027.16699219 1129 1020.33300781 1100.33300781 1013 1071 c 0
 1005.66699219 1041.66699219 998.166992188 1014 990.5 988 c 0
 982.833007812 962 976.333007812 942.666992188 971 930 c 0
 890 930 l 0
 896.666992188 992 896 1040.83300781 888 1076.5 c 0
 880 1112.16699219 864.333007812 1130 841 1130 c 0
 530 1130 l 0
 476 735 l 0
 815 735 l 0
 846 697 l 0
EndSplineSet
EndChar

StartChar: G
Encoding: 42 71 42
Width: 1136
VWidth: 1024
Flags: HW
LayerCount: 2
Fore
SplineSet
1140 549 m 0
 1104 538.333007812 1078 525.833007812 1062 511.5 c 0
 1046 497.166992188 1037 482.333007812 1035 467 c 0
 1032.33300781 449 1029.33300781 426 1026 398 c 0
 1022.66699219 370 1019.16699219 341.5 1015.5 312.5 c 0
 1011.83300781 283.5 1008.5 256.333007812 1005.5 231 c 0
 1002.5 205.666992188 1000.33300781 186.666992188 999 174 c 0
 948.333007812 133.333007812 900.666992188 99.8330078125 856 73.5 c 0
 811.333007812 47.1669921875 769.5 26.1669921875 730.5 10.5 c 0
 691.5 -5.1669921875 655.333007812 -16 622 -22 c 0
 588.666992188 -28 558.666992188 -31 532 -31 c 0
 469.333007812 -31 409.333007812 -18.8330078125 352 5.5 c 0
 294.666992188 29.8330078125 244 64.8330078125 200 110.5 c 0
 156 156.166992188 121 211.333007812 95 276 c 0
 69 340.666992188 56 413 56 493 c 0
 56 556.333007812 63.1669921875 618.333007812 77.5 679 c 0
 91.8330078125 739.666992188 112 797.333007812 138 852 c 0
 164 906.666992188 195 957.833007812 231 1005.5 c 0
 267 1053.16699219 307 1095.66699219 351 1133 c 0
 379.666992188 1157.66699219 409.666992188 1179.66699219 441 1199 c 0
 472.333007812 1218.33300781 506.333007812 1234.66699219 543 1248 c 0
 579.666992188 1261.33300781 619.333007812 1271.66699219 662 1279 c 0
 704.666992188 1286.33300781 751.666992188 1290 803 1290 c 0
 827.666992188 1290 855.666992188 1287.66699219 887 1283 c 0
 918.333007812 1278.33300781 949.5 1271.66699219 980.5 1263 c 0
 1011.5 1254.33300781 1040.66699219 1243.66699219 1068 1231 c 0
 1095.33300781 1218.33300781 1117.66699219 1204 1135 1188 c 0
 1137.66699219 1185.33300781 1137 1178.33300781 1133 1167 c 0
 1129 1155.66699219 1123 1142 1115 1126 c 0
 1107 1110 1097.5 1092.5 1086.5 1073.5 c 0
 1075.5 1054.5 1064.5 1036.5 1053.5 1019.5 c 0
 1042.5 1002.5 1032 987.333007812 1022 974 c 0
 1012 960.666992188 1004 951.666992188 998 947 c 0
 930 963 l 0
 920 989 908.166992188 1013.83300781 894.5 1037.5 c 0
 880.833007812 1061.16699219 864.333007812 1082.16699219 845 1100.5 c 0
 825.666992188 1118.83300781 803 1133.5 777 1144.5 c 0
 751 1155.5 721 1161 687 1161 c 0
 656.333007812 1161 625 1153.33300781 593 1138 c 0
 561 1122.66699219 528.666992188 1098.33300781 496 1065 c 0
 472.666992188 1041 450.5 1008.66699219 429.5 968 c 0
 408.5 927.333007812 390.333007812 882.833007812 375 834.5 c 0
 359.666992188 786.166992188 347.5 736 338.5 684 c 0
 329.5 632 325 582.666992188 325 536 c 0
 325 464.666992188 333.666992188 403.833007812 351 353.5 c 0
 368.333007812 303.166992188 390.666992188 262 418 230 c 0
 445.333007812 198 475.833007812 174.666992188 509.5 160 c 0
 543.166992188 145.333007812 576.666992188 138 610 138 c 0
 628 138 648.833007812 140 672.5 144 c 0
 696.166992188 148 719.666992188 158.666992188 743 176 c 0
 786 467 l 0
 786.666992188 473.666992188 785.833007812 480.333007812 783.5 487 c 0
 781.166992188 493.666992188 773.166992188 500.333007812 759.5 507 c 0
 745.833007812 513.666992188 724.833007812 520.333007812 696.5 527 c 0
 668.166992188 533.666992188 629 541 579 549 c 0
 585 632 l 0
 1146 632 l 0
 1140 549 l 0
EndSplineSet
EndChar

StartChar: H
Encoding: 43 72 43
Width: 1329
VWidth: 1024
Flags: HW
LayerCount: 2
Fore
SplineSet
663 1177 m 0
 619 1167.66699219 585.833007812 1157.33300781 563.5 1146 c 0
 541.166992188 1134.66699219 529.333007812 1124.33300781 528 1115 c 0
 474 725 l 0
 930 725 l 0
 984 1115 l 0
 984.666992188 1123 976.166992188 1133 958.5 1145 c 0
 940.833007812 1157 910.333007812 1167.66699219 867 1177 c 0
 878 1260 l 0
 1390 1260 l 0
 1379 1177 l 0
 1335 1167.66699219 1301.83300781 1157.33300781 1279.5 1146 c 0
 1257.16699219 1134.66699219 1245.33300781 1124.33300781 1244 1115 c 0
 1111 144 l 0
 1109.66699219 136 1118 126.166992188 1136 114.5 c 0
 1154 102.833007812 1185 92.3330078125 1229 83 c 0
 1218 0 l 0
 706 0 l 0
 717 83 l 0
 760.333007812 92.3330078125 793.166992188 102.5 815.5 113.5 c 0
 837.833007812 124.5 849.666992188 134.666992188 851 144 c 0
 913 595 l 0
 457 595 l 0
 395 144 l 0
 393.666992188 136 401.833007812 126.166992188 419.5 114.5 c 0
 437.166992188 102.833007812 468.333007812 92.3330078125 513 83 c 0
 502 0 l 0
 -10 0 l 0
 1 83 l 0
 44.3330078125 92.3330078125 77.1669921875 102.5 99.5 113.5 c 0
 121.833007812 124.5 133.666992188 134.666992188 135 144 c 0
 268 1115 l 0
 269.333007812 1123 261 1133 243 1145 c 0
 225 1157 194.333007812 1167.66699219 151 1177 c 0
 162 1260 l 0
 674 1260 l 0
 663 1177 l 0
EndSplineSet
EndChar

StartChar: I
Encoding: 44 73 44
Width: 652
VWidth: 1024
Flags: HW
LayerCount: 2
Fore
SplineSet
682 1177 m 0
 638.666992188 1167.66699219 605.833007812 1157.33300781 583.5 1146 c 0
 561.166992188 1134.66699219 549.333007812 1124.33300781 548 1115 c 0
 415 144 l 0
 413.666992188 136 421.833007812 126.166992188 439.5 114.5 c 0
 457.166992188 102.833007812 488 92.3330078125 532 83 c 0
 521 0 l 0
 10 0 l 0
 21 83 l 0
 63.6669921875 92.3330078125 96.1669921875 102.5 118.5 113.5 c 0
 140.833007812 124.5 152.666992188 134.666992188 154 144 c 0
 287 1115 l 0
 288.333007812 1123 280.166992188 1133 262.5 1145 c 0
 244.833007812 1157 214.333007812 1167.66699219 171 1177 c 0
 182 1260 l 0
 693 1260 l 0
 682 1177 l 0
EndSplineSet
EndChar

StartChar: J
Encoding: 45 74 45
Width: 658
VWidth: 1024
Flags: HW
LayerCount: 2
Fore
SplineSet
706 1177 m 0
 664 1167.66699219 631.333007812 1157.33300781 608 1146 c 0
 584.666992188 1134.66699219 572.333007812 1124.33300781 571 1115 c 0
 450 205 l 0
 440 131.666992188 423.833007812 68.8330078125 401.5 16.5 c 0
 379.166992188 -35.8330078125 354 -81 326 -119 c 0
 298 -157 268.5 -189.5 237.5 -216.5 c 0
 206.5 -243.5 177.333007812 -267.666992188 150 -289 c 0
 132 -303 110.833007812 -316.833007812 86.5 -330.5 c 0
 62.1669921875 -344.166992188 36.6669921875 -356.166992188 10 -366.5 c 0
 -16.6669921875 -376.833007812 -43.5 -385.166992188 -70.5 -391.5 c 0
 -97.5 -397.833007812 -122.333007812 -401 -145 -401 c 0
 -171.666992188 -401 -198 -397.333007812 -224 -390 c 0
 -250 -382.666992188 -273.333007812 -373.833007812 -294 -363.5 c 0
 -314.666992188 -353.166992188 -331.5 -342.166992188 -344.5 -330.5 c 0
 -357.5 -318.833007812 -364 -309 -364 -301 c 0
 -364 -296.333007812 -360 -288.5 -352 -277.5 c 0
 -344 -266.5 -333.833007812 -254.333007812 -321.5 -241 c 0
 -309.166992188 -227.666992188 -295.5 -214 -280.5 -200 c 0
 -265.5 -186 -251 -173.166992188 -237 -161.5 c 0
 -223 -149.833007812 -210.166992188 -140.166992188 -198.5 -132.5 c 0
 -186.833007812 -124.833007812 -178.333007812 -121 -173 -121 c 0
 -166.333007812 -121 -157.5 -126 -146.5 -136 c 0
 -135.5 -146 -122.5 -157.166992188 -107.5 -169.5 c 0
 -92.5 -181.833007812 -76 -193 -58 -203 c 0
 -40 -213 -20.6669921875 -218 0 -218 c 0
 16 -218 32.1669921875 -214.333007812 48.5 -207 c 0
 64.8330078125 -199.666992188 80.6669921875 -183.833007812 96 -159.5 c 0
 111.333007812 -135.166992188 126 -99.8330078125 140 -53.5 c 0
 154 -7.1669921875 166.333007812 55 177 133 c 0
 311 1115 l 0
 311.666992188 1119 310.166992188 1123.33300781 306.5 1128 c 0
 302.833007812 1132.66699219 295.166992188 1137.66699219 283.5 1143 c 0
 271.833007812 1148.33300781 255.166992188 1153.83300781 233.5 1159.5 c 0
 211.833007812 1165.16699219 183 1171 147 1177 c 0
 158 1260 l 0
 719 1260 l 0
 706 1177 l 0
EndSplineSet
EndChar

StartChar: K
Encoding: 46 75 46
Width: 1239
VWidth: 1024
Flags: HW
LayerCount: 2
Fore
SplineSet
663 1177 m 0
 619 1167.66699219 585.833007812 1157.33300781 563.5 1146 c 0
 541.166992188 1134.66699219 529.333007812 1124.33300781 528 1115 c 0
 466 664 l 0
 859 1088 l 0
 875.666992188 1106 888 1120.33300781 896 1131 c 0
 904 1141.66699219 907.166992188 1150 905.5 1156 c 0
 903.833007812 1162 896.833007812 1166.5 884.5 1169.5 c 0
 872.166992188 1172.5 854 1175 830 1177 c 0
 841 1260 l 0
 1269 1260 l 0
 1258 1177 l 0
 1237.33300781 1174.33300781 1220.16699219 1171.66699219 1206.5 1169 c 0
 1192.83300781 1166.33300781 1180.66699219 1162.83300781 1170 1158.5 c 0
 1159.33300781 1154.16699219 1149.33300781 1148.5 1140 1141.5 c 0
 1130.66699219 1134.5 1120.33300781 1125.66699219 1109 1115 c 0
 654 677 l 0
 1009 218 l 0
 1017.66699219 207.333007812 1029.5 200 1044.5 196 c 0
 1059.5 192 1075.5 190.333007812 1092.5 191 c 0
 1109.5 191.666992188 1127 194.166992188 1145 198.5 c 0
 1163 202.833007812 1179.33300781 208 1194 214 c 0
 1223 131 l 0
 1203.66699219 114.333007812 1178.66699219 97.5 1148 80.5 c 0
 1117.33300781 63.5 1086 48 1054 34 c 0
 1022 20 991.666992188 8.5 963 -0.5 c 0
 934.333007812 -9.5 912.666992188 -14 898 -14 c 0
 879.333007812 -14 863.5 -11 850.5 -5 c 0
 837.5 1 825.666992188 12.3330078125 815 29 c 0
 460 621 l 0
 395 144 l 0
 393.666992188 136 401.833007812 126.166992188 419.5 114.5 c 0
 437.166992188 102.833007812 468.333007812 92.3330078125 513 83 c 0
 502 0 l 0
 -10 0 l 0
 1 83 l 0
 44.3330078125 92.3330078125 77.1669921875 102.5 99.5 113.5 c 0
 121.833007812 124.5 133.666992188 134.666992188 135 144 c 0
 268 1115 l 0
 269.333007812 1123 261 1133 243 1145 c 0
 225 1157 194.333007812 1167.66699219 151 1177 c 0
 162 1260 l 0
 674 1260 l 0
 663 1177 l 0
EndSplineSet
EndChar

StartChar: L
Encoding: 47 76 47
Width: 1018
VWidth: 1024
Flags: HW
LayerCount: 2
Fore
SplineSet
968 324 m 0
 962 295.333007812 955 264.166992188 947 230.5 c 0
 939 196.833007812 931 164.5 923 133.5 c 0
 915 102.5 907.666992188 75 901 51 c 0
 894.333007812 27 889.333007812 10 886 0 c 0
 -10 0 l 0
 1 83 l 0
 44.3330078125 92.3330078125 77.1669921875 102.5 99.5 113.5 c 0
 121.833007812 124.5 133.666992188 134.666992188 135 144 c 0
 268 1115 l 0
 269.333007812 1123 261 1133 243 1145 c 0
 225 1157 194.333007812 1167.66699219 151 1177 c 0
 162 1260 l 0
 674 1260 l 0
 663 1177 l 0
 619 1167.66699219 585.833007812 1157.33300781 563.5 1146 c 0
 541.166992188 1134.66699219 529.333007812 1124.33300781 528 1115 c 0
 403 204 l 0
 401.666992188 192 403 181.5 407 172.5 c 0
 411 163.5 419.166992188 155.833007812 431.5 149.5 c 0
 443.833007812 143.166992188 460.833007812 138.333007812 482.5 135 c 0
 504.166992188 131.666992188 532 130 566 130 c 0
 662 130 l 0
 690.666992188 130 715.333007812 134.166992188 736 142.5 c 0
 756.666992188 150.833007812 775.666992188 164 793 182 c 0
 810.333007812 200 827 223 843 251 c 0
 859 279 876.333007812 312.666992188 895 352 c 0
 968 324 l 0
EndSplineSet
EndChar

StartChar: M
Encoding: 48 77 48
Width: 1638
VWidth: 1024
Flags: HW
LayerCount: 2
Fore
SplineSet
1665 1177 m 0
 1633.66699219 1177 1593.66699219 1168.66699219 1545 1152 c 0
 1416 144 l 0
 1414.66699219 136 1424.5 126.166992188 1445.5 114.5 c 0
 1466.5 102.833007812 1499 92.3330078125 1543 83 c 0
 1532 0 l 0
 1027 0 l 0
 1038 83 l 0
 1080.66699219 92.3330078125 1114.83300781 102.5 1140.5 113.5 c 0
 1166.16699219 124.5 1179.66699219 134.666992188 1181 144 c 0
 1280 922 l 0
 763 0 l 0
 661 0 l 0
 407 922 l 0
 292 144 l 0
 290.666992188 136 299 126.166992188 317 114.5 c 0
 335 102.833007812 366 92.3330078125 410 83 c 0
 399 0 l 0
 6 0 l 0
 17 83 l 0
 61 92.3330078125 94 102.5 116 113.5 c 0
 138 124.5 149.666992188 134.666992188 151 144 c 0
 297 1144 l 0
 277.666992188 1156.66699219 257.333007812 1165.33300781 236 1170 c 0
 214.666992188 1174.66699219 195 1177 177 1177 c 0
 188 1260 l 0
 528 1260 l 0
 534 1260 539.5 1259 544.5 1257 c 0
 549.5 1255 554.166992188 1251 558.5 1245 c 0
 562.833007812 1239 567.166992188 1230.5 571.5 1219.5 c 0
 575.833007812 1208.5 580.666992188 1194 586 1176 c 0
 808 364 l 0
 1265 1176 l 0
 1275.66699219 1196 1284.66699219 1211.5 1292 1222.5 c 0
 1299.33300781 1233.5 1306 1241.83300781 1312 1247.5 c 0
 1318 1253.16699219 1323.5 1256.66699219 1328.5 1258 c 0
 1333.5 1259.33300781 1339 1260 1345 1260 c 0
 1676 1260 l 0
 1665 1177 l 0
EndSplineSet
EndChar

StartChar: N
Encoding: 49 78 49
Width: 1273
VWidth: 1024
Flags: HW
LayerCount: 2
Fore
SplineSet
1358 1177 m 0
 1312 1170.33300781 1278.33300781 1160.66699219 1257 1148 c 0
 1235.66699219 1135.33300781 1224.33300781 1124.33300781 1223 1115 c 0
 1066 -30 l 0
 1032.66699219 -27.3330078125 1002.66699219 -22.1669921875 976 -14.5 c 0
 949.333007812 -6.8330078125 926 2.3330078125 906 13 c 0
 886 23.6669921875 869.333007812 35.6669921875 856 49 c 0
 842.666992188 62.3330078125 832 76.3330078125 824 91 c 0
 394 895 l 0
 291 144 l 0
 290.333007812 140 291.666992188 135.166992188 295 129.5 c 0
 298.333007812 123.833007812 304.5 118.166992188 313.5 112.5 c 0
 322.5 106.833007812 334.666992188 101.333007812 350 96 c 0
 365.333007812 90.6669921875 384.666992188 86.3330078125 408 83 c 0
 397 0 l 0
 -3 0 l 0
 8 83 l 0
 54.6669921875 89 88.3330078125 98.3330078125 109 111 c 0
 129.666992188 123.666992188 140.666992188 134.666992188 142 144 c 0
 273 1102 l 0
 255.666992188 1122 237.333007812 1138.66699219 218 1152 c 0
 198.666992188 1165.33300781 178.666992188 1173.66699219 158 1177 c 0
 169 1260 l 0
 450 1260 l 0
 458.666992188 1260 466 1259.16699219 472 1257.5 c 0
 478 1255.83300781 483.666992188 1252.33300781 489 1247 c 0
 494.333007812 1241.66699219 499.833007812 1233.83300781 505.5 1223.5 c 0
 511.166992188 1213.16699219 518.666992188 1199.33300781 528 1182 c 0
 970 353 l 0
 1075 1115 l 0
 1075.66699219 1119 1074.5 1123.83300781 1071.5 1129.5 c 0
 1068.5 1135.16699219 1062.66699219 1140.83300781 1054 1146.5 c 0
 1045.33300781 1152.16699219 1033.33300781 1157.66699219 1018 1163 c 0
 1002.66699219 1168.33300781 982.666992188 1173 958 1177 c 0
 969 1260 l 0
 1369 1260 l 0
 1358 1177 l 0
EndSplineSet
EndChar

StartChar: O
Encoding: 50 79 50
Width: 1191
VWidth: 1024
Flags: HW
LayerCount: 2
Fore
SplineSet
1180 774 m 0
 1180 726.666992188 1175.33300781 678.666992188 1166 630 c 0
 1156.66699219 581.333007812 1143.33300781 533.333007812 1126 486 c 0
 1108.66699219 438.666992188 1087.66699219 392.833007812 1063 348.5 c 0
 1038.33300781 304.166992188 1011 263 981 225 c 0
 953 189 921 155.5 885 124.5 c 0
 849 93.5 810.833007812 66.5 770.5 43.5 c 0
 730.166992188 20.5 688 2.3330078125 644 -11 c 0
 600 -24.3330078125 555.666992188 -31 511 -31 c 0
 441.666992188 -31 379.833007812 -17.3330078125 325.5 10 c 0
 271.166992188 37.3330078125 225 74.5 187 121.5 c 0
 149 168.5 120 223.333007812 100 286 c 0
 80 348.666992188 70 415 70 485 c 0
 70 589.666992188 86.3330078125 686.333007812 119 775 c 0
 151.666992188 863.666992188 194.666992188 944.666992188 248 1018 c 0
 276 1055.33300781 307.333007812 1090.5 342 1123.5 c 0
 376.666992188 1156.5 414.666992188 1185.33300781 456 1210 c 0
 497.333007812 1234.66699219 542.166992188 1254.16699219 590.5 1268.5 c 0
 638.833007812 1282.83300781 690.333007812 1290 745 1290 c 0
 817.666992188 1290 881.333007812 1276.33300781 936 1249 c 0
 990.666992188 1221.66699219 1036 1184.5 1072 1137.5 c 0
 1108 1090.5 1135 1035.66699219 1153 973 c 0
 1171 910.333007812 1180 844 1180 774 c 0
911 756 m 0
 911 812 905.833007812 864.333007812 895.5 913 c 0
 885.166992188 961.666992188 870 1004 850 1040 c 0
 830 1076 805 1104.16699219 775 1124.5 c 0
 745 1144.83300781 710.666992188 1155 672 1155 c 0
 634.666992188 1155 600.666992188 1145.5 570 1126.5 c 0
 539.333007812 1107.5 511.666992188 1081.83300781 487 1049.5 c 0
 462.333007812 1017.16699219 441 980 423 938 c 0
 405 896 390 851.833007812 378 805.5 c 0
 366 759.166992188 357 712.5 351 665.5 c 0
 345 618.5 342 574 342 532 c 0
 342 470 347 413 357 361 c 0
 367 309 381.833007812 264.5 401.5 227.5 c 0
 421.166992188 190.5 445.5 161.666992188 474.5 141 c 0
 503.5 120.333007812 537.333007812 110 576 110 c 0
 615.333007812 110 651 120 683 140 c 0
 715 160 743.333007812 187 768 221 c 0
 792.666992188 255 814 294 832 338 c 0
 850 382 864.833007812 427.833007812 876.5 475.5 c 0
 888.166992188 523.166992188 896.833007812 571.333007812 902.5 620 c 0
 908.166992188 668.666992188 911 714 911 756 c 0
EndSplineSet
EndChar

StartChar: P
Encoding: 51 80 51
Width: 1095
VWidth: 1024
Flags: HW
LayerCount: 2
Fore
SplineSet
1125 942 m 0
 1125 885.333007812 1112.33300781 831.166992188 1087 779.5 c 0
 1061.66699219 727.833007812 1027.5 682.5 984.5 643.5 c 0
 941.5 604.5 891.5 573.333007812 834.5 550 c 0
 777.5 526.666992188 717 515 653 515 c 0
 627.666992188 515 602 518.166992188 576 524.5 c 0
 550 530.833007812 528 539 510 549 c 0
 491 663 l 0
 513.666992188 653 533.5 645 550.5 639 c 0
 567.5 633 588 630 612 630 c 0
 688.666992188 630 747.666992188 654 789 702 c 0
 830.333007812 750 851 817.666992188 851 905 c 0
 851 961 843 1006.5 827 1041.5 c 0
 811 1076.5 789.666992188 1104 763 1124 c 0
 736.333007812 1144 705.833007812 1157.66699219 671.5 1165 c 0
 637.166992188 1172.33300781 602 1176 566 1176 c 0
 562 1176 557.833007812 1175.83300781 553.5 1175.5 c 0
 549.166992188 1175.16699219 545 1175 541 1175 c 0
 397 144 l 0
 395.666992188 140 397 135.666992188 401 131 c 0
 405 126.333007812 412.666992188 121.333007812 424 116 c 0
 435.333007812 110.666992188 451 105.333007812 471 100 c 0
 491 94.6669921875 516.666992188 89 548 83 c 0
 538 0 l 0
 -10 0 l 0
 0 83 l 0
 42 92.3330078125 74 102.5 96 113.5 c 0
 118 124.5 129.666992188 134.666992188 131 144 c 0
 271 1150 l 0
 247.666992188 1146.66699219 224.333007812 1142.83300781 201 1138.5 c 0
 177.666992188 1134.16699219 154.333007812 1129.66699219 131 1125 c 0
 131 1225 l 0
 165.666992188 1234.33300781 203.5 1243 244.5 1251 c 0
 285.5 1259 327 1265.83300781 369 1271.5 c 0
 411 1277.16699219 452.666992188 1281.66699219 494 1285 c 0
 535.333007812 1288.33300781 573.666992188 1290 609 1290 c 0
 691 1290 764 1282.66699219 828 1268 c 0
 892 1253.33300781 946 1231.33300781 990 1202 c 0
 1034 1172.66699219 1067.5 1136.33300781 1090.5 1093 c 0
 1113.5 1049.66699219 1125 999.333007812 1125 942 c 0
EndSplineSet
EndChar

StartChar: Q
Encoding: 52 81 52
Width: 1221
VWidth: 1024
Flags: HW
LayerCount: 2
Fore
SplineSet
1302 -127 m 0
 1283.33300781 -156.333007812 1263.5 -183.5 1242.5 -208.5 c 0
 1221.5 -233.5 1201.16699219 -255.5 1181.5 -274.5 c 0
 1161.83300781 -293.5 1143.66699219 -308.333007812 1127 -319 c 0
 1110.33300781 -329.666992188 1097.33300781 -335 1088 -335 c 0
 1058 -335 1028.5 -329.666992188 999.5 -319 c 0
 970.5 -308.333007812 941.833007812 -294.333007812 913.5 -277 c 0
 885.166992188 -259.666992188 857 -239.833007812 829 -217.5 c 0
 801 -195.166992188 773 -172.5 745 -149.5 c 0
 717 -126.5 689 -104.166992188 661 -82.5 c 0
 633 -60.8330078125 604.666992188 -42 576 -26 c 0
 564.666992188 -27.3330078125 553.833007812 -28.5 543.5 -29.5 c 0
 533.166992188 -30.5 522.333007812 -31 511 -31 c 0
 441.666992188 -31 379.833007812 -17.3330078125 325.5 10 c 0
 271.166992188 37.3330078125 225 74.5 187 121.5 c 0
 149 168.5 120 223.333007812 100 286 c 0
 80 348.666992188 70 415 70 485 c 0
 70 589.666992188 86.3330078125 686.333007812 119 775 c 0
 151.666992188 863.666992188 194.666992188 944.666992188 248 1018 c 0
 276 1055.33300781 307.333007812 1090.5 342 1123.5 c 0
 376.666992188 1156.5 414.666992188 1185.33300781 456 1210 c 0
 497.333007812 1234.66699219 542.166992188 1254.16699219 590.5 1268.5 c 0
 638.833007812 1282.83300781 690.333007812 1290 745 1290 c 0
 817.666992188 1290 881.333007812 1276.33300781 936 1249 c 0
 990.666992188 1221.66699219 1036 1184.5 1072 1137.5 c 0
 1108 1090.5 1135 1035.66699219 1153 973 c 0
 1171 910.333007812 1180 844 1180 774 c 0
 1180 726.666992188 1175.33300781 678.666992188 1166 630 c 0
 1156.66699219 581.333007812 1143.33300781 533.333007812 1126 486 c 0
 1108.66699219 438.666992188 1087.66699219 392.833007812 1063 348.5 c 0
 1038.33300781 304.166992188 1011 263 981 225 c 0
 950.333007812 186.333007812 915.5 150.333007812 876.5 117 c 0
 837.5 83.6669921875 795.666992188 55.3330078125 751 32 c 0
 787 19.3330078125 821 4.3330078125 853 -13 c 0
 885 -30.3330078125 916 -47 946 -63 c 0
 976 -79 1005.33300781 -92.5 1034 -103.5 c 0
 1062.66699219 -114.5 1092 -120 1122 -120 c 0
 1130 -120 1137.66699219 -119.166992188 1145 -117.5 c 0
 1152.33300781 -115.833007812 1161 -112.666992188 1171 -108 c 0
 1181 -103.333007812 1193 -96.5 1207 -87.5 c 0
 1221 -78.5 1238.33300781 -66.6669921875 1259 -52 c 0
 1302 -127 l 0
911 756 m 0
 911 812 905.833007812 864.333007812 895.5 913 c 0
 885.166992188 961.666992188 870 1004 850 1040 c 0
 830 1076 805 1104.16699219 775 1124.5 c 0
 745 1144.83300781 710.666992188 1155 672 1155 c 0
 634.666992188 1155 600.666992188 1145.5 570 1126.5 c 0
 539.333007812 1107.5 511.666992188 1081.83300781 487 1049.5 c 0
 462.333007812 1017.16699219 441 980 423 938 c 0
 405 896 390 851.833007812 378 805.5 c 0
 366 759.166992188 357 712.5 351 665.5 c 0
 345 618.5 342 574 342 532 c 0
 342 470 347 413 357 361 c 0
 367 309 381.833007812 264.5 401.5 227.5 c 0
 421.166992188 190.5 445.5 161.666992188 474.5 141 c 0
 503.5 120.333007812 537.333007812 110 576 110 c 0
 615.333007812 110 651 120 683 140 c 0
 715 160 743.333007812 187 768 221 c 0
 792.666992188 255 814 294 832 338 c 0
 850 382 864.833007812 427.833007812 876.5 475.5 c 0
 888.166992188 523.166992188 896.833007812 571.333007812 902.5 620 c 0
 908.166992188 668.666992188 911 714 911 756 c 0
EndSplineSet
EndChar

StartChar: R
Encoding: 53 82 53
Width: 1167
VWidth: 1024
Flags: HW
LayerCount: 2
Fore
SplineSet
578 1176 m 0
 558 1176 l 0
 551.333007812 1176 544.333007812 1175.66699219 537 1175 c 0
 475 713 l 0
 490.333007812 708.333007812 505 705.333007812 519 704 c 0
 533 702.666992188 548.333007812 702 565 702 c 0
 597.666992188 702 629 707.5 659 718.5 c 0
 689 729.5 715.5 745.166992188 738.5 765.5 c 0
 761.5 785.833007812 780 810.833007812 794 840.5 c 0
 808 870.166992188 815 904 815 942 c 0
 815 991.333007812 807.5 1031.16699219 792.5 1061.5 c 0
 777.5 1091.83300781 758.5 1115.5 735.5 1132.5 c 0
 712.5 1149.5 687 1161 659 1167 c 0
 631 1173 604 1176 578 1176 c 0
1187 119 m 0
 1161 101.666992188 1131.83300781 85 1099.5 69 c 0
 1067.16699219 53 1035.66699219 38.8330078125 1005 26.5 c 0
 974.333007812 14.1669921875 947 4.3330078125 923 -3 c 0
 899 -10.3330078125 882.666992188 -14 874 -14 c 0
 862.666992188 -14 851.333007812 -12.5 840 -9.5 c 0
 828.666992188 -6.5 817.5 -0.3330078125 806.5 9 c 0
 795.5 18.3330078125 784.5 31.5 773.5 48.5 c 0
 762.5 65.5 752 88.3330078125 742 117 c 0
 577 578 l 0
 558.333007812 578 538.5 578.833007812 517.5 580.5 c 0
 496.5 582.166992188 476.666992188 585.333007812 458 590 c 0
 398 144 l 0
 396 136 405.5 126.166992188 426.5 114.5 c 0
 447.5 102.833007812 479 92.3330078125 521 83 c 0
 510 0 l 0
 -10 0 l 0
 1 83 l 0
 43 92.3330078125 75 102.5 97 113.5 c 0
 119 124.5 130.666992188 134.666992188 132 144 c 0
 268 1150 l 0
 242.666992188 1146 218.333007812 1142 195 1138 c 0
 171.666992188 1134 150 1129.66699219 130 1125 c 0
 131 1227 l 0
 161 1235.66699219 195.333007812 1243.83300781 234 1251.5 c 0
 272.666992188 1259.16699219 313.666992188 1265.83300781 357 1271.5 c 0
 400.333007812 1277.16699219 445.166992188 1281.66699219 491.5 1285 c 0
 537.833007812 1288.33300781 583.666992188 1290 629 1290 c 0
 777.666992188 1290 891.333007812 1262.83300781 970 1208.5 c 0
 1048.66699219 1154.16699219 1088 1075 1088 971 c 0
 1088 937 1080.66699219 901.833007812 1066 865.5 c 0
 1051.33300781 829.166992188 1030.16699219 794.5 1002.5 761.5 c 0
 974.833007812 728.5 941.333007812 698.333007812 902 671 c 0
 862.666992188 643.666992188 818.666992188 622 770 606 c 0
 986 224 l 0
 994.666992188 208.666992188 1004 197.166992188 1014 189.5 c 0
 1024 181.833007812 1035.66699219 177.333007812 1049 176 c 0
 1062.33300781 174.666992188 1077.83300781 176 1095.5 180 c 0
 1113.16699219 184 1134.33300781 189.666992188 1159 197 c 0
 1187 119 l 0
EndSplineSet
EndChar

StartChar: S
Encoding: 54 83 54
Width: 1000
VWidth: 1024
Flags: HW
LayerCount: 2
Fore
SplineSet
992 1198 m 0
 994.666992188 1196 994.5 1189.5 991.5 1178.5 c 0
 988.5 1167.5 983.666992188 1154.33300781 977 1139 c 0
 970.333007812 1123.66699219 962.5 1107.33300781 953.5 1090 c 0
 944.5 1072.66699219 935.333007812 1056.16699219 926 1040.5 c 0
 916.666992188 1024.83300781 907.833007812 1011.33300781 899.5 1000 c 0
 891.166992188 988.666992188 884.666992188 981.666992188 880 979 c 0
 811 985 l 0
 803.666992188 1017 793.166992188 1044.33300781 779.5 1067 c 0
 765.833007812 1089.66699219 750.333007812 1108.33300781 733 1123 c 0
 715.666992188 1137.66699219 697 1148.5 677 1155.5 c 0
 657 1162.5 637 1166 617 1166 c 0
 583.666992188 1166 555 1161.16699219 531 1151.5 c 0
 507 1141.83300781 487.333007812 1129.16699219 472 1113.5 c 0
 456.666992188 1097.83300781 445.333007812 1079.66699219 438 1059 c 0
 430.666992188 1038.33300781 427 1017 427 995 c 0
 427 980.333007812 429.333007812 965 434 949 c 0
 438.666992188 933 448.333007812 916.333007812 463 899 c 0
 477.666992188 881.666992188 498.5 863.166992188 525.5 843.5 c 0
 552.5 823.833007812 588.333007812 802.666992188 633 780 c 0
 685.666992188 752.666992188 731.333007812 726.166992188 770 700.5 c 0
 808.666992188 674.833007812 840.5 648.166992188 865.5 620.5 c 0
 890.5 592.833007812 909.166992188 563.5 921.5 532.5 c 0
 933.833007812 501.5 940 467.333007812 940 430 c 0
 940 367.333007812 926 308.166992188 898 252.5 c 0
 870 196.833007812 831.666992188 148 783 106 c 0
 734.333007812 64 677 30.6669921875 611 6 c 0
 545 -18.6669921875 474 -31 398 -31 c 0
 360.666992188 -31 320 -26.6669921875 276 -18 c 0
 232 -9.3330078125 190.666992188 2.3330078125 152 17 c 0
 113.333007812 31.6669921875 81.1669921875 48.3330078125 55.5 67 c 0
 29.8330078125 85.6669921875 17 105 17 125 c 0
 17 131.666992188 19.8330078125 141.666992188 25.5 155 c 0
 31.1669921875 168.333007812 38.5 182.666992188 47.5 198 c 0
 56.5 213.333007812 66.8330078125 229 78.5 245 c 0
 90.1669921875 261 101.833007812 275.666992188 113.5 289 c 0
 125.166992188 302.333007812 136.333007812 313.166992188 147 321.5 c 0
 157.666992188 329.833007812 166.666992188 334 174 334 c 0
 181.333007812 334 190 328.666992188 200 318 c 0
 210 307.333007812 221.166992188 293.833007812 233.5 277.5 c 0
 245.833007812 261.166992188 259.833007812 243.666992188 275.5 225 c 0
 291.166992188 206.333007812 309 188.833007812 329 172.5 c 0
 349 156.166992188 371 142.666992188 395 132 c 0
 419 121.333007812 445.666992188 116 475 116 c 0
 504.333007812 116 532 120.833007812 558 130.5 c 0
 584 140.166992188 606.666992188 154 626 172 c 0
 645.333007812 190 660.666992188 212.333007812 672 239 c 0
 683.333007812 265.666992188 689 296 689 330 c 0
 689 360 684 387.5 674 412.5 c 0
 664 437.5 647.833007812 461.5 625.5 484.5 c 0
 603.166992188 507.5 574.166992188 530 538.5 552 c 0
 502.833007812 574 459.666992188 597 409 621 c 0
 365 641.666992188 328.666992188 663.5 300 686.5 c 0
 271.333007812 709.5 248.833007812 733.5 232.5 758.5 c 0
 216.166992188 783.5 204.666992188 810 198 838 c 0
 191.333007812 866 188 896 188 928 c 0
 188 972 199.666992188 1015.66699219 223 1059 c 0
 246.333007812 1102.33300781 279.333007812 1141 322 1175 c 0
 364.666992188 1209 416.166992188 1236.66699219 476.5 1258 c 0
 536.833007812 1279.33300781 604.333007812 1290 679 1290 c 0
 747.666992188 1290 809 1280.83300781 863 1262.5 c 0
 917 1244.16699219 960 1222.66699219 992 1198 c 0
EndSplineSet
EndChar

StartChar: T
Encoding: 55 84 55
Width: 1123
VWidth: 1024
Flags: HW
LayerCount: 2
Fore
SplineSet
783 0 m 0
 236 0 l 0
 247 83 l 0
 276.333007812 89 300.666992188 95.3330078125 320 102 c 0
 339.333007812 108.666992188 354.833007812 115.166992188 366.5 121.5 c 0
 378.166992188 127.833007812 386.5 133.833007812 391.5 139.5 c 0
 396.5 145.166992188 399.333007812 150.333007812 400 155 c 0
 533 1130 l 0
 311 1130 l 0
 301.666992188 1130 292.166992188 1125.83300781 282.5 1117.5 c 0
 272.833007812 1109.16699219 262.333007812 1096.16699219 251 1078.5 c 0
 239.666992188 1060.83300781 226.666992188 1038 212 1010 c 0
 197.333007812 982 180.333007812 948.666992188 161 910 c 0
 88 939 l 0
 92 958.333007812 97.6669921875 982.666992188 105 1012 c 0
 112.333007812 1041.33300781 120 1071.5 128 1102.5 c 0
 136 1133.5 144 1163.16699219 152 1191.5 c 0
 160 1219.83300781 166.666992188 1242.66699219 172 1260 c 0
 1186 1260 l 0
 1218 1225 l 0
 1215.33300781 1207.66699219 1211 1186 1205 1160 c 0
 1199 1134 1192 1106.66699219 1184 1078 c 0
 1161 993 l 0
 1153.66699219 965 1146.66699219 940.666992188 1140 920 c 0
 1061 920 l 0
 1059 950.666992188 1057.83300781 979 1057.5 1005 c 0
 1057.16699219 1031 1055.66699219 1053.16699219 1053 1071.5 c 0
 1050.33300781 1089.83300781 1046 1104.16699219 1040 1114.5 c 0
 1034 1124.83300781 1024.33300781 1130 1011 1130 c 0
 794 1130 l 0
 661 155 l 0
 660.333007812 151 661.666992188 146.166992188 665 140.5 c 0
 668.333007812 134.833007812 675 128.666992188 685 122 c 0
 695 115.333007812 708.666992188 108.666992188 726 102 c 0
 743.333007812 95.3330078125 766 89 794 83 c 0
 783 0 l 0
EndSplineSet
EndChar

StartChar: U
Encoding: 56 85 56
Width: 1282
VWidth: 1024
Flags: HW
LayerCount: 2
Fore
SplineSet
1340 1177 m 0
 1298 1167.66699219 1267 1157.33300781 1247 1146 c 0
 1227 1134.66699219 1216.33300781 1124.33300781 1215 1115 c 0
 1130 512 l 0
 1118 424.666992188 1095.5 347.166992188 1062.5 279.5 c 0
 1029.5 211.833007812 989.166992188 155 941.5 109 c 0
 893.833007812 63 840.166992188 28.1669921875 780.5 4.5 c 0
 720.833007812 -19.1669921875 658 -31 592 -31 c 0
 537.333007812 -31 484.666992188 -22.6669921875 434 -6 c 0
 383.333007812 10.6669921875 338.5 35 299.5 67 c 0
 260.5 99 229.333007812 138.5 206 185.5 c 0
 182.666992188 232.5 171 286.666992188 171 348 c 0
 171 383.333007812 174 421.666992188 180 463 c 0
 273 1115 l 0
 273.666992188 1123 265.333007812 1133 248 1145 c 0
 230.666992188 1157 200.666992188 1167.66699219 158 1177 c 0
 169 1260 l 0
 674 1260 l 0
 663 1177 l 0
 621 1167.66699219 588.833007812 1157.33300781 566.5 1146 c 0
 544.166992188 1134.66699219 532.333007812 1124.33300781 531 1115 c 0
 443 510 l 0
 439.666992188 490.666992188 437 471.333007812 435 452 c 0
 433 432.666992188 432 414.333007812 432 397 c 0
 432 303.666992188 451.5 235.166992188 490.5 191.5 c 0
 529.5 147.833007812 590.333007812 126 673 126 c 0
 716.333007812 126 753.833007812 134.5 785.5 151.5 c 0
 817.166992188 168.5 843.833007812 192.333007812 865.5 223 c 0
 887.166992188 253.666992188 904.5 289.833007812 917.5 331.5 c 0
 930.5 373.166992188 940.333007812 419 947 469 c 0
 1038 1115 l 0
 1038.66699219 1119 1037.33300781 1123.66699219 1034 1129 c 0
 1030.66699219 1134.33300781 1024.83300781 1139.66699219 1016.5 1145 c 0
 1008.16699219 1150.33300781 996.833007812 1155.83300781 982.5 1161.5 c 0
 968.166992188 1167.16699219 950.333007812 1172.33300781 929 1177 c 0
 940 1260 l 0
 1351 1260 l 0
 1340 1177 l 0
EndSplineSet
EndChar

StartChar: V
Encoding: 57 86 57
Width: 1256
VWidth: 1024
Flags: HW
LayerCount: 2
Fore
SplineSet
1356 1177 m 0
 1312 1168.33300781 1277.66699219 1159.83300781 1253 1151.5 c 0
 1228.33300781 1143.16699219 1211.66699219 1129.66699219 1203 1111 c 0
 716 89 l 0
 709.333007812 74.3330078125 698 60.6669921875 682 48 c 0
 666 35.3330078125 647.833007812 24 627.5 14 c 0
 607.166992188 4 586 -4.6669921875 564 -12 c 0
 542 -19.3330078125 522 -25.3330078125 504 -30 c 0
 233 1111 l 0
 228.333007812 1128.33300781 217.666992188 1142.33300781 201 1153 c 0
 184.333007812 1163.66699219 157 1171.66699219 119 1177 c 0
 130 1260 l 0
 628 1260 l 0
 617 1177 l 0
 567 1173 533.5 1166.16699219 516.5 1156.5 c 0
 499.5 1146.83300781 493.333007812 1132.33300781 498 1113 c 0
 681 313 l 0
 1055 1111 l 0
 1059.66699219 1121 1061.5 1129.33300781 1060.5 1136 c 0
 1059.5 1142.66699219 1055 1148.5 1047 1153.5 c 0
 1039 1158.5 1027.16699219 1162.83300781 1011.5 1166.5 c 0
 995.833007812 1170.16699219 975.666992188 1173.66699219 951 1177 c 0
 962 1260 l 0
 1367 1260 l 0
 1356 1177 l 0
EndSplineSet
EndChar

StartChar: W
Encoding: 58 87 58
Width: 1603
VWidth: 1024
Flags: HW
LayerCount: 2
Fore
SplineSet
1710 1177 m 0
 1681.33300781 1171 1657.66699219 1165.33300781 1639 1160 c 0
 1620.33300781 1154.66699219 1605.5 1149.5 1594.5 1144.5 c 0
 1583.5 1139.5 1575.33300781 1134.66699219 1570 1130 c 0
 1564.66699219 1125.33300781 1561.33300781 1120.33300781 1560 1115 c 0
 1203 59 l 0
 1198.33300781 45 1189.66699219 32.8330078125 1177 22.5 c 0
 1164.33300781 12.1669921875 1150.33300781 3.5 1135 -3.5 c 0
 1119.66699219 -10.5 1104.33300781 -16.1669921875 1089 -20.5 c 0
 1073.66699219 -24.8330078125 1061 -28 1051 -30 c 0
 850 854 l 0
 475 59 l 0
 469 45 459.5 33 446.5 23 c 0
 433.5 13 419.333007812 4.5 404 -2.5 c 0
 388.666992188 -9.5 372.833007812 -15.1669921875 356.5 -19.5 c 0
 340.166992188 -23.8330078125 325.666992188 -27.3330078125 313 -30 c 0
 227 1107 l 0
 225.666992188 1123.66699219 216.333007812 1137.33300781 199 1148 c 0
 181.666992188 1158.66699219 151.666992188 1168.33300781 109 1177 c 0
 120 1260 l 0
 593 1260 l 0
 582 1177 l 0
 551.333007812 1173.66699219 527.333007812 1169.5 510 1164.5 c 0
 492.666992188 1159.5 479.833007812 1154 471.5 1148 c 0
 463.166992188 1142 458.166992188 1135.5 456.5 1128.5 c 0
 454.833007812 1121.5 454.333007812 1114.33300781 455 1107 c 0
 512 430 l 0
 888 1260 l 0
 995 1260 l 0
 1187 430 l 0
 1422 1115 l 0
 1424.66699219 1123 1423 1130 1417 1136 c 0
 1411 1142 1401.83300781 1147.33300781 1389.5 1152 c 0
 1377.16699219 1156.66699219 1362.33300781 1161 1345 1165 c 0
 1327.66699219 1169 1308.66699219 1173 1288 1177 c 0
 1299 1260 l 0
 1721 1260 l 0
 1710 1177 l 0
EndSplineSet
EndChar

StartChar: X
Encoding: 59 88 59
Width: 1225
VWidth: 1024
Flags: HW
LayerCount: 2
Fore
SplineSet
1129 0 m 0
 608 0 l 0
 619 83 l 0
 647 85.6669921875 669.666992188 89.1669921875 687 93.5 c 0
 704.333007812 97.8330078125 717.166992188 103.166992188 725.5 109.5 c 0
 733.833007812 115.833007812 737.833007812 123.666992188 737.5 133 c 0
 737.166992188 142.333007812 733.666992188 153.666992188 727 167 c 0
 566 488 l 0
 317 167 l 0
 305.666992188 152.333007812 297.833007812 140.166992188 293.5 130.5 c 0
 289.166992188 120.833007812 289.333007812 112.833007812 294 106.5 c 0
 298.666992188 100.166992188 308.666992188 95.1669921875 324 91.5 c 0
 339.333007812 87.8330078125 361 85 389 83 c 0
 378 0 l 0
 -40 0 l 0
 -29 83 l 0
 11.6669921875 86.3330078125 46.6669921875 94.5 76 107.5 c 0
 105.333007812 120.5 130.333007812 140.333007812 151 167 c 0
 498 624 l 0
 263 1093 l 0
 255.666992188 1107.66699219 248.333007812 1119.66699219 241 1129 c 0
 233.666992188 1138.33300781 225.166992188 1146 215.5 1152 c 0
 205.833007812 1158 194.166992188 1162.83300781 180.5 1166.5 c 0
 166.833007812 1170.16699219 150 1173.66699219 130 1177 c 0
 141 1260 l 0
 672 1260 l 0
 661 1177 l 0
 607.666992188 1171.66699219 572 1163.5 554 1152.5 c 0
 536 1141.5 534.333007812 1121.66699219 549 1093 c 0
 691 810 l 0
 896 1093 l 0
 907.333007812 1108.33300781 915 1120.83300781 919 1130.5 c 0
 923 1140.16699219 922.5 1148.16699219 917.5 1154.5 c 0
 912.5 1160.83300781 902.333007812 1165.66699219 887 1169 c 0
 871.666992188 1172.33300781 850.666992188 1175 824 1177 c 0
 835 1260 l 0
 1256 1260 l 0
 1245 1177 l 0
 1221.66699219 1174.33300781 1201.16699219 1171 1183.5 1167 c 0
 1165.83300781 1163 1149.66699219 1157.83300781 1135 1151.5 c 0
 1120.33300781 1145.16699219 1107.16699219 1137.33300781 1095.5 1128 c 0
 1083.83300781 1118.66699219 1073 1107 1063 1093 c 0
 757 678 l 0
 1014 167 l 0
 1021.33300781 153 1028.66699219 141.166992188 1036 131.5 c 0
 1043.33300781 121.833007812 1051.66699219 113.833007812 1061 107.5 c 0
 1070.33300781 101.166992188 1081.33300781 96.1669921875 1094 92.5 c 0
 1106.66699219 88.8330078125 1122 85.6669921875 1140 83 c 0
 1129 0 l 0
EndSplineSet
EndChar

StartChar: Y
Encoding: 60 89 60
Width: 1178
VWidth: 1024
Flags: HW
LayerCount: 2
Fore
SplineSet
825 0 m 0
 276 0 l 0
 287 83 l 0
 315.666992188 89 339.666992188 95.3330078125 359 102 c 0
 378.333007812 108.666992188 393.833007812 115.166992188 405.5 121.5 c 0
 417.166992188 127.833007812 425.666992188 133.833007812 431 139.5 c 0
 436.333007812 145.166992188 439.333007812 150.333007812 440 155 c 0
 491 528 l 0
 475.666992188 580.666992188 458.166992188 635 438.5 691 c 0
 418.833007812 747 398.5 800.833007812 377.5 852.5 c 0
 356.5 904.166992188 335.666992188 952.333007812 315 997 c 0
 294.333007812 1041.66699219 275.666992188 1079.66699219 259 1111 c 0
 255 1118.33300781 250.333007812 1124.83300781 245 1130.5 c 0
 239.666992188 1136.16699219 232.166992188 1140.83300781 222.5 1144.5 c 0
 212.833007812 1148.16699219 200.166992188 1151 184.5 1153 c 0
 168.833007812 1155 148 1156 122 1156 c 0
 129 1239 l 0
 147.666992188 1241.66699219 169.5 1244.83300781 194.5 1248.5 c 0
 219.5 1252.16699219 244.5 1255.5 269.5 1258.5 c 0
 294.5 1261.5 318 1264.16699219 340 1266.5 c 0
 362 1268.83300781 379.333007812 1270 392 1270 c 0
 410.666992188 1270 429 1265.66699219 447 1257 c 0
 465 1248.33300781 478.333007812 1236.33300781 487 1221 c 0
 505 1187.66699219 523.666992188 1149.66699219 543 1107 c 0
 562.333007812 1064.33300781 581.333007812 1019.33300781 600 972 c 0
 618.666992188 924.666992188 636.666992188 875.833007812 654 825.5 c 0
 671.333007812 775.166992188 687.333007812 726 702 678 c 0
 969 1111 l 0
 979.666992188 1128.33300781 978.166992188 1142 964.5 1152 c 0
 950.833007812 1162 920.666992188 1170.33300781 874 1177 c 0
 885 1260 l 0
 1281 1260 l 0
 1270 1177 l 0
 1226.66699219 1168.33300781 1194.5 1159.33300781 1173.5 1150 c 0
 1152.5 1140.66699219 1136.66699219 1127.66699219 1126 1111 c 0
 750 516 l 0
 701 155 l 0
 700.333007812 151 701.666992188 146.166992188 705 140.5 c 0
 708.333007812 134.833007812 715 128.666992188 725 122 c 0
 735 115.333007812 749 108.666992188 767 102 c 0
 785 95.3330078125 808 89 836 83 c 0
 825 0 l 0
EndSplineSet
EndChar

StartChar: Z
Encoding: 61 90 61
Width: 1078
VWidth: 1024
Flags: HW
LayerCount: 2
Fore
SplineSet
345 140 m 0
 748 140 l 0
 761.333007812 140 774 145.666992188 786 157 c 0
 798 168.333007812 810.166992188 185 822.5 207 c 0
 834.833007812 229 848.166992188 255.833007812 862.5 287.5 c 0
 876.833007812 319.166992188 892.666992188 355.666992188 910 397 c 0
 996 373 l 0
 992 351.666992188 987 323.833007812 981 289.5 c 0
 975 255.166992188 969 219.833007812 963 183.5 c 0
 957 147.166992188 951.333007812 112.333007812 946 79 c 0
 940.666992188 45.6669921875 936.666992188 19.3330078125 934 0 c 0
 40 0 l 0
 11 55 l 0
 771 1120 l 0
 428 1120 l 0
 418 1120 405.833007812 1113.66699219 391.5 1101 c 0
 377.166992188 1088.33300781 362.166992188 1070.83300781 346.5 1048.5 c 0
 330.833007812 1026.16699219 315.5 1000 300.5 970 c 0
 285.5 940 272.333007812 907.666992188 261 873 c 0
 174 895 l 0
 262 1276 l 0
 278.666992188 1272 293.666992188 1268.83300781 307 1266.5 c 0
 320.333007812 1264.16699219 333.666992188 1262.5 347 1261.5 c 0
 360.333007812 1260.5 374 1260 388 1260 c 0
 1075 1260 l 0
 1100 1207 l 0
 345 140 l 0
EndSplineSet
EndChar

StartChar: bracketleft
Encoding: 62 91 62
Width: 770
VWidth: 1024
Flags: HW
LayerCount: 2
Fore
SplineSet
870 1563 m 0
 868 1555 864.5 1545.16699219 859.5 1533.5 c 0
 854.5 1521.83300781 849 1510.16699219 843 1498.5 c 0
 837 1486.83300781 831.333007812 1476.33300781 826 1467 c 0
 820.666992188 1457.66699219 816.666992188 1451 814 1447 c 0
 552 1447 l 0
 329 -181 l 0
 585 -181 l 0
 624 -220 l 0
 622 -226.666992188 618.666992188 -235.333007812 614 -246 c 0
 609.333007812 -256.666992188 604.166992188 -267.666992188 598.5 -279 c 0
 592.833007812 -290.333007812 587.333007812 -301.166992188 582 -311.5 c 0
 576.666992188 -321.833007812 572.333007812 -330 569 -336 c 0
 66 -336 l 0
 338 1599 l 0
 833 1599 l 0
 870 1563 l 0
EndSplineSet
EndChar

StartChar: backslash
Encoding: 63 92 63
Width: 869
VWidth: 1024
Flags: HW
LayerCount: 2
Fore
SplineSet
697 -336 m 0
 689.666992188 -333.333007812 677.333007812 -329 660 -323 c 0
 642.666992188 -317 624.5 -310.5 605.5 -303.5 c 0
 586.5 -296.5 568.833007812 -289.5 552.5 -282.5 c 0
 536.166992188 -275.5 525.666992188 -269.666992188 521 -265 c 0
 135 1567 l 0
 182 1599 l 0
 191.333007812 1596.33300781 204.166992188 1592.33300781 220.5 1587 c 0
 236.833007812 1581.66699219 253.833007812 1575.83300781 271.5 1569.5 c 0
 289.166992188 1563.16699219 306 1556.5 322 1549.5 c 0
 338 1542.5 350 1536 358 1530 c 0
 742 -301 l 0
 697 -336 l 0
EndSplineSet
EndChar

StartChar: bracketright
Encoding: 64 93 64
Width: 706
VWidth: 1024
Flags: HW
LayerCount: 2
Fore
SplineSet
448 -336 m 0
 -47 -336 l 0
 -86 -297 l 0
 -83.3330078125 -289 -79.5 -279.333007812 -74.5 -268 c 0
 -69.5 -256.666992188 -64.3330078125 -245.333007812 -59 -234 c 0
 -53.6669921875 -222.666992188 -48.5 -212 -43.5 -202 c 0
 -38.5 -192 -34.6669921875 -185 -32 -181 c 0
 230 -181 l 0
 459 1447 l 0
 205 1447 l 0
 166 1483 l 0
 168 1490.33300781 171.166992188 1499.5 175.5 1510.5 c 0
 179.833007812 1521.5 184.666992188 1532.66699219 190 1544 c 0
 195.333007812 1555.33300781 200.333007812 1566 205 1576 c 0
 209.666992188 1586 213.666992188 1593.66699219 217 1599 c 0
 718 1599 l 0
 448 -336 l 0
EndSplineSet
EndChar

StartChar: asciicircum
Encoding: 65 94 65
Width: 938
VWidth: 1024
Flags: HW
LayerCount: 2
Fore
SplineSet
854 635 m 0
 835.333007812 619.666992188 817.833007812 606.833007812 801.5 596.5 c 0
 785.166992188 586.166992188 765.666992188 575.666992188 743 565 c 0
 713 592 l 0
 553 1315 l 0
 223 635 l 0
 215.666992188 628.333007812 207 621.5 197 614.5 c 0
 187 607.5 176.833007812 600.833007812 166.5 594.5 c 0
 156.166992188 588.166992188 146.333007812 582.5 137 577.5 c 0
 127.666992188 572.5 119.666992188 568.333007812 113 565 c 0
 94 592 l 0
 516 1462 l 0
 524.666992188 1470 535 1478.16699219 547 1486.5 c 0
 559 1494.83300781 571.333007812 1503 584 1511 c 0
 596.666992188 1519 609 1526.33300781 621 1533 c 0
 633 1539.66699219 643.666992188 1545.33300781 653 1550 c 0
 854 635 l 0
EndSplineSet
EndChar

StartChar: underscore
Encoding: 66 95 66
Width: 930
VWidth: 1024
Flags: HW
LayerCount: 2
Fore
SplineSet
811 -166 m 0
 809 -173.333007812 805.333007812 -182.5 800 -193.5 c 0
 794.666992188 -204.5 789 -215.833007812 783 -227.5 c 0
 777 -239.166992188 771.166992188 -250.333007812 765.5 -261 c 0
 759.833007812 -271.666992188 755.333007812 -280 752 -286 c 0
 3 -286 l 0
 -23 -249 l 0
 -21 -242.333007812 -17.5 -233.833007812 -12.5 -223.5 c 0
 -7.5 -213.166992188 -2 -202.166992188 4 -190.5 c 0
 10 -178.833007812 16.1669921875 -167.666992188 22.5 -157 c 0
 28.8330078125 -146.333007812 34 -137.666992188 38 -131 c 0
 783 -131 l 0
 811 -166 l 0
EndSplineSet
EndChar

StartChar: grave
Encoding: 67 96 67
Width: 606
VWidth: 1024
Flags: HW
LayerCount: 2
Fore
SplineSet
581 1057 m 0
 567.666992188 1049 552 1041 534 1033 c 0
 516 1025 501 1019.33300781 489 1016 c 0
 189 1372 l 0
 231 1428 l 0
 239 1429.33300781 254 1432.33300781 276 1437 c 0
 298 1441.66699219 321.333007812 1446.33300781 346 1451 c 0
 370.666992188 1455.66699219 394 1459.83300781 416 1463.5 c 0
 438 1467.16699219 453.333007812 1469 462 1469 c 0
 581 1057 l 0
EndSplineSet
EndChar

StartChar: a
Encoding: 68 97 68
Width: 1007
VWidth: 1024
Flags: HW
LayerCount: 2
Fore
SplineSet
1006 118 m 0
 978 98 949.5 78.3330078125 920.5 59 c 0
 891.5 39.6669921875 864 22.6669921875 838 8 c 0
 812 -6.6669921875 788.5 -18.5 767.5 -27.5 c 0
 746.5 -36.5 730 -41 718 -41 c 0
 707.333007812 -41 694.5 -37.5 679.5 -30.5 c 0
 664.5 -23.5 649.833007812 -11.6669921875 635.5 5 c 0
 621.166992188 21.6669921875 607.833007812 43.8330078125 595.5 71.5 c 0
 583.166992188 99.1669921875 574.666992188 134 570 176 c 0
 548 146.666992188 524.833007812 118.833007812 500.5 92.5 c 0
 476.166992188 66.1669921875 451.166992188 43.1669921875 425.5 23.5 c 0
 399.833007812 3.8330078125 373.666992188 -11.8330078125 347 -23.5 c 0
 320.333007812 -35.1669921875 293.333007812 -41 266 -41 c 0
 241.333007812 -41 215.333007812 -34.6669921875 188 -22 c 0
 160.666992188 -9.3330078125 135.5 10.8330078125 112.5 38.5 c 0
 89.5 66.1669921875 70.5 101.833007812 55.5 145.5 c 0
 40.5 189.166992188 33 242.333007812 33 305 c 0
 33 357.666992188 39.8330078125 409.166992188 53.5 459.5 c 0
 67.1669921875 509.833007812 86.6669921875 558 112 604 c 0
 137.333007812 650 168.5 693.166992188 205.5 733.5 c 0
 242.5 773.833007812 284.666992188 810 332 842 c 0
 368 866.666992188 411.666992188 888.5 463 907.5 c 0
 514.333007812 926.5 570.666992188 936 632 936 c 0
 660 936 687.666992188 929.833007812 715 917.5 c 0
 742.333007812 905.166992188 768.333007812 891.333007812 793 876 c 0
 818.333007812 887.333007812 843.166992188 897.833007812 867.5 907.5 c 0
 891.833007812 917.166992188 913.333007812 926.666992188 932 936 c 0
 967 861 l 0
 955.666992188 851.666992188 946.166992188 843.333007812 938.5 836 c 0
 930.833007812 828.666992188 924.333007812 820.166992188 919 810.5 c 0
 913.666992188 800.833007812 908.833007812 789 904.5 775 c 0
 900.166992188 761 895.666992188 742.666992188 891 720 c 0
 881 672 872.166992188 626.5 864.5 583.5 c 0
 856.833007812 540.5 850.5 501 845.5 465 c 0
 840.5 429 836.666992188 397.666992188 834 371 c 0
 831.333007812 344.333007812 830 323.666992188 830 309 c 0
 830 291 831.333007812 273.5 834 256.5 c 0
 836.666992188 239.5 840.5 224.166992188 845.5 210.5 c 0
 850.5 196.833007812 856.166992188 186 862.5 178 c 0
 868.833007812 170 876 166 884 166 c 0
 897.333007812 166 911.5 167.833007812 926.5 171.5 c 0
 941.5 175.166992188 962.333007812 182.666992188 989 194 c 0
 1006 118 l 0
577 360 m 0
 580.333007812 387.333007812 584.333007812 417 589 449 c 0
 593.666992188 481 598.5 513 603.5 545 c 0
 608.5 577 613.5 607.666992188 618.5 637 c 0
 623.5 666.333007812 628 692.333007812 632 715 c 0
 613.333007812 733 594.333007812 748.666992188 575 762 c 0
 555.666992188 775.333007812 537.333007812 781.666992188 520 781 c 0
 492.666992188 780.333007812 468 773.666992188 446 761 c 0
 424 748.333007812 404.5 731.5 387.5 710.5 c 0
 370.5 689.5 355.833007812 665.333007812 343.5 638 c 0
 331.166992188 610.666992188 321 582.166992188 313 552.5 c 0
 305 522.833007812 299.166992188 493 295.5 463 c 0
 291.833007812 433 290 405 290 379 c 0
 290 343.666992188 292.333007812 313.166992188 297 287.5 c 0
 301.666992188 261.833007812 308 240.666992188 316 224 c 0
 324 207.333007812 332.833007812 195.166992188 342.5 187.5 c 0
 352.166992188 179.833007812 362 176 372 176 c 0
 380.666992188 176 391.333007812 179 404 185 c 0
 416.666992188 191 431.5 201.166992188 448.5 215.5 c 0
 465.5 229.833007812 484.666992188 248.833007812 506 272.5 c 0
 527.333007812 296.166992188 551 325.333007812 577 360 c 0
EndSplineSet
EndChar

StartChar: b
Encoding: 69 98 69
Width: 1041
VWidth: 1024
Flags: HW
LayerCount: 2
Fore
SplineSet
990 610 m 0
 988.666992188 539.333007812 972.166992188 467.666992188 940.5 395 c 0
 908.833007812 322.333007812 867.666992188 253.333007812 817 188 c 0
 793.666992188 158 767.166992188 129.166992188 737.5 101.5 c 0
 707.833007812 73.8330078125 675.5 49.5 640.5 28.5 c 0
 605.5 7.5 568.333007812 -9.3330078125 529 -22 c 0
 489.666992188 -34.6669921875 449 -41 407 -41 c 0
 391.666992188 -41 373.666992188 -37.3330078125 353 -30 c 0
 332.333007812 -22.6669921875 311.166992188 -12.6669921875 289.5 0 c 0
 267.833007812 12.6669921875 246.333007812 28 225 46 c 0
 203.666992188 64 184.666992188 83.6669921875 168 105 c 0
 151.333007812 126.333007812 137.666992188 149 127 173 c 0
 116.333007812 197 111 221.666992188 111 247 c 0
 111 264.333007812 112.833007812 290.166992188 116.5 324.5 c 0
 120.166992188 358.833007812 125.166992188 398.333007812 131.5 443 c 0
 137.833007812 487.666992188 145 536.166992188 153 588.5 c 0
 161 640.833007812 169.333007812 694 178 748 c 0
 186.666992188 802 195.166992188 855.5 203.5 908.5 c 0
 211.833007812 961.5 219.166992188 1011.16699219 225.5 1057.5 c 0
 231.833007812 1103.83300781 237 1145 241 1181 c 0
 245 1217 247 1245.33300781 247 1266 c 0
 247 1281.33300781 245.333007812 1293.5 242 1302.5 c 0
 238.666992188 1311.5 234.333007812 1318.16699219 229 1322.5 c 0
 223.666992188 1326.83300781 218 1329.66699219 212 1331 c 0
 206 1332.33300781 200 1333 194 1333 c 0
 188 1333 179.833007812 1331.5 169.5 1328.5 c 0
 159.166992188 1325.5 149.333007812 1322.33300781 140 1319 c 0
 128 1315 116 1310.66699219 104 1306 c 0
 86 1385 l 0
 116.666992188 1399.66699219 151.833007812 1415 191.5 1431 c 0
 231.166992188 1447 270 1461.66699219 308 1475 c 0
 346 1488.33300781 380.5 1499.16699219 411.5 1507.5 c 0
 442.5 1515.83300781 464.666992188 1520 478 1520 c 0
 501.333007812 1520 517 1514 525 1502 c 0
 533 1490 537 1468.66699219 537 1438 c 0
 537 1410 534 1371.16699219 528 1321.5 c 0
 522 1271.83300781 514.5 1215.83300781 505.5 1153.5 c 0
 496.5 1091.16699219 486.333007812 1025.16699219 475 955.5 c 0
 463.666992188 885.833007812 452.666992188 817.333007812 442 750 c 0
 474.666992188 789.333007812 505.5 821.166992188 534.5 845.5 c 0
 563.5 869.833007812 590.666992188 888.666992188 616 902 c 0
 641.333007812 915.333007812 665 924.333007812 687 929 c 0
 709 933.666992188 729 936 747 936 c 0
 781 936.666992188 812.833007812 929.833007812 842.5 915.5 c 0
 872.166992188 901.166992188 898 880.166992188 920 852.5 c 0
 942 824.833007812 959.333007812 790.666992188 972 750 c 0
 984.666992188 709.333007812 990.666992188 662.666992188 990 610 c 0
629 743 m 0
 621 743 610.166992188 739.5 596.5 732.5 c 0
 582.833007812 725.5 566.5 713.333007812 547.5 696 c 0
 528.5 678.666992188 507.166992188 655.5 483.5 626.5 c 0
 459.833007812 597.5 434 560.666992188 406 516 c 0
 400 472 395.166992188 432.666992188 391.5 398 c 0
 387.833007812 363.333007812 386 336 386 316 c 0
 386 298.666992188 391 281.166992188 401 263.5 c 0
 411 245.833007812 423.333007812 230 438 216 c 0
 452.666992188 202 467.833007812 190.333007812 483.5 181 c 0
 499.166992188 171.666992188 512.666992188 166.666992188 524 166 c 0
 552 164 576.333007812 169.666992188 597 183 c 0
 617.666992188 196.333007812 636.333007812 215 653 239 c 0
 665.666992188 257 676.666992188 278.166992188 686 302.5 c 0
 695.333007812 326.833007812 703 352 709 378 c 0
 715 404 719.333007812 430.166992188 722 456.5 c 0
 724.666992188 482.833007812 726 507.333007812 726 530 c 0
 726 560.666992188 724 589 720 615 c 0
 716 641 709.833007812 663.5 701.5 682.5 c 0
 693.166992188 701.5 683 716.333007812 671 727 c 0
 659 737.666992188 645 743 629 743 c 0
EndSplineSet
EndChar

StartChar: c
Encoding: 70 99 70
Width: 899
VWidth: 1024
Flags: HW
LayerCount: 2
Fore
SplineSet
937 825 m 0
 923 809.666992188 905.5 792 884.5 772 c 0
 863.5 752 842.166992188 733 820.5 715 c 0
 798.833007812 697 778.333007812 681.833007812 759 669.5 c 0
 739.666992188 657.166992188 724.333007812 651 713 651 c 0
 701 651 689.333007812 657.833007812 678 671.5 c 0
 666.666992188 685.166992188 654.833007812 700 642.5 716 c 0
 630.166992188 732 616.5 746.833007812 601.5 760.5 c 0
 586.5 774.166992188 569.666992188 781 551 781 c 0
 517.666992188 781 488.166992188 769.833007812 462.5 747.5 c 0
 436.833007812 725.166992188 415.166992188 695.833007812 397.5 659.5 c 0
 379.833007812 623.166992188 366.333007812 582.166992188 357 536.5 c 0
 347.666992188 490.833007812 343 444.666992188 343 398 c 0
 343 311.333007812 354.666992188 244.333007812 378 197 c 0
 401.333007812 149.666992188 431.666992188 126 469 126 c 0
 509 126 554.5 140.5 605.5 169.5 c 0
 656.5 198.5 718 242.333007812 790 301 c 0
 792.666992188 297.666992188 796.666992188 292 802 284 c 0
 807.333007812 276 813 267.666992188 819 259 c 0
 825 250.333007812 830.5 242.333007812 835.5 235 c 0
 840.5 227.666992188 843.666992188 222.666992188 845 220 c 0
 793 172.666992188 745 132.333007812 701 99 c 0
 657 65.6669921875 615.833007812 38.6669921875 577.5 18 c 0
 539.166992188 -2.6669921875 503.166992188 -17.6669921875 469.5 -27 c 0
 435.833007812 -36.3330078125 403 -41 371 -41 c 0
 341 -41 308.833007812 -35.3330078125 274.5 -24 c 0
 240.166992188 -12.6669921875 208.333007812 7 179 35 c 0
 149.666992188 63 125.333007812 100.333007812 106 147 c 0
 86.6669921875 193.666992188 77 252 77 322 c 0
 77 366.666992188 81.6669921875 411.833007812 91 457.5 c 0
 100.333007812 503.166992188 115.5 547.5 136.5 590.5 c 0
 157.5 633.5 184.833007812 674.666992188 218.5 714 c 0
 252.166992188 753.333007812 293.666992188 789.333007812 343 822 c 0
 361.666992188 834 383.666992188 846.833007812 409 860.5 c 0
 434.333007812 874.166992188 461.5 886.5 490.5 897.5 c 0
 519.5 908.5 549.666992188 917.666992188 581 925 c 0
 612.333007812 932.333007812 643.333007812 936 674 936 c 0
 703.333007812 936 729.666992188 931.5 753 922.5 c 0
 776.333007812 913.5 798.166992188 902.833007812 818.5 890.5 c 0
 838.833007812 878.166992188 858.5 865.833007812 877.5 853.5 c 0
 896.5 841.166992188 916.333007812 831.666992188 937 825 c 0
EndSplineSet
EndChar

StartChar: d
Encoding: 71 100 71
Width: 1034
VWidth: 1024
Flags: HW
LayerCount: 2
Fore
SplineSet
1009 116 m 0
 981 96.6669921875 952.5 77.6669921875 923.5 59 c 0
 894.5 40.3330078125 867 23.6669921875 841 9 c 0
 815 -5.6669921875 791.166992188 -17.6669921875 769.5 -27 c 0
 747.833007812 -36.3330078125 730 -41 716 -41 c 0
 704.666992188 -41 691.666992188 -37.3330078125 677 -30 c 0
 662.333007812 -22.6669921875 647.833007812 -10.5 633.5 6.5 c 0
 619.166992188 23.5 606.333007812 46 595 74 c 0
 583.666992188 102 575.666992188 136.666992188 571 178 c 0
 514.333007812 101.333007812 460 45.6669921875 408 11 c 0
 356 -23.6669921875 308.666992188 -41 266 -41 c 0
 238.666992188 -41 211.166992188 -34.1669921875 183.5 -20.5 c 0
 155.833007812 -6.8330078125 130.833007812 14.5 108.5 43.5 c 0
 86.1669921875 72.5 68 109.5 54 154.5 c 0
 40 199.5 33 253 33 315 c 0
 33 367.666992188 39.6669921875 418.833007812 53 468.5 c 0
 66.3330078125 518.166992188 85.8330078125 565.5 111.5 610.5 c 0
 137.166992188 655.5 168.5 697.5 205.5 736.5 c 0
 242.5 775.5 284.666992188 810.666992188 332 842 c 0
 350.666992188 854 371.5 865.5 394.5 876.5 c 0
 417.5 887.5 441.5 897.5 466.5 906.5 c 0
 491.5 915.5 517.333007812 922.666992188 544 928 c 0
 570.666992188 933.333007812 596.666992188 936 622 936 c 0
 628.666992188 936 635.5 934.833007812 642.5 932.5 c 0
 649.5 930.166992188 657 927.333007812 665 924 c 0
 676.333007812 997.333007812 685.666992188 1064.33300781 693 1125 c 0
 700.333007812 1185.66699219 704 1232.66699219 704 1266 c 0
 704 1281.33300781 702.833007812 1293.5 700.5 1302.5 c 0
 698.166992188 1311.5 694.833007812 1318.16699219 690.5 1322.5 c 0
 686.166992188 1326.83300781 681.333007812 1329.66699219 676 1331 c 0
 670.666992188 1332.33300781 665 1333 659 1333 c 0
 653 1333 644.666992188 1331.5 634 1328.5 c 0
 623.333007812 1325.5 612.666992188 1322.33300781 602 1319 c 0
 590 1315 576.666992188 1310.66699219 562 1306 c 0
 545 1385 l 0
 580.333007812 1402.33300781 617.166992188 1419.16699219 655.5 1435.5 c 0
 693.833007812 1451.83300781 730.333007812 1466.16699219 765 1478.5 c 0
 799.666992188 1490.83300781 830.5 1500.83300781 857.5 1508.5 c 0
 884.5 1516.16699219 904.666992188 1520 918 1520 c 0
 941.333007812 1520 959.666992188 1514 973 1502 c 0
 986.333007812 1490 993 1468.66699219 993 1438 c 0
 993 1412 990.666992188 1378.66699219 986 1338 c 0
 981.333007812 1297.33300781 975.166992188 1251.83300781 967.5 1201.5 c 0
 959.833007812 1151.16699219 951.166992188 1097.5 941.5 1040.5 c 0
 931.833007812 983.5 921.833007812 926.166992188 911.5 868.5 c 0
 901.166992188 810.833007812 891.166992188 754 881.5 698 c 0
 871.833007812 642 863.166992188 589.666992188 855.5 541 c 0
 847.833007812 492.333007812 841.666992188 448.833007812 837 410.5 c 0
 832.333007812 372.166992188 830 341.666992188 830 319 c 0
 830 269 835.333007812 231.333007812 846 206 c 0
 856.666992188 180.666992188 869.666992188 168 885 168 c 0
 901.666992188 168 917.666992188 169.833007812 933 173.5 c 0
 948.333007812 177.166992188 967.666992188 184 991 194 c 0
 1009 116 l 0
578 366 m 0
 584.666992188 411.333007812 592.666992188 464.166992188 602 524.5 c 0
 611.333007812 584.833007812 621.333007812 648 632 714 c 0
 614.666992188 732 596.666992188 747.666992188 578 761 c 0
 559.333007812 774.333007812 539.666992188 781 519 781 c 0
 491.666992188 781 467.166992188 774.666992188 445.5 762 c 0
 423.833007812 749.333007812 404.5 732.5 387.5 711.5 c 0
 370.5 690.5 355.833007812 666.333007812 343.5 639 c 0
 331.166992188 611.666992188 321 583.166992188 313 553.5 c 0
 305 523.833007812 299.166992188 493.833007812 295.5 463.5 c 0
 291.833007812 433.166992188 290 405 290 379 c 0
 290 307.666992188 298.333007812 256 315 224 c 0
 331.666992188 192 352 176 376 176 c 0
 382.666992188 176 391.666992188 178.333007812 403 183 c 0
 414.333007812 187.666992188 428.333007812 197 445 211 c 0
 461.666992188 225 481 244.333007812 503 269 c 0
 525 293.666992188 550 326 578 366 c 0
EndSplineSet
EndChar

StartChar: e
Encoding: 72 101 72
Width: 885
VWidth: 1024
Flags: HW
LayerCount: 2
Fore
SplineSet
401 722 m 0
 386.333007812 702.666992188 373.5 683.166992188 362.5 663.5 c 0
 351.5 643.833007812 342 623 334 601 c 0
 326 579 319.666992188 555.333007812 315 530 c 0
 310.333007812 504.666992188 307.333007812 476.666992188 306 446 c 0
 364.666992188 474 411.5 499.166992188 446.5 521.5 c 0
 481.5 543.833007812 508.166992188 565 526.5 585 c 0
 544.833007812 605 556.666992188 624.666992188 562 644 c 0
 567.333007812 663.333007812 570 683.666992188 570 705 c 0
 570 732.333007812 564 753.5 552 768.5 c 0
 540 783.5 525.333007812 791 508 791 c 0
 502.666992188 791 495.666992188 789.333007812 487 786 c 0
 478.333007812 782.666992188 469 778 459 772 c 0
 449 766 438.833007812 758.833007812 428.5 750.5 c 0
 418.166992188 742.166992188 409 732.666992188 401 722 c 0
850 760 m 0
 850 742 847.833007812 722.5 843.5 701.5 c 0
 839.166992188 680.5 830.5 658.5 817.5 635.5 c 0
 804.5 612.5 786 588.333007812 762 563 c 0
 738 537.666992188 706 511.666992188 666 485 c 0
 626 458.333007812 577 431 519 403 c 0
 461 375 391.666992188 346.666992188 311 318 c 0
 320.333007812 257.333007812 337.333007812 210.166992188 362 176.5 c 0
 386.666992188 142.833007812 415 126 447 126 c 0
 475.666992188 126 517.5 140.666992188 572.5 170 c 0
 627.5 199.333007812 695.333007812 246.333007812 776 311 c 0
 780 309 784.666992188 304.166992188 790 296.5 c 0
 795.333007812 288.833007812 800.5 280.5 805.5 271.5 c 0
 810.5 262.5 815 254 819 246 c 0
 827 230 l 0
 772.333007812 182.666992188 722.333007812 141.833007812 677 107.5 c 0
 631.666992188 73.1669921875 589.666992188 45 551 23 c 0
 512.333007812 1 476.166992188 -15.1669921875 442.5 -25.5 c 0
 408.833007812 -35.8330078125 376.333007812 -41 345 -41 c 0
 315.666992188 -41 283.333007812 -34.8330078125 248 -22.5 c 0
 212.666992188 -10.1669921875 179.833007812 9.5 149.5 36.5 c 0
 119.166992188 63.5 93.8330078125 98.8330078125 73.5 142.5 c 0
 53.1669921875 186.166992188 43 239.666992188 43 303 c 0
 43 355 49.3330078125 404.5 62 451.5 c 0
 74.6669921875 498.5 92.6669921875 543.166992188 116 585.5 c 0
 139.333007812 627.833007812 167.5 668 200.5 706 c 0
 233.5 744 270.666992188 780.666992188 312 816 c 0
 326.666992188 828.666992188 345.333007812 842 368 856 c 0
 390.666992188 870 415.5 883 442.5 895 c 0
 469.5 907 497.5 916.833007812 526.5 924.5 c 0
 555.5 932.166992188 584 936 612 936 c 0
 652.666992188 936 688 930.833007812 718 920.5 c 0
 748 910.166992188 772.833007812 896.666992188 792.5 880 c 0
 812.166992188 863.333007812 826.666992188 844.5 836 823.5 c 0
 845.333007812 802.5 850 781.333007812 850 760 c 0
EndSplineSet
EndChar

StartChar: f
Encoding: 73 102 73
Width: 689
VWidth: 1024
Flags: HW
LayerCount: 2
Fore
SplineSet
1053 1393 m 0
 1043.66699219 1386.33300781 1031.83300781 1377.16699219 1017.5 1365.5 c 0
 1003.16699219 1353.83300781 987.833007812 1341.5 971.5 1328.5 c 0
 955.166992188 1315.5 938.333007812 1302.16699219 921 1288.5 c 0
 903.666992188 1274.83300781 887.5 1262.66699219 872.5 1252 c 0
 857.5 1241.33300781 844.166992188 1232.5 832.5 1225.5 c 0
 820.833007812 1218.5 812.333007812 1215 807 1215 c 0
 795.666992188 1215 784.5 1221.33300781 773.5 1234 c 0
 762.5 1246.66699219 751 1260.66699219 739 1276 c 0
 727 1291.33300781 714.333007812 1305.33300781 701 1318 c 0
 687.666992188 1330.66699219 672.666992188 1337 656 1337 c 0
 630.666992188 1337 609.333007812 1324.83300781 592 1300.5 c 0
 574.666992188 1276.16699219 560.166992188 1245.33300781 548.5 1208 c 0
 536.833007812 1170.66699219 527.5 1129.33300781 520.5 1084 c 0
 513.5 1038.66699219 507.666992188 994.666992188 503 952 c 0
 497 905 l 0
 743 905 l 0
 773 867 l 0
 766.333007812 857.666992188 756.166992188 846 742.5 832 c 0
 728.833007812 818 714.5 804 699.5 790 c 0
 684.5 776 670.166992188 763.333007812 656.5 752 c 0
 642.833007812 740.666992188 632.666992188 733.333007812 626 730 c 0
 618.666992188 748.666992188 604.666992188 760.833007812 584 766.5 c 0
 563.333007812 772.166992188 533 775 493 775 c 0
 482 775 l 0
 415 193 l 0
 406.333007812 119.666992188 386.166992188 48.8330078125 354.5 -19.5 c 0
 322.833007812 -87.8330078125 285 -151.5 241 -210.5 c 0
 197 -269.5 149.166992188 -322.5 97.5 -369.5 c 0
 45.8330078125 -416.5 -4.6669921875 -455 -54 -485 c 0
 -100 -392 l 0
 -66.6669921875 -373.333007812 -36.5 -345.5 -9.5 -308.5 c 0
 17.5 -271.5 41.1669921875 -229 61.5 -181 c 0
 81.8330078125 -133 98.6669921875 -81.3330078125 112 -26 c 0
 125.333007812 29.3330078125 135 84.3330078125 141 139 c 0
 214 775 l 0
 78 775 l 0
 53 816 l 0
 194 905 l 0
 229 905 l 0
 235.666992188 958.333007812 245.666992188 1009.66699219 259 1059 c 0
 272.333007812 1108.33300781 289.666992188 1155 311 1199 c 0
 332.333007812 1243 358.5 1284.16699219 389.5 1322.5 c 0
 420.5 1360.83300781 457 1395.66699219 499 1427 c 0
 535 1453 572.833007812 1475 612.5 1493 c 0
 652.166992188 1511 692.666992188 1520 734 1520 c 0
 768 1520 801.833007812 1514 835.5 1502 c 0
 869.166992188 1490 900.5 1476.5 929.5 1461.5 c 0
 958.5 1446.5 983.833007812 1432.16699219 1005.5 1418.5 c 0
 1027.16699219 1404.83300781 1043 1396.33300781 1053 1393 c 0
EndSplineSet
EndChar

StartChar: g
Encoding: 74 103 74
Width: 977
VWidth: 1024
Flags: HW
LayerCount: 2
Fore
SplineSet
965 861 m 0
 942.333007812 842.333007812 924.5 819.333007812 911.5 792 c 0
 898.5 764.666992188 889 727 883 679 c 0
 873.666992188 599.666992188 867.166992188 529.5 863.5 468.5 c 0
 859.833007812 407.5 856.5 350.833007812 853.5 298.5 c 0
 850.5 246.166992188 847.166992188 196.333007812 843.5 149 c 0
 839.833007812 101.666992188 833.333007812 52.3330078125 824 1 c 0
 816 -45 801.5 -89.3330078125 780.5 -132 c 0
 759.5 -174.666992188 734.333007812 -214.666992188 705 -252 c 0
 675.666992188 -289.333007812 643.166992188 -323.166992188 607.5 -353.5 c 0
 571.833007812 -383.833007812 534.833007812 -409.833007812 496.5 -431.5 c 0
 458.166992188 -453.166992188 419.666992188 -470 381 -482 c 0
 342.333007812 -494 305.666992188 -500 271 -500 c 0
 235.666992188 -500 200.333007812 -496.5 165 -489.5 c 0
 129.666992188 -482.5 98 -473.5 70 -462.5 c 0
 42 -451.5 19.1669921875 -439.5 1.5 -426.5 c 0
 -16.1669921875 -413.5 -25 -401 -25 -389 c 0
 -25 -381.666992188 -21.6669921875 -372 -15 -360 c 0
 -8.3330078125 -348 0 -335.166992188 10 -321.5 c 0
 20 -307.833007812 31 -294.166992188 43 -280.5 c 0
 55 -266.833007812 66.6669921875 -254.5 78 -243.5 c 0
 89.3330078125 -232.5 99.3330078125 -223.5 108 -216.5 c 0
 116.666992188 -209.5 122.333007812 -206 125 -206 c 0
 133 -206 143.166992188 -211.333007812 155.5 -222 c 0
 167.833007812 -232.666992188 183.5 -244.5 202.5 -257.5 c 0
 221.5 -270.5 244.333007812 -282.333007812 271 -293 c 0
 297.666992188 -303.666992188 329.666992188 -309 367 -309 c 0
 389 -309 409.833007812 -305.833007812 429.5 -299.5 c 0
 449.166992188 -293.166992188 467.166992188 -280.5 483.5 -261.5 c 0
 499.833007812 -242.5 514.5 -216 527.5 -182 c 0
 540.5 -148 552 -103.333007812 562 -48 c 0
 570 1.3330078125 575.833007812 46.6669921875 579.5 88 c 0
 583.166992188 129.333007812 586 169.666992188 588 209 c 0
 532 131 477 69.8330078125 423 25.5 c 0
 369 -18.8330078125 313.333007812 -41 256 -41 c 0
 234 -41 209.333007812 -34.6669921875 182 -22 c 0
 154.666992188 -9.3330078125 129.166992188 10.8330078125 105.5 38.5 c 0
 81.8330078125 66.1669921875 61.8330078125 101.833007812 45.5 145.5 c 0
 29.1669921875 189.166992188 21 242.333007812 21 305 c 0
 21 411 46.6669921875 510.5 98 603.5 c 0
 149.333007812 696.5 224.666992188 776 324 842 c 0
 360.666992188 866.666992188 404.666992188 888.5 456 907.5 c 0
 507.333007812 926.5 566 936 632 936 c 0
 656 936 682.333007812 929 711 915 c 0
 739.666992188 901 767.333007812 885.666992188 794 869 c 0
 818.666992188 883.666992188 842.5 896.333007812 865.5 907 c 0
 888.5 917.666992188 908.666992188 927.333007812 926 936 c 0
 965 861 l 0
368 176 m 0
 374.666992188 176 383.833007812 178.333007812 395.5 183 c 0
 407.166992188 187.666992188 422.166992188 198 440.5 214 c 0
 458.833007812 230 480.666992188 253 506 283 c 0
 531.333007812 313 561 353.333007812 595 404 c 0
 597 442.666992188 600 483.833007812 604 527.5 c 0
 608 571.166992188 614.333007812 619.333007812 623 672 c 0
 625 683.333007812 628 694.666992188 632 706 c 0
 611.333007812 725.333007812 590.666992188 742.666992188 570 758 c 0
 549.333007812 773.333007812 530 781 512 781 c 0
 484.666992188 781 460 774.666992188 438 762 c 0
 416 749.333007812 396.5 732.5 379.5 711.5 c 0
 362.5 690.5 347.666992188 666.333007812 335 639 c 0
 322.333007812 611.666992188 312 583.166992188 304 553.5 c 0
 296 523.833007812 290 493.833007812 286 463.5 c 0
 282 433.166992188 280 405 280 379 c 0
 280 307.666992188 288.333007812 256 305 224 c 0
 321.666992188 192 342.666992188 176 368 176 c 0
EndSplineSet
EndChar

StartChar: h
Encoding: 75 104 75
Width: 1097
VWidth: 1024
Flags: HW
LayerCount: 2
Fore
SplineSet
1074 122 m 0
 1043.33300781 104 1010 85.3330078125 974 66 c 0
 938 46.6669921875 902.5 29.1669921875 867.5 13.5 c 0
 832.5 -2.1669921875 799.666992188 -15.1669921875 769 -25.5 c 0
 738.333007812 -35.8330078125 713 -41 693 -41 c 0
 673.666992188 -41 656.166992188 -30.5 640.5 -9.5 c 0
 624.833007812 11.5 617 40 617 76 c 0
 617 88 619 107.666992188 623 135 c 0
 627 162.333007812 631.833007812 193.666992188 637.5 229 c 0
 643.166992188 264.333007812 649.333007812 301.666992188 656 341 c 0
 662.666992188 380.333007812 668.833007812 418.166992188 674.5 454.5 c 0
 680.166992188 490.833007812 685 523.666992188 689 553 c 0
 693 582.333007812 695 604.666992188 695 620 c 0
 695 640 694 656.333007812 692 669 c 0
 690 681.666992188 687.333007812 691.5 684 698.5 c 0
 680.666992188 705.5 676.166992188 710.166992188 670.5 712.5 c 0
 664.833007812 714.833007812 658.666992188 716 652 716 c 0
 643.333007812 716 632 714.333007812 618 711 c 0
 604 707.666992188 588.5 701 571.5 691 c 0
 554.5 681 536.833007812 667.333007812 518.5 650 c 0
 500.166992188 632.666992188 482.666992188 610 466 582 c 0
 446.666992188 550 430.666992188 510.166992188 418 462.5 c 0
 405.333007812 414.833007812 394.333007812 361 385 301 c 0
 379 264.333007812 374.333007812 233.666992188 371 209 c 0
 367.666992188 184.333007812 365.333007812 163.666992188 364 147 c 0
 362.666992188 130.333007812 361.833007812 116.5 361.5 105.5 c 0
 361.166992188 94.5 361.333007812 84.3330078125 362 75 c 0
 356 71.6669921875 346.5 67 333.5 61 c 0
 320.5 55 305.5 48.1669921875 288.5 40.5 c 0
 271.5 32.8330078125 253.666992188 24.8330078125 235 16.5 c 0
 216.333007812 8.1669921875 198.5 0.3330078125 181.5 -7 c 0
 164.5 -14.3330078125 149.5 -21.1669921875 136.5 -27.5 c 0
 123.5 -33.8330078125 114.333007812 -38.3330078125 109 -41 c 0
 66 0 l 0
 72 36 79.3330078125 79.1669921875 88 129.5 c 0
 96.6669921875 179.833007812 105.833007812 234.833007812 115.5 294.5 c 0
 125.166992188 354.166992188 135.333007812 416.5 146 481.5 c 0
 156.666992188 546.5 167 611.5 177 676.5 c 0
 187 741.5 196.5 804.666992188 205.5 866 c 0
 214.5 927.333007812 222.333007812 984.166992188 229 1036.5 c 0
 235.666992188 1088.83300781 241 1134.83300781 245 1174.5 c 0
 249 1214.16699219 251 1244.66699219 251 1266 c 0
 251 1281.33300781 249.833007812 1293.5 247.5 1302.5 c 0
 245.166992188 1311.5 242.166992188 1318.16699219 238.5 1322.5 c 0
 234.833007812 1326.83300781 230.5 1329.66699219 225.5 1331 c 0
 220.5 1332.33300781 215.333007812 1333 210 1333 c 0
 203.333007812 1333 194.166992188 1331.5 182.5 1328.5 c 0
 170.833007812 1325.5 159.333007812 1322.33300781 148 1319 c 0
 134.666992188 1315 120.333007812 1310.66699219 105 1306 c 0
 88 1385 l 0
 106.666992188 1393 127.833007812 1402 151.5 1412 c 0
 175.166992188 1422 199.833007812 1432 225.5 1442 c 0
 251.166992188 1452 276.666992188 1461.66699219 302 1471 c 0
 327.333007812 1480.33300781 351.166992188 1488.66699219 373.5 1496 c 0
 395.833007812 1503.33300781 415.666992188 1509.16699219 433 1513.5 c 0
 450.333007812 1517.83300781 463.666992188 1520 473 1520 c 0
 491.666992188 1520 507.833007812 1514 521.5 1502 c 0
 535.166992188 1490 542 1468.66699219 542 1438 c 0
 542 1422 540.166992188 1397 536.5 1363 c 0
 532.833007812 1329 528 1290.16699219 522 1246.5 c 0
 516 1202.83300781 509.166992188 1156.33300781 501.5 1107 c 0
 493.833007812 1057.66699219 486.333007812 1009.66699219 479 963 c 0
 471.666992188 916.333007812 464.833007812 873.166992188 458.5 833.5 c 0
 452.166992188 793.833007812 447 762 443 738 c 0
 521 808.666992188 593.833007812 859.333007812 661.5 890 c 0
 729.166992188 920.666992188 792.666992188 936 852 936 c 0
 872.666992188 936 891.333007812 934 908 930 c 0
 924.666992188 926 938.666992188 918.166992188 950 906.5 c 0
 961.333007812 894.833007812 970 878.833007812 976 858.5 c 0
 982 838.166992188 985 812 985 780 c 0
 985 756.666992188 983 729.333007812 979 698 c 0
 975 666.666992188 970 633.666992188 964 599 c 0
 958 564.333007812 951.333007812 528.666992188 944 492 c 0
 936.666992188 455.333007812 930 420.333007812 924 387 c 0
 918 353.666992188 913 323 909 295 c 0
 905 267 903 243.666992188 903 225 c 0
 903 202.333007812 905.666992188 186.833007812 911 178.5 c 0
 916.333007812 170.166992188 925.666992188 166 939 166 c 0
 948.333007812 166 956.666992188 166.666992188 964 168 c 0
 971.333007812 169.333007812 979 171.5 987 174.5 c 0
 995 177.5 1003.33300781 181 1012 185 c 0
 1044 199 l 0
 1074 122 l 0
EndSplineSet
EndChar

StartChar: i
Encoding: 76 105 76
Width: 589
VWidth: 1024
Flags: HW
LayerCount: 2
Fore
SplineSet
587 1262 m 0
 587 1243.33300781 582.833007812 1223.66699219 574.5 1203 c 0
 566.166992188 1182.33300781 553.833007812 1163.33300781 537.5 1146 c 0
 521.166992188 1128.66699219 501 1114.33300781 477 1103 c 0
 453 1091.66699219 425.333007812 1086 394 1086 c 0
 374 1086 356.666992188 1088.5 342 1093.5 c 0
 327.333007812 1098.5 315.333007812 1105.33300781 306 1114 c 0
 296.666992188 1122.66699219 289.833007812 1132.33300781 285.5 1143 c 0
 281.166992188 1153.66699219 279 1164.66699219 279 1176 c 0
 279 1194 283.166992188 1213.33300781 291.5 1234 c 0
 299.833007812 1254.66699219 312.333007812 1273.83300781 329 1291.5 c 0
 345.666992188 1309.16699219 365.833007812 1323.83300781 389.5 1335.5 c 0
 413.166992188 1347.16699219 440.666992188 1353 472 1353 c 0
 492 1353 509.333007812 1350.33300781 524 1345 c 0
 538.666992188 1339.66699219 550.666992188 1332.83300781 560 1324.5 c 0
 569.333007812 1316.16699219 576.166992188 1306.5 580.5 1295.5 c 0
 584.833007812 1284.5 587 1273.33300781 587 1262 c 0
565 122 m 0
 533.666992188 103.333007812 500.5 84.3330078125 465.5 65 c 0
 430.5 45.6669921875 396.166992188 28.1669921875 362.5 12.5 c 0
 328.833007812 -3.1669921875 297.333007812 -16 268 -26 c 0
 238.666992188 -36 214 -41 194 -41 c 0
 171.333007812 -41 151.666992188 -30.5 135 -9.5 c 0
 118.333007812 11.5 110 40 110 76 c 0
 110 96 112.166992188 122.5 116.5 155.5 c 0
 120.833007812 188.5 126.333007812 224.666992188 133 264 c 0
 139.666992188 303.333007812 147 344 155 386 c 0
 163 428 170.333007812 468 177 506 c 0
 183.666992188 544 189.166992188 578.5 193.5 609.5 c 0
 197.833007812 640.5 200 664 200 680 c 0
 200 695.333007812 199 707.5 197 716.5 c 0
 195 725.5 192.333007812 732.166992188 189 736.5 c 0
 185.666992188 740.833007812 181.333007812 743.666992188 176 745 c 0
 170.666992188 746.333007812 165 747 159 747 c 0
 153.666992188 747 146 745.833007812 136 743.5 c 0
 126 741.166992188 116 738.333007812 106 735 c 0
 94 731.666992188 81.6669921875 727.666992188 69 723 c 0
 50 800 l 0
 78 812.666992188 110.833007812 826.833007812 148.5 842.5 c 0
 186.166992188 858.166992188 223.5 873 260.5 887 c 0
 297.5 901 331.333007812 912.666992188 362 922 c 0
 392.666992188 931.333007812 415 936 429 936 c 0
 447.666992188 936 462.5 929.666992188 473.5 917 c 0
 484.5 904.333007812 490 882.666992188 490 852 c 0
 490 832.666992188 487.666992188 806.333007812 483 773 c 0
 478.333007812 739.666992188 472.5 703.166992188 465.5 663.5 c 0
 458.5 623.833007812 451 582.166992188 443 538.5 c 0
 435 494.833007812 427.5 453.166992188 420.5 413.5 c 0
 413.5 373.833007812 407.666992188 337.333007812 403 304 c 0
 398.333007812 270.666992188 396 244.333007812 396 225 c 0
 396 204.333007812 398.166992188 189.333007812 402.5 180 c 0
 406.833007812 170.666992188 414.666992188 166 426 166 c 0
 436 166 445.333007812 166.666992188 454 168 c 0
 462.666992188 169.333007812 471.5 171.333007812 480.5 174 c 0
 489.5 176.666992188 499 180 509 184 c 0
 519 188 531 193 545 199 c 0
 565 122 l 0
EndSplineSet
EndChar

StartChar: j
Encoding: 77 106 77
Width: 585
VWidth: 1024
Flags: HW
LayerCount: 2
Fore
SplineSet
561 1262 m 0
 561 1243.33300781 556.833007812 1223.66699219 548.5 1203 c 0
 540.166992188 1182.33300781 527.833007812 1163.33300781 511.5 1146 c 0
 495.166992188 1128.66699219 475 1114.33300781 451 1103 c 0
 427 1091.66699219 399.333007812 1086 368 1086 c 0
 348 1086 330.666992188 1088.5 316 1093.5 c 0
 301.333007812 1098.5 289.333007812 1105.33300781 280 1114 c 0
 270.666992188 1122.66699219 263.833007812 1132.33300781 259.5 1143 c 0
 255.166992188 1153.66699219 253 1164.66699219 253 1176 c 0
 253 1194 257.166992188 1213.33300781 265.5 1234 c 0
 273.833007812 1254.66699219 286.333007812 1273.83300781 303 1291.5 c 0
 319.666992188 1309.16699219 339.833007812 1323.83300781 363.5 1335.5 c 0
 387.166992188 1347.16699219 414.666992188 1353 446 1353 c 0
 466 1353 483.333007812 1350.33300781 498 1345 c 0
 512.666992188 1339.66699219 524.666992188 1332.83300781 534 1324.5 c 0
 543.333007812 1316.16699219 550.166992188 1306.5 554.5 1295.5 c 0
 558.833007812 1284.5 561 1273.33300781 561 1262 c 0
480 870 m 0
 480 862.666992188 479.166992188 849.833007812 477.5 831.5 c 0
 475.833007812 813.166992188 473.666992188 791.666992188 471 767 c 0
 468.333007812 742.333007812 465.5 715.833007812 462.5 687.5 c 0
 459.5 659.166992188 456.5 631.5 453.5 604.5 c 0
 450.5 577.5 447.666992188 552.5 445 529.5 c 0
 442.333007812 506.5 440.333007812 487.666992188 439 473 c 0
 433.666992188 427 427.666992188 373.5 421 312.5 c 0
 414.333007812 251.5 404.666992188 179.333007812 392 96 c 0
 382.666992188 33.3330078125 366.833007812 -23.8330078125 344.5 -75.5 c 0
 322.166992188 -127.166992188 296.833007812 -173.833007812 268.5 -215.5 c 0
 240.166992188 -257.166992188 210.5 -293.666992188 179.5 -325 c 0
 148.5 -356.333007812 119.333007812 -382.666992188 92 -404 c 0
 55.3330078125 -432.666992188 14.6669921875 -455.833007812 -30 -473.5 c 0
 -74.6669921875 -491.166992188 -119 -500 -163 -500 c 0
 -194.333007812 -500 -224.166992188 -495.666992188 -252.5 -487 c 0
 -280.833007812 -478.333007812 -306 -468.333007812 -328 -457 c 0
 -350 -445.666992188 -367.5 -434 -380.5 -422 c 0
 -393.5 -410 -400 -400.666992188 -400 -394 c 0
 -400 -388 -397 -379.333007812 -391 -368 c 0
 -385 -356.666992188 -377.166992188 -344.333007812 -367.5 -331 c 0
 -357.833007812 -317.666992188 -347.166992188 -303.833007812 -335.5 -289.5 c 0
 -323.833007812 -275.166992188 -312.333007812 -262.166992188 -301 -250.5 c 0
 -289.666992188 -238.833007812 -279.5 -229.333007812 -270.5 -222 c 0
 -261.5 -214.666992188 -254.666992188 -211 -250 -211 c 0
 -242 -211 -231.333007812 -216.333007812 -218 -227 c 0
 -204.666992188 -237.666992188 -189.5 -249.333007812 -172.5 -262 c 0
 -155.5 -274.666992188 -137 -286.333007812 -117 -297 c 0
 -97 -307.666992188 -76 -313 -54 -313 c 0
 -28 -313 -6.8330078125 -307.833007812 9.5 -297.5 c 0
 25.8330078125 -287.166992188 39.5 -269.5 50.5 -244.5 c 0
 61.5 -219.5 71.3330078125 -186.333007812 80 -145 c 0
 88.6669921875 -103.666992188 98 -51.6669921875 108 11 c 0
 116 60.3330078125 123.166992188 107.333007812 129.5 152 c 0
 135.833007812 196.666992188 141.5 238 146.5 276 c 0
 151.5 314 155.833007812 347.833007812 159.5 377.5 c 0
 163.166992188 407.166992188 166 431.666992188 168 451 c 0
 170 467 172 486 174 508 c 0
 180 574 l 0
 182 596 183.5 616.5 184.5 635.5 c 0
 185.5 654.5 186 669.333007812 186 680 c 0
 186 695.333007812 185 707.5 183 716.5 c 0
 181 725.5 178.166992188 732.166992188 174.5 736.5 c 0
 170.833007812 740.833007812 166.5 743.666992188 161.5 745 c 0
 156.5 746.333007812 151 747 145 747 c 0
 139 747 131 745.833007812 121 743.5 c 0
 111 741.166992188 101 738.333007812 91 735 c 0
 79 731.666992188 67 727.666992188 55 723 c 0
 35 800 l 0
 53.6669921875 808.666992188 74.8330078125 818 98.5 828 c 0
 122.166992188 838 146.666992188 848 172 858 c 0
 197.333007812 868 222.5 877.666992188 247.5 887 c 0
 272.5 896.333007812 295.833007812 904.666992188 317.5 912 c 0
 339.166992188 919.333007812 358.5 925.166992188 375.5 929.5 c 0
 392.5 933.833007812 405.333007812 936 414 936 c 0
 432.666992188 936 448.333007812 932 461 924 c 0
 473.666992188 916 480 898 480 870 c 0
EndSplineSet
EndChar

StartChar: k
Encoding: 78 107 78
Width: 1039
VWidth: 1024
Flags: HW
LayerCount: 2
Fore
SplineSet
540 1417 m 0
 540 1391 538 1358.83300781 534 1320.5 c 0
 530 1282.16699219 524.833007812 1239.33300781 518.5 1192 c 0
 512.166992188 1144.66699219 504.666992188 1094.16699219 496 1040.5 c 0
 487.333007812 986.833007812 478.333007812 931.666992188 469 875 c 0
 459.666992188 818.333007812 450.166992188 761.166992188 440.5 703.5 c 0
 430.833007812 645.833007812 421.666992188 590 413 536 c 0
 568 650 l 0
 614 684 650.5 712.166992188 677.5 734.5 c 0
 704.5 756.833007812 721 774.5 727 787.5 c 0
 733 800.5 728.5 809.166992188 713.5 813.5 c 0
 698.5 817.833007812 672.666992188 819.333007812 636 818 c 0
 627 897 l 0
 656.333007812 901.666992188 686 906 716 910 c 0
 746 914 775 917.5 803 920.5 c 0
 831 923.5 857.666992188 925.833007812 883 927.5 c 0
 908.333007812 929.166992188 931.666992188 930 953 930 c 0
 995 930 1023.16699219 923.666992188 1037.5 911 c 0
 1051.83300781 898.333007812 1059 880.666992188 1059 858 c 0
 1059 848 1051.83300781 834.5 1037.5 817.5 c 0
 1023.16699219 800.5 1002.16699219 780.833007812 974.5 758.5 c 0
 946.833007812 736.166992188 913.333007812 711.166992188 874 683.5 c 0
 834.666992188 655.833007812 790 626.666992188 740 596 c 0
 612 517 l 0
 628 499 643.833007812 477.833007812 659.5 453.5 c 0
 675.166992188 429.166992188 690.166992188 404 704.5 378 c 0
 718.833007812 352 733 326.333007812 747 301 c 0
 761 275.666992188 774.833007812 253 788.5 233 c 0
 802.166992188 213 815.5 196.833007812 828.5 184.5 c 0
 841.5 172.166992188 854.666992188 166 868 166 c 0
 883.333007812 166 903.166992188 168.5 927.5 173.5 c 0
 951.833007812 178.5 976.666992188 188 1002 202 c 0
 1039 128 l 0
 1017 109.333007812 992.166992188 90.1669921875 964.5 70.5 c 0
 936.833007812 50.8330078125 909.333007812 32.8330078125 882 16.5 c 0
 854.666992188 0.1669921875 829 -13.1669921875 805 -23.5 c 0
 781 -33.8330078125 761.333007812 -39 746 -39 c 0
 724 -39 702.666992188 -29.5 682 -10.5 c 0
 661.333007812 8.5 641.166992188 33.1669921875 621.5 63.5 c 0
 601.833007812 93.8330078125 582.5 127.833007812 563.5 165.5 c 0
 544.5 203.166992188 525.833007812 240.833007812 507.5 278.5 c 0
 489.166992188 316.166992188 471.333007812 351.833007812 454 385.5 c 0
 436.666992188 419.166992188 419.666992188 447 403 469 c 0
 395.666992188 421.666992188 389.166992188 377 383.5 335 c 0
 377.833007812 293 373.5 254.833007812 370.5 220.5 c 0
 367.5 186.166992188 365.833007812 156.666992188 365.5 132 c 0
 365.166992188 107.333007812 366.666992188 89 370 77 c 0
 364 73.6669921875 354.166992188 69 340.5 63 c 0
 326.833007812 57 311.333007812 50 294 42 c 0
 276.666992188 34 258.333007812 25.8330078125 239 17.5 c 0
 219.666992188 9.1669921875 201.5 1.1669921875 184.5 -6.5 c 0
 167.5 -14.1669921875 152.333007812 -21.1669921875 139 -27.5 c 0
 125.666992188 -33.8330078125 116.333007812 -38.3330078125 111 -41 c 0
 66 0 l 0
 68.6669921875 19.3330078125 73.3330078125 49.5 80 90.5 c 0
 86.6669921875 131.5 94.5 179.5 103.5 234.5 c 0
 112.5 289.5 122.5 349.5 133.5 414.5 c 0
 144.5 479.5 155.333007812 546 166 614 c 0
 176.666992188 682 187.166992188 749.166992188 197.5 815.5 c 0
 207.833007812 881.833007812 217 944 225 1002 c 0
 233 1060 239.333007812 1111.66699219 244 1157 c 0
 248.666992188 1202.33300781 251 1237.66699219 251 1263 c 0
 251 1279.66699219 250 1292.66699219 248 1302 c 0
 246 1311.33300781 243 1318.33300781 239 1323 c 0
 235 1327.66699219 230 1330.5 224 1331.5 c 0
 218 1332.5 211 1333 203 1333 c 0
 197.666992188 1333 189.666992188 1331.5 179 1328.5 c 0
 168.333007812 1325.5 157.333007812 1322.33300781 146 1319 c 0
 133.333007812 1315 119.666992188 1310.66699219 105 1306 c 0
 86 1385 l 0
 114 1397.66699219 147.833007812 1411.83300781 187.5 1427.5 c 0
 227.166992188 1443.16699219 266.5 1457.83300781 305.5 1471.5 c 0
 344.5 1485.16699219 380.166992188 1496.66699219 412.5 1506 c 0
 444.833007812 1515.33300781 467.666992188 1520 481 1520 c 0
 490.333007812 1520 498.666992188 1519 506 1517 c 0
 513.333007812 1515 519.5 1510.5 524.5 1503.5 c 0
 529.5 1496.5 533.333007812 1486.16699219 536 1472.5 c 0
 538.666992188 1458.83300781 540 1440.33300781 540 1417 c 0
EndSplineSet
EndChar

StartChar: l
Encoding: 79 108 79
Width: 569
VWidth: 1024
Flags: HW
LayerCount: 2
Fore
SplineSet
544 122 m 0
 511.333007812 101.333007812 476.833007812 81.3330078125 440.5 62 c 0
 404.166992188 42.6669921875 368.666992188 25.3330078125 334 10 c 0
 299.333007812 -5.3330078125 266.666992188 -17.6669921875 236 -27 c 0
 205.333007812 -36.3330078125 179 -41 157 -41 c 0
 138.333007812 -41 121.666992188 -31 107 -11 c 0
 92.3330078125 9 85 38.6669921875 85 78 c 0
 85 94.6669921875 87.3330078125 121.833007812 92 159.5 c 0
 96.6669921875 197.166992188 102.833007812 241.833007812 110.5 293.5 c 0
 118.166992188 345.166992188 126.833007812 401.666992188 136.5 463 c 0
 146.166992188 524.333007812 156 587.166992188 166 651.5 c 0
 176 715.833007812 185.833007812 779.666992188 195.5 843 c 0
 205.166992188 906.333007812 213.833007812 965.333007812 221.5 1020 c 0
 229.166992188 1074.66699219 235.333007812 1123.5 240 1166.5 c 0
 244.666992188 1209.5 247 1242.66699219 247 1266 c 0
 247 1281.33300781 245.5 1293.5 242.5 1302.5 c 0
 239.5 1311.5 235.666992188 1318.16699219 231 1322.5 c 0
 226.333007812 1326.83300781 220.833007812 1329.66699219 214.5 1331 c 0
 208.166992188 1332.33300781 202 1333 196 1333 c 0
 190.666992188 1333 182.833007812 1331.5 172.5 1328.5 c 0
 162.166992188 1325.5 151.666992188 1322.33300781 141 1319 c 0
 102 1306 l 0
 82 1385 l 0
 100.666992188 1393 122.166992188 1402 146.5 1412 c 0
 170.833007812 1422 196 1432 222 1442 c 0
 248 1452 274.166992188 1461.66699219 300.5 1471 c 0
 326.833007812 1480.33300781 351.5 1488.66699219 374.5 1496 c 0
 397.5 1503.33300781 417.833007812 1509.16699219 435.5 1513.5 c 0
 453.166992188 1517.83300781 466.666992188 1520 476 1520 c 0
 494.666992188 1520 509.5 1514 520.5 1502 c 0
 531.5 1490 537 1468.66699219 537 1438 c 0
 537 1412 534.666992188 1377.33300781 530 1334 c 0
 525.333007812 1290.66699219 519.166992188 1241.66699219 511.5 1187 c 0
 503.833007812 1132.33300781 495 1073.83300781 485 1011.5 c 0
 475 949.166992188 465 886.166992188 455 822.5 c 0
 445 758.833007812 435 696.166992188 425 634.5 c 0
 415 572.833007812 406.166992188 515.5 398.5 462.5 c 0
 390.833007812 409.5 384.666992188 362.333007812 380 321 c 0
 375.333007812 279.666992188 373 247.666992188 373 225 c 0
 373 202.333007812 376.166992188 186.833007812 382.5 178.5 c 0
 388.833007812 170.166992188 397.333007812 166 408 166 c 0
 423.333007812 166 439.666992188 168.666992188 457 174 c 0
 474.333007812 179.333007812 497.666992188 187.666992188 527 199 c 0
 544 122 l 0
EndSplineSet
EndChar

StartChar: m
Encoding: 80 109 80
Width: 1592
VWidth: 1024
Flags: HW
LayerCount: 2
Fore
SplineSet
1548 122 m 0
 1517.33300781 104 1484.16699219 85.3330078125 1448.5 66 c 0
 1412.83300781 46.6669921875 1378 29.1669921875 1344 13.5 c 0
 1310 -2.1669921875 1278.16699219 -15.1669921875 1248.5 -25.5 c 0
 1218.83300781 -35.8330078125 1194.33300781 -41 1175 -41 c 0
 1165 -41 1155.33300781 -38.3330078125 1146 -33 c 0
 1136.66699219 -27.6669921875 1128.16699219 -19.8330078125 1120.5 -9.5 c 0
 1112.83300781 0.8330078125 1106.66699219 13.1669921875 1102 27.5 c 0
 1097.33300781 41.8330078125 1095 58 1095 76 c 0
 1095 88 1097 107 1101 133 c 0
 1105 159 1110.16699219 189.166992188 1116.5 223.5 c 0
 1122.83300781 257.833007812 1129.5 294.666992188 1136.5 334 c 0
 1143.5 373.333007812 1150.16699219 411.833007812 1156.5 449.5 c 0
 1162.83300781 487.166992188 1168 522.666992188 1172 556 c 0
 1176 589.333007812 1178 617 1178 639 c 0
 1178 665 1174.66699219 684 1168 696 c 0
 1161.33300781 708 1152 714 1140 714 c 0
 1134.66699219 714 1126.83300781 712.666992188 1116.5 710 c 0
 1106.16699219 707.333007812 1094 701.833007812 1080 693.5 c 0
 1066 685.166992188 1050.83300781 673.5 1034.5 658.5 c 0
 1018.16699219 643.5 1001.66699219 624 985 600 c 0
 973.666992188 584 963.666992188 566.666992188 955 548 c 0
 946.333007812 529.333007812 938.333007812 508 931 484 c 0
 923.666992188 460 917 432.5 911 401.5 c 0
 905 370.5 899 335 893 295 c 0
 884.333007812 234.333007812 878.833007812 186.333007812 876.5 151 c 0
 874.166992188 115.666992188 873.666992188 90.3330078125 875 75 c 0
 869 71.6669921875 859.166992188 67 845.5 61 c 0
 831.833007812 55 816.5 48.1669921875 799.5 40.5 c 0
 782.5 32.8330078125 764.5 24.8330078125 745.5 16.5 c 0
 726.5 8.1669921875 708.5 0.3330078125 691.5 -7 c 0
 674.5 -14.3330078125 659.333007812 -21.1669921875 646 -27.5 c 0
 632.666992188 -33.8330078125 623 -38.3330078125 617 -41 c 0
 575 0 l 0
 589.666992188 68 603.333007812 135 616 201 c 0
 628.666992188 267 639.666992188 328.5 649 385.5 c 0
 658.333007812 442.5 665.666992188 493 671 537 c 0
 676.333007812 581 679 615.333007812 679 640 c 0
 679 689.333007812 666 714 640 714 c 0
 636 714 629.166992188 712.666992188 619.5 710 c 0
 609.833007812 707.333007812 598 702 584 694 c 0
 570 686 554.5 674.666992188 537.5 660 c 0
 520.5 645.333007812 503.333007812 626 486 602 c 0
 474.666992188 586 464.333007812 568.333007812 455 549 c 0
 445.666992188 529.666992188 437.166992188 507.666992188 429.5 483 c 0
 421.833007812 458.333007812 414.833007812 430.5 408.5 399.5 c 0
 402.166992188 368.5 396 333.666992188 390 295 c 0
 380.666992188 234.333007812 374.166992188 186.5 370.5 151.5 c 0
 366.833007812 116.5 365.666992188 91 367 75 c 0
 361 71.6669921875 351.5 67 338.5 61 c 0
 325.5 55 310.5 48.1669921875 293.5 40.5 c 0
 276.5 32.8330078125 258.666992188 24.8330078125 240 16.5 c 0
 221.333007812 8.1669921875 203.5 0.3330078125 186.5 -7 c 0
 169.5 -14.3330078125 154.5 -21.1669921875 141.5 -27.5 c 0
 128.5 -33.8330078125 119.333007812 -38.3330078125 114 -41 c 0
 71 0 l 0
 85 70.6669921875 98.1669921875 140.333007812 110.5 209 c 0
 122.833007812 277.666992188 133.666992188 342.166992188 143 402.5 c 0
 152.333007812 462.833007812 159.833007812 517 165.5 565 c 0
 171.166992188 613 174 651.333007812 174 680 c 0
 174 695.333007812 173 707.5 171 716.5 c 0
 169 725.5 166.166992188 732.5 162.5 737.5 c 0
 158.833007812 742.5 154.666992188 745.666992188 150 747 c 0
 145.333007812 748.333007812 140.333007812 749 135 749 c 0
 128.333007812 749 119.666992188 747.666992188 109 745 c 0
 98.3330078125 742.333007812 87.6669921875 739.333007812 77 736 c 0
 38 723 l 0
 21 802 l 0
 39.6669921875 810 60.8330078125 819 84.5 829 c 0
 108.166992188 839 132.5 848.833007812 157.5 858.5 c 0
 182.5 868.166992188 207.666992188 877.666992188 233 887 c 0
 258.333007812 896.333007812 281.833007812 904.666992188 303.5 912 c 0
 325.166992188 919.333007812 344.5 925.166992188 361.5 929.5 c 0
 378.5 933.833007812 391.333007812 936 400 936 c 0
 410 936 418.5 934.333007812 425.5 931 c 0
 432.5 927.666992188 438.166992188 921.833007812 442.5 913.5 c 0
 446.833007812 905.166992188 450 893.5 452 878.5 c 0
 454 863.5 455 844.333007812 455 821 c 0
 455 811.666992188 454.333007812 799.166992188 453 783.5 c 0
 451.666992188 767.833007812 450 752.666992188 448 738 c 0
 487.333007812 777.333007812 524 809.833007812 558 835.5 c 0
 592 861.166992188 624.166992188 881.5 654.5 896.5 c 0
 684.833007812 911.5 713.833007812 921.833007812 741.5 927.5 c 0
 769.166992188 933.166992188 796.666992188 936 824 936 c 0
 848.666992188 936 869.833007812 931.5 887.5 922.5 c 0
 905.166992188 913.5 919.666992188 901.333007812 931 886 c 0
 942.333007812 870.666992188 950.5 853 955.5 833 c 0
 960.5 813 963 792 963 770 c 0
 963 762 l 0
 963 758 962.666992188 753.333007812 962 748 c 0
 1000.66699219 784.666992188 1036 815.166992188 1068 839.5 c 0
 1100 863.833007812 1130 883.166992188 1158 897.5 c 0
 1186 911.833007812 1212.5 921.833007812 1237.5 927.5 c 0
 1262.5 933.166992188 1287.66699219 936 1313 936 c 0
 1332.33300781 936 1350.83300781 932.833007812 1368.5 926.5 c 0
 1386.16699219 920.166992188 1401.5 910 1414.5 896 c 0
 1427.5 882 1437.83300781 863.833007812 1445.5 841.5 c 0
 1453.16699219 819.166992188 1457 792 1457 760 c 0
 1457 722 1453 678 1445 628 c 0
 1437 578 1428 527.666992188 1418 477 c 0
 1408 426.333007812 1399 378.666992188 1391 334 c 0
 1383 289.333007812 1379 253 1379 225 c 0
 1379 202.333007812 1382.33300781 187.166992188 1389 179.5 c 0
 1395.66699219 171.833007812 1404.66699219 168 1416 168 c 0
 1435.33300781 168 1452.83300781 170.5 1468.5 175.5 c 0
 1484.16699219 180.5 1505.66699219 188.333007812 1533 199 c 0
 1548 122 l 0
EndSplineSet
EndChar

StartChar: n
Encoding: 81 110 81
Width: 1103
VWidth: 1024
Flags: HW
LayerCount: 2
Fore
SplineSet
1084 122 m 0
 1054 104 1021.16699219 85.3330078125 985.5 66 c 0
 949.833007812 46.6669921875 914.833007812 29.1669921875 880.5 13.5 c 0
 846.166992188 -2.1669921875 814.166992188 -15.1669921875 784.5 -25.5 c 0
 754.833007812 -35.8330078125 731 -41 713 -41 c 0
 689.666992188 -41 669.833007812 -30.5 653.5 -9.5 c 0
 637.166992188 11.5 629 40 629 76 c 0
 629 88 631 107.666992188 635 135 c 0
 639 162.333007812 644 193.666992188 650 229 c 0
 656 264.333007812 662.333007812 301.666992188 669 341 c 0
 675.666992188 380.333007812 682 418.166992188 688 454.5 c 0
 694 490.833007812 699 523.666992188 703 553 c 0
 707 582.333007812 709 604.666992188 709 620 c 0
 709 656 706.166992188 681 700.5 695 c 0
 694.833007812 709 682.333007812 716 663 716 c 0
 654.333007812 716 643 714 629 710 c 0
 615 706 599.666992188 699 583 689 c 0
 566.333007812 679 548.833007812 665.166992188 530.5 647.5 c 0
 512.166992188 629.833007812 494.333007812 607.333007812 477 580 c 0
 457 548 441.5 509.666992188 430.5 465 c 0
 419.5 420.333007812 408.333007812 365.666992188 397 301 c 0
 391.666992188 271 387.333007812 245.166992188 384 223.5 c 0
 380.666992188 201.833007812 378.166992188 182.5 376.5 165.5 c 0
 374.833007812 148.5 373.833007812 132.833007812 373.5 118.5 c 0
 373.166992188 104.166992188 373.333007812 89.6669921875 374 75 c 0
 368 71.6669921875 358.5 67 345.5 61 c 0
 332.5 55 317.5 48.1669921875 300.5 40.5 c 0
 283.5 32.8330078125 265.666992188 24.8330078125 247 16.5 c 0
 228.333007812 8.1669921875 210.5 0.3330078125 193.5 -7 c 0
 176.5 -14.3330078125 161.5 -21.1669921875 148.5 -27.5 c 0
 135.5 -33.8330078125 126.333007812 -38.3330078125 121 -41 c 0
 78 0 l 0
 92 66.6669921875 105.166992188 135.166992188 117.5 205.5 c 0
 129.833007812 275.833007812 140.833007812 342.5 150.5 405.5 c 0
 160.166992188 468.5 167.833007812 524.5 173.5 573.5 c 0
 179.166992188 622.5 182 658.666992188 182 682 c 0
 182 697.333007812 181.166992188 709.5 179.5 718.5 c 0
 177.833007812 727.5 175.333007812 734.166992188 172 738.5 c 0
 168.666992188 742.833007812 164.666992188 745.666992188 160 747 c 0
 155.333007812 748.333007812 150 749 144 749 c 0
 138 749 129.666992188 747.666992188 119 745 c 0
 108.333007812 742.333007812 97.6669921875 739.333007812 87 736 c 0
 75 732 61.6669921875 727.666992188 47 723 c 0
 27 802 l 0
 45.6669921875 810 67.1669921875 819 91.5 829 c 0
 115.833007812 839 141 848.833007812 167 858.5 c 0
 193 868.166992188 219 877.666992188 245 887 c 0
 271 896.333007812 295.166992188 904.666992188 317.5 912 c 0
 339.833007812 919.333007812 359.166992188 925.166992188 375.5 929.5 c 0
 391.833007812 933.833007812 403.666992188 936 411 936 c 0
 420.333007812 936 428.166992188 934.5 434.5 931.5 c 0
 440.833007812 928.5 445.833007812 923 449.5 915 c 0
 453.166992188 907 455.833007812 895.666992188 457.5 881 c 0
 459.166992188 866.333007812 460 847 460 823 c 0
 460 809 459.666992188 795.5 459 782.5 c 0
 458.333007812 769.5 457 754.666992188 455 738 c 0
 527.666992188 804.666992188 599 854.333007812 669 887 c 0
 739 919.666992188 804 936 864 936 c 0
 884.666992188 936 903.333007812 934 920 930 c 0
 936.666992188 926 950.833007812 918.5 962.5 907.5 c 0
 974.166992188 896.5 983 880.833007812 989 860.5 c 0
 995 840.166992188 998 814 998 782 c 0
 998 758.666992188 996 731.333007812 992 700 c 0
 988 668.666992188 982.833007812 635.5 976.5 600.5 c 0
 970.166992188 565.5 963.333007812 529.666992188 956 493 c 0
 948.666992188 456.333007812 941.833007812 421.333007812 935.5 388 c 0
 929.166992188 354.666992188 924 323.833007812 920 295.5 c 0
 916 267.166992188 914 243.666992188 914 225 c 0
 914 202.333007812 917 186.833007812 923 178.5 c 0
 929 170.166992188 938 166 950 166 c 0
 958 166 965.333007812 166.666992188 972 168 c 0
 978.666992188 169.333007812 985.666992188 171.333007812 993 174 c 0
 1000.33300781 176.666992188 1008.83300781 180 1018.5 184 c 0
 1028.16699219 188 1040 193 1054 199 c 0
 1084 122 l 0
EndSplineSet
EndChar

StartChar: o
Encoding: 82 111 82
Width: 924
VWidth: 1024
Flags: HW
LayerCount: 2
Fore
SplineSet
891 559 m 0
 891 514.333007812 885 469.166992188 873 423.5 c 0
 861 377.833007812 844.166992188 333.5 822.5 290.5 c 0
 800.833007812 247.5 774.666992188 206.5 744 167.5 c 0
 713.333007812 128.5 679.333007812 93.6669921875 642 63 c 0
 624.666992188 49 605 35.6669921875 583 23 c 0
 561 10.3330078125 538.333007812 -0.8330078125 515 -10.5 c 0
 491.666992188 -20.1669921875 468.5 -27.6669921875 445.5 -33 c 0
 422.5 -38.3330078125 401 -41 381 -41 c 0
 327 -41 278.5 -31.1669921875 235.5 -11.5 c 0
 192.5 8.1669921875 156 35.1669921875 126 69.5 c 0
 96 103.833007812 73 144.5 57 191.5 c 0
 41 238.5 33 289.333007812 33 344 c 0
 33 439.333007812 53 528.833007812 93 612.5 c 0
 133 696.166992188 197.666992188 772 287 840 c 0
 304.333007812 853.333007812 323.833007812 865.833007812 345.5 877.5 c 0
 367.166992188 889.166992188 389.833007812 899.333007812 413.5 908 c 0
 437.166992188 916.666992188 461.166992188 923.5 485.5 928.5 c 0
 509.833007812 933.5 533.666992188 936 557 936 c 0
 609 936 655.666992188 926.666992188 697 908 c 0
 738.333007812 889.333007812 773.333007812 863.333007812 802 830 c 0
 830.666992188 796.666992188 852.666992188 757 868 711 c 0
 883.333007812 665 891 614.333007812 891 559 c 0
628 473 m 0
 628 523.666992188 623.833007812 568.666992188 615.5 608 c 0
 607.166992188 647.333007812 596.333007812 680.333007812 583 707 c 0
 569.666992188 733.666992188 554.666992188 754 538 768 c 0
 521.333007812 782 504.666992188 789 488 789 c 0
 452 789 421.833007812 778.166992188 397.5 756.5 c 0
 373.166992188 734.833007812 353.5 706.666992188 338.5 672 c 0
 323.5 637.333007812 312.833007812 598.666992188 306.5 556 c 0
 300.166992188 513.333007812 297 470.666992188 297 428 c 0
 297 383.333007812 301.5 341.333007812 310.5 302 c 0
 319.5 262.666992188 331.166992188 228.166992188 345.5 198.5 c 0
 359.833007812 168.833007812 376.166992188 145.333007812 394.5 128 c 0
 412.833007812 110.666992188 431 102 449 102 c 0
 482.333007812 102 510.5 113.666992188 533.5 137 c 0
 556.5 160.333007812 575 190 589 226 c 0
 603 262 613 301.833007812 619 345.5 c 0
 625 389.166992188 628 431.666992188 628 473 c 0
EndSplineSet
EndChar

StartChar: p
Encoding: 83 112 83
Width: 1045
VWidth: 1024
Flags: HW
LayerCount: 2
Fore
SplineSet
448 870 m 0
 448 857.333007812 447 841.5 445 822.5 c 0
 443 803.5 440.333007812 780.666992188 437 754 c 0
 471.666992188 790.666992188 503.333007812 820.666992188 532 844 c 0
 560.666992188 867.333007812 587.833007812 885.833007812 613.5 899.5 c 0
 639.166992188 913.166992188 663.5 922.666992188 686.5 928 c 0
 709.5 933.333007812 732.666992188 936 756 936 c 0
 786.666992188 936 815.833007812 929.333007812 843.5 916 c 0
 871.166992188 902.666992188 895.5 882.833007812 916.5 856.5 c 0
 937.5 830.166992188 954.166992188 797.833007812 966.5 759.5 c 0
 978.833007812 721.166992188 985 677 985 627 c 0
 985 585.666992188 981 543.333007812 973 500 c 0
 965 456.666992188 954.5 414.166992188 941.5 372.5 c 0
 928.5 330.833007812 913.666992188 291.666992188 897 255 c 0
 880.333007812 218.333007812 863.333007812 186 846 158 c 0
 830.666992188 134 813.333007812 110 794 86 c 0
 774.666992188 62 753.833007812 40.6669921875 731.5 22 c 0
 709.166992188 3.3330078125 685.333007812 -11.8330078125 660 -23.5 c 0
 634.666992188 -35.1669921875 608.666992188 -41 582 -41 c 0
 566.666992188 -41 549.166992188 -37.6669921875 529.5 -31 c 0
 509.833007812 -24.3330078125 489.166992188 -14 467.5 0 c 0
 445.833007812 14 423.666992188 31.6669921875 401 53 c 0
 378.333007812 74.3330078125 356.333007812 99.6669921875 335 129 c 0
 315 6 l 0
 303.666992188 -62.6669921875 294.666992188 -120.5 288 -167.5 c 0
 281.333007812 -214.5 276.5 -253.5 273.5 -284.5 c 0
 270.5 -315.5 269.333007812 -339.666992188 270 -357 c 0
 270.666992188 -374.333007812 272.666992188 -387.666992188 276 -397 c 0
 269.333007812 -399 259.166992188 -402.333007812 245.5 -407 c 0
 231.833007812 -411.666992188 216.333007812 -417.5 199 -424.5 c 0
 181.666992188 -431.5 163.5 -438.833007812 144.5 -446.5 c 0
 125.5 -454.166992188 107.5 -461.5 90.5 -468.5 c 0
 73.5 -475.5 58.3330078125 -481.833007812 45 -487.5 c 0
 31.6669921875 -493.166992188 22 -497.333007812 16 -500 c 0
 -26 -461 l 0
 -23.3330078125 -441.666992188 -18.6669921875 -413 -12 -375 c 0
 -5.3330078125 -337 2.5 -292.666992188 11.5 -242 c 0
 20.5 -191.333007812 30.5 -136.5 41.5 -77.5 c 0
 52.5 -18.5 63.5 41.6669921875 74.5 103 c 0
 85.5 164.333007812 96.1669921875 224.833007812 106.5 284.5 c 0
 116.833007812 344.166992188 126 399.833007812 134 451.5 c 0
 142 503.166992188 148.333007812 548.833007812 153 588.5 c 0
 157.666992188 628.166992188 160 658.666992188 160 680 c 0
 160 695.333007812 158.666992188 707.5 156 716.5 c 0
 153.333007812 725.5 149.666992188 732.166992188 145 736.5 c 0
 140.333007812 740.833007812 135.333007812 743.666992188 130 745 c 0
 124.666992188 746.333007812 119 747 113 747 c 0
 107 747 98.8330078125 745.833007812 88.5 743.5 c 0
 78.1669921875 741.166992188 68.3330078125 738.333007812 59 735 c 0
 47 731.666992188 35 727.666992188 23 723 c 0
 4 800 l 0
 34 814 68.5 829 107.5 845 c 0
 146.5 861 184.833007812 875.833007812 222.5 889.5 c 0
 260.166992188 903.166992188 294.333007812 914.333007812 325 923 c 0
 355.666992188 931.666992188 377.666992188 936 391 936 c 0
 409.666992188 936 423.833007812 931.5 433.5 922.5 c 0
 443.166992188 913.5 448 896 448 870 c 0
630 745 m 0
 620 745 606.5 740.5 589.5 731.5 c 0
 572.5 722.5 553.666992188 709 533 691 c 0
 512.333007812 673 490.5 650.5 467.5 623.5 c 0
 444.5 596.5 422.666992188 565 402 529 c 0
 396.666992188 493.666992188 390.333007812 455.333007812 383 414 c 0
 375.666992188 372.666992188 368 328 360 280 c 0
 372 264.666992188 386.5 250.666992188 403.5 238 c 0
 420.5 225.333007812 438.166992188 214.333007812 456.5 205 c 0
 474.833007812 195.666992188 492.666992188 188.5 510 183.5 c 0
 527.333007812 178.5 542.666992188 176 556 176 c 0
 582 176 605.333007812 184 626 200 c 0
 646.666992188 216 662.666992188 235.666992188 674 259 c 0
 688 289 699 327 707 373 c 0
 715 419 719 468.666992188 719 522 c 0
 719 554 716.5 583.5 711.5 610.5 c 0
 706.5 637.5 699.666992188 661 691 681 c 0
 682.333007812 701 672.666992188 716.666992188 662 728 c 0
 651.333007812 739.333007812 640.666992188 745 630 745 c 0
EndSplineSet
EndChar

StartChar: q
Encoding: 84 113 84
Width: 973
VWidth: 1024
Flags: HW
LayerCount: 2
Fore
SplineSet
970 861 m 0
 958.666992188 851.666992188 948.666992188 843.333007812 940 836 c 0
 931.333007812 828.666992188 923.833007812 820.166992188 917.5 810.5 c 0
 911.166992188 800.833007812 905.333007812 789 900 775 c 0
 894.666992188 761 890 742.666992188 886 720 c 0
 871.333007812 631.333007812 857 544.333007812 843 459 c 0
 829 373.666992188 816 292 804 214 c 0
 792 136 781.333007812 63.1669921875 772 -4.5 c 0
 762.666992188 -72.1669921875 755.666992188 -132.666992188 751 -186 c 0
 746.333007812 -239.333007812 744.166992188 -284.166992188 744.5 -320.5 c 0
 744.833007812 -356.833007812 748.666992188 -382.333007812 756 -397 c 0
 750 -399 740.166992188 -402.5 726.5 -407.5 c 0
 712.833007812 -412.5 697.166992188 -418.5 679.5 -425.5 c 0
 661.833007812 -432.5 643.166992188 -439.666992188 623.5 -447 c 0
 603.833007812 -454.333007812 585.333007812 -461.5 568 -468.5 c 0
 550.666992188 -475.5 535.166992188 -481.833007812 521.5 -487.5 c 0
 507.833007812 -493.166992188 498.333007812 -497.333007812 493 -500 c 0
 448 -461 l 0
 450.666992188 -439 455 -408.333007812 461 -369 c 0
 467 -329.666992188 474.166992188 -283.833007812 482.5 -231.5 c 0
 490.833007812 -179.166992188 500 -121.666992188 510 -59 c 0
 520 3.6669921875 530.666992188 69 542 137 c 0
 512 103 484.5 74.6669921875 459.5 52 c 0
 434.5 29.3330078125 411.166992188 11 389.5 -3 c 0
 367.833007812 -17 347 -26.8330078125 327 -32.5 c 0
 307 -38.1669921875 286.666992188 -41 266 -41 c 0
 241.333007812 -41 215.333007812 -34.6669921875 188 -22 c 0
 160.666992188 -9.3330078125 135.5 10.8330078125 112.5 38.5 c 0
 89.5 66.1669921875 70.5 101.833007812 55.5 145.5 c 0
 40.5 189.166992188 33 242.333007812 33 305 c 0
 33 357.666992188 39.8330078125 409.5 53.5 460.5 c 0
 67.1669921875 511.5 87 560.166992188 113 606.5 c 0
 139 652.833007812 170.5 696 207.5 736 c 0
 244.5 776 286.666992188 811.333007812 334 842 c 0
 352.666992188 854 374.666992188 865.666992188 400 877 c 0
 425.333007812 888.333007812 451.666992188 898.333007812 479 907 c 0
 506.333007812 915.666992188 533.333007812 922.666992188 560 928 c 0
 586.666992188 933.333007812 610.666992188 936 632 936 c 0
 660 936 688 929.5 716 916.5 c 0
 744 903.5 770.333007812 889 795 873 c 0
 819.666992188 885 844.166992188 896.333007812 868.5 907 c 0
 892.833007812 917.666992188 914 927.333007812 932 936 c 0
 970 861 l 0
378 176 m 0
 385.333007812 176 394.833007812 178.833007812 406.5 184.5 c 0
 418.166992188 190.166992188 432.333007812 200.166992188 449 214.5 c 0
 465.666992188 228.833007812 484.833007812 248 506.5 272 c 0
 528.166992188 296 552.666992188 326.333007812 580 363 c 0
 637 710 l 0
 617.666992188 728.666992188 598.166992188 745.166992188 578.5 759.5 c 0
 558.833007812 773.833007812 540 781 522 781 c 0
 494.666992188 781 469.833007812 774.666992188 447.5 762 c 0
 425.166992188 749.333007812 405.166992188 732.5 387.5 711.5 c 0
 369.833007812 690.5 354.333007812 666.333007812 341 639 c 0
 327.666992188 611.666992188 316.666992188 583.166992188 308 553.5 c 0
 299.333007812 523.833007812 292.833007812 493.833007812 288.5 463.5 c 0
 284.166992188 433.166992188 282 405 282 379 c 0
 282 343.666992188 284.666992188 313.166992188 290 287.5 c 0
 295.333007812 261.833007812 302.5 240.666992188 311.5 224 c 0
 320.5 207.333007812 330.833007812 195.166992188 342.5 187.5 c 0
 354.166992188 179.833007812 366 176 378 176 c 0
EndSplineSet
EndChar

StartChar: r
Encoding: 85 114 85
Width: 872
VWidth: 1024
Flags: HW
LayerCount: 2
Fore
SplineSet
933 850 m 0
 927.666992188 842.666992188 920.666992188 831.833007812 912 817.5 c 0
 903.333007812 803.166992188 894 787.333007812 884 770 c 0
 874 752.666992188 863.5 734.833007812 852.5 716.5 c 0
 841.5 698.166992188 831.166992188 681.5 821.5 666.5 c 0
 811.833007812 651.5 803 639.166992188 795 629.5 c 0
 787 619.833007812 781 615 777 615 c 0
 764.333007812 615 752 619.166992188 740 627.5 c 0
 728 635.833007812 716.166992188 644.833007812 704.5 654.5 c 0
 692.833007812 664.166992188 681.666992188 673.166992188 671 681.5 c 0
 660.333007812 689.833007812 650 694 640 694 c 0
 622.666992188 694 603.5 686.833007812 582.5 672.5 c 0
 561.5 658.166992188 540.666992188 637.5 520 610.5 c 0
 499.333007812 583.5 479.666992188 550.833007812 461 512.5 c 0
 442.333007812 474.166992188 426 431 412 383 c 0
 398 333 386.5 282.5 377.5 231.5 c 0
 368.5 180.5 365 128.333007812 367 75 c 0
 355.666992188 70.3330078125 337.666992188 62.5 313 51.5 c 0
 288.333007812 40.5 262.666992188 28.8330078125 236 16.5 c 0
 209.333007812 4.1669921875 184.333007812 -7.3330078125 161 -18 c 0
 137.666992188 -28.6669921875 122 -36.3330078125 114 -41 c 0
 71 0 l 0
 85.6669921875 70.6669921875 99.3330078125 140.333007812 112 209 c 0
 124.666992188 277.666992188 135.5 341.833007812 144.5 401.5 c 0
 153.5 461.166992188 160.666992188 515 166 563 c 0
 171.333007812 611 174 650 174 680 c 0
 174 695.333007812 172.833007812 707.5 170.5 716.5 c 0
 168.166992188 725.5 165.166992188 732.166992188 161.5 736.5 c 0
 157.833007812 740.833007812 153.5 743.666992188 148.5 745 c 0
 143.5 746.333007812 138.333007812 747 133 747 c 0
 126.333007812 747 117.833007812 745.833007812 107.5 743.5 c 0
 97.1669921875 741.166992188 87 738.333007812 77 735 c 0
 65 731.666992188 52.6669921875 727.666992188 40 723 c 0
 21 800 l 0
 39.6669921875 808.666992188 61 818 85 828 c 0
 109 838 133.666992188 848 159 858 c 0
 184.333007812 868 209.666992188 877.666992188 235 887 c 0
 260.333007812 896.333007812 284 904.666992188 306 912 c 0
 328 919.333007812 347.666992188 925.166992188 365 929.5 c 0
 382.333007812 933.833007812 395.333007812 936 404 936 c 0
 422.666992188 936 435.5 929.333007812 442.5 916 c 0
 449.5 902.666992188 453 877.666992188 453 841 c 0
 453 833.666992188 452.666992188 824.5 452 813.5 c 0
 451.333007812 802.5 450.166992188 790.5 448.5 777.5 c 0
 446.833007812 764.5 445.166992188 751.166992188 443.5 737.5 c 0
 441.833007812 723.833007812 440 710.666992188 438 698 c 0
 470 746 499.833007812 785.5 527.5 816.5 c 0
 555.166992188 847.5 581.166992188 871.833007812 605.5 889.5 c 0
 629.833007812 907.166992188 653 919.333007812 675 926 c 0
 697 932.666992188 718.666992188 936 740 936 c 0
 752 936 766 932.666992188 782 926 c 0
 798 919.333007812 814.666992188 911.333007812 832 902 c 0
 849.333007812 892.666992188 866.833007812 883.166992188 884.5 873.5 c 0
 902.166992188 863.833007812 918.333007812 856 933 850 c 0
EndSplineSet
EndChar

StartChar: s
Encoding: 86 115 86
Width: 811
VWidth: 1024
Flags: HW
LayerCount: 2
Fore
SplineSet
818 844 m 0
 807.333007812 828.666992188 794.5 811.166992188 779.5 791.5 c 0
 764.5 771.833007812 749.5 753 734.5 735 c 0
 719.5 717 705.333007812 701.833007812 692 689.5 c 0
 678.666992188 677.166992188 668.333007812 671 661 671 c 0
 649.666992188 671 637 678.333007812 623 693 c 0
 609 707.666992188 593.166992188 723.833007812 575.5 741.5 c 0
 557.833007812 759.166992188 538.666992188 775.333007812 518 790 c 0
 497.333007812 804.666992188 474.666992188 812 450 812 c 0
 412.666992188 812 386.333007812 803.5 371 786.5 c 0
 355.666992188 769.5 348 747 348 719 c 0
 348 702.333007812 351.666992188 687.166992188 359 673.5 c 0
 366.333007812 659.833007812 377.166992188 646.833007812 391.5 634.5 c 0
 405.833007812 622.166992188 423.5 610 444.5 598 c 0
 465.5 586 489.333007812 573 516 559 c 0
 543.333007812 545 570.166992188 529.666992188 596.5 513 c 0
 622.833007812 496.333007812 646.166992188 477.166992188 666.5 455.5 c 0
 686.833007812 433.833007812 703.333007812 409.5 716 382.5 c 0
 728.666992188 355.5 735 324.333007812 735 289 c 0
 735 258.333007812 728.166992188 228.833007812 714.5 200.5 c 0
 700.833007812 172.166992188 682.333007812 145.833007812 659 121.5 c 0
 635.666992188 97.1669921875 608.833007812 75 578.5 55 c 0
 548.166992188 35 516.666992188 17.8330078125 484 3.5 c 0
 451.333007812 -10.8330078125 418.333007812 -21.8330078125 385 -29.5 c 0
 351.666992188 -37.1669921875 320.666992188 -41 292 -41 c 0
 246 -41 203.666992188 -35.3330078125 165 -24 c 0
 126.333007812 -12.6669921875 93 1.1669921875 65 17.5 c 0
 37 33.8330078125 15.1669921875 51.1669921875 -0.5 69.5 c 0
 -16.1669921875 87.8330078125 -24 104 -24 118 c 0
 -24 128 -19 144.166992188 -9 166.5 c 0
 1 188.833007812 12.8330078125 211.666992188 26.5 235 c 0
 40.1669921875 258.333007812 53.6669921875 278.833007812 67 296.5 c 0
 80.3330078125 314.166992188 90.6669921875 323 98 323 c 0
 104 323 110.666992188 317.333007812 118 306 c 0
 125.333007812 294.666992188 133.833007812 280.666992188 143.5 264 c 0
 153.166992188 247.333007812 164.166992188 229 176.5 209 c 0
 188.833007812 189 203.5 170.666992188 220.5 154 c 0
 237.5 137.333007812 256.666992188 123.333007812 278 112 c 0
 299.333007812 100.666992188 324 95 352 95 c 0
 394 95 426.5 105.666992188 449.5 127 c 0
 472.5 148.333007812 484 177 484 213 c 0
 484 235 478.166992188 255.5 466.5 274.5 c 0
 454.833007812 293.5 439.333007812 311.333007812 420 328 c 0
 400.666992188 344.666992188 378.833007812 360.166992188 354.5 374.5 c 0
 330.166992188 388.833007812 305.666992188 402.666992188 281 416 c 0
 245.666992188 434 216.5 452.5 193.5 471.5 c 0
 170.5 490.5 152.333007812 509.833007812 139 529.5 c 0
 125.666992188 549.166992188 116.333007812 569.333007812 111 590 c 0
 105.666992188 610.666992188 103 631.666992188 103 653 c 0
 103 695 116 733.333007812 142 768 c 0
 168 802.666992188 200.666992188 832.5 240 857.5 c 0
 279.333007812 882.5 322.5 901.833007812 369.5 915.5 c 0
 416.5 929.166992188 461 936 503 936 c 0
 539 936 571.5 931.833007812 600.5 923.5 c 0
 629.5 915.166992188 656.333007812 905.833007812 681 895.5 c 0
 705.666992188 885.166992188 729 875 751 865 c 0
 773 855 795.333007812 848 818 844 c 0
EndSplineSet
EndChar

StartChar: t
Encoding: 87 116 87
Width: 714
VWidth: 1024
Flags: HW
LayerCount: 2
Fore
SplineSet
690 167 m 0
 652 137 614 109.166992188 576 83.5 c 0
 538 57.8330078125 501.5 35.8330078125 466.5 17.5 c 0
 431.5 -0.8330078125 399.5 -15.1669921875 370.5 -25.5 c 0
 341.5 -35.8330078125 317 -41 297 -41 c 0
 275.666992188 -41 254 -36 232 -26 c 0
 210 -16 190.166992188 -2.1669921875 172.5 15.5 c 0
 154.833007812 33.1669921875 140.333007812 54.3330078125 129 79 c 0
 117.666992188 103.666992188 112 130.666992188 112 160 c 0
 112 172.666992188 112.166992188 185.333007812 112.5 198 c 0
 112.833007812 210.666992188 113.5 223.833007812 114.5 237.5 c 0
 115.5 251.166992188 116.833007812 265.666992188 118.5 281 c 0
 120.166992188 296.333007812 122.666992188 313.333007812 126 332 c 0
 196 775 l 0
 64 775 l 0
 39 816 l 0
 165 905 l 0
 217 905 l 0
 223 940 l 0
 227 967.333007812 231.166992188 988.333007812 235.5 1003 c 0
 239.833007812 1017.66699219 244.833007812 1029.16699219 250.5 1037.5 c 0
 256.166992188 1045.83300781 262.333007812 1052.33300781 269 1057 c 0
 275.666992188 1061.66699219 283.333007812 1067.33300781 292 1074 c 0
 513 1176 l 0
 541 1151 l 0
 535.666992188 1145 530.333007812 1134.33300781 525 1119 c 0
 519.666992188 1105.66699219 514.166992188 1086.66699219 508.5 1062 c 0
 502.833007812 1037.33300781 496.666992188 1004.33300781 490 963 c 0
 480 905 l 0
 720 905 l 0
 750 867 l 0
 743.333007812 857.666992188 733.333007812 846 720 832 c 0
 706.666992188 818 692.666992188 804 678 790 c 0
 663.333007812 776 649.5 763.333007812 636.5 752 c 0
 623.5 740.666992188 614 733.333007812 608 730 c 0
 600 748.666992188 584.166992188 760.833007812 560.5 766.5 c 0
 536.833007812 772.166992188 505 775 465 775 c 0
 460 775 l 0
 408 446 l 0
 406 433.333007812 404.166992188 419.833007812 402.5 405.5 c 0
 400.833007812 391.166992188 399.5 377.5 398.5 364.5 c 0
 397.5 351.5 396.833007812 339.333007812 396.5 328 c 0
 396.166992188 316.666992188 396 307.666992188 396 301 c 0
 396 259.666992188 401.666992188 230.833007812 413 214.5 c 0
 424.333007812 198.166992188 439.333007812 190 458 190 c 0
 481.333007812 190 508.333007812 195 539 205 c 0
 569.666992188 215 610 231.333007812 660 254 c 0
 690 167 l 0
EndSplineSet
EndChar

StartChar: u
Encoding: 88 117 88
Width: 1127
VWidth: 1024
Flags: HW
LayerCount: 2
Fore
SplineSet
1100 118 m 0
 1073.33300781 100 1045.83300781 81.6669921875 1017.5 63 c 0
 989.166992188 44.3330078125 961.666992188 27.1669921875 935 11.5 c 0
 908.333007812 -4.1669921875 883.166992188 -16.8330078125 859.5 -26.5 c 0
 835.833007812 -36.1669921875 815.333007812 -41 798 -41 c 0
 782.666992188 -41 767.166992188 -36.3330078125 751.5 -27 c 0
 735.833007812 -17.6669921875 721.333007812 -3.6669921875 708 15 c 0
 694.666992188 33.6669921875 683 57 673 85 c 0
 663 113 656 145.333007812 652 182 c 0
 626.666992188 150 599.166992188 120.333007812 569.5 93 c 0
 539.833007812 65.6669921875 509.166992188 42.1669921875 477.5 22.5 c 0
 445.833007812 2.8330078125 414.333007812 -12.6669921875 383 -24 c 0
 351.666992188 -35.3330078125 321.666992188 -41 293 -41 c 0
 272.333007812 -41 251 -35.8330078125 229 -25.5 c 0
 207 -15.1669921875 186.833007812 0.3330078125 168.5 21 c 0
 150.166992188 41.6669921875 135.166992188 67.3330078125 123.5 98 c 0
 111.833007812 128.666992188 106 164.333007812 106 205 c 0
 106 225 107.5 248.333007812 110.5 275 c 0
 113.5 301.666992188 117.5 329.833007812 122.5 359.5 c 0
 127.5 389.166992188 132.666992188 419.5 138 450.5 c 0
 143.333007812 481.5 148.5 511.333007812 153.5 540 c 0
 158.5 568.666992188 162.5 595.166992188 165.5 619.5 c 0
 168.5 643.833007812 170 664 170 680 c 0
 170 695.333007812 169 707.5 167 716.5 c 0
 165 725.5 162.166992188 732.166992188 158.5 736.5 c 0
 154.833007812 740.833007812 150.5 743.666992188 145.5 745 c 0
 140.5 746.333007812 135 747 129 747 c 0
 123 747 114.833007812 745.833007812 104.5 743.5 c 0
 94.1669921875 741.166992188 84 738.333007812 74 735 c 0
 62 731.666992188 49.3330078125 727.666992188 36 723 c 0
 19 800 l 0
 37.6669921875 808.666992188 59.1669921875 818 83.5 828 c 0
 107.833007812 838 133 848 159 858 c 0
 185 868 211 877.666992188 237 887 c 0
 263 896.333007812 287.333007812 904.666992188 310 912 c 0
 332.666992188 919.333007812 352.833007812 925.166992188 370.5 929.5 c 0
 388.166992188 933.833007812 401.333007812 936 410 936 c 0
 429.333007812 936 442.333007812 929.666992188 449 917 c 0
 455.666992188 904.333007812 459 882.666992188 459 852 c 0
 459 832.666992188 457 807.5 453 776.5 c 0
 449 745.5 444 711.833007812 438 675.5 c 0
 432 639.166992188 425.666992188 601.333007812 419 562 c 0
 412.333007812 522.666992188 406 484.833007812 400 448.5 c 0
 394 412.166992188 389 378.5 385 347.5 c 0
 381 316.5 379 291.333007812 379 272 c 0
 379 243.333007812 384.166992188 220.833007812 394.5 204.5 c 0
 404.833007812 188.166992188 414.666992188 180 424 180 c 0
 445.333007812 180 476.5 196.5 517.5 229.5 c 0
 558.5 262.5 606.666992188 316 662 390 c 0
 666 416.666992188 670.5 444 675.5 472 c 0
 680.5 500 685 526.833007812 689 552.5 c 0
 693 578.166992188 696.5 602 699.5 624 c 0
 702.5 646 704 664.666992188 704 680 c 0
 704 695.333007812 703.166992188 707.5 701.5 716.5 c 0
 699.833007812 725.5 697.333007812 732.166992188 694 736.5 c 0
 690.666992188 740.833007812 686.833007812 743.666992188 682.5 745 c 0
 678.166992188 746.333007812 673 747 667 747 c 0
 661 747 653.333007812 745.833007812 644 743.5 c 0
 634.666992188 741.166992188 625.333007812 738.333007812 616 735 c 0
 605.333007812 731.666992188 594.333007812 727.666992188 583 723 c 0
 563 800 l 0
 581.666992188 808.666992188 602.833007812 818 626.5 828 c 0
 650.166992188 838 674.833007812 848 700.5 858 c 0
 726.166992188 868 751.666992188 877.666992188 777 887 c 0
 802.333007812 896.333007812 826 904.666992188 848 912 c 0
 870 919.333007812 889.666992188 925.166992188 907 929.5 c 0
 924.333007812 933.833007812 937.333007812 936 946 936 c 0
 964.666992188 936 977 929.666992188 983 917 c 0
 989 904.333007812 992 882.666992188 992 852 c 0
 992 832.666992188 990.333007812 809.166992188 987 781.5 c 0
 983.666992188 753.833007812 979.333007812 724 974 692 c 0
 957 593 l 0
 951.666992188 559 946.333007812 525.666992188 941 493 c 0
 935.666992188 460.333007812 931.333007812 429.5 928 400.5 c 0
 924.666992188 371.5 923 346 923 324 c 0
 923 294 924.166992188 268.833007812 926.5 248.5 c 0
 928.833007812 228.166992188 932.333007812 211.833007812 937 199.5 c 0
 941.666992188 187.166992188 947.333007812 178.5 954 173.5 c 0
 960.666992188 168.5 968 166 976 166 c 0
 993.333007812 166 1009.16699219 168.166992188 1023.5 172.5 c 0
 1037.83300781 176.833007812 1057 184 1081 194 c 0
 1100 118 l 0
EndSplineSet
EndChar

StartChar: v
Encoding: 89 118 89
Width: 998
VWidth: 1024
Flags: HW
LayerCount: 2
Fore
SplineSet
998 852 m 0
 998 830.666992188 990.333007812 801.666992188 975 765 c 0
 959.666992188 728.333007812 934.5 679 899.5 617 c 0
 864.5 555 819 478.166992188 763 386.5 c 0
 707 294.833007812 638 183.333007812 556 52 c 0
 550 48.6669921875 538.166992188 42.6669921875 520.5 34 c 0
 502.833007812 25.3330078125 483.666992188 15.8330078125 463 5.5 c 0
 442.333007812 -4.8330078125 422.833007812 -14.5 404.5 -23.5 c 0
 386.166992188 -32.5 373.666992188 -38.3330078125 367 -41 c 0
 325 0 l 0
 319.666992188 37.3330078125 313.666992188 76.6669921875 307 118 c 0
 300.333007812 159.333007812 293.166992188 200.833007812 285.5 242.5 c 0
 277.833007812 284.166992188 269.833007812 325.333007812 261.5 366 c 0
 253.166992188 406.666992188 245 445 237 481 c 0
 229 517 221.333007812 550 214 580 c 0
 206.666992188 610 200 635 194 655 c 0
 188.666992188 673 183 687.333007812 177 698 c 0
 171 708.666992188 164.833007812 717 158.5 723 c 0
 152.166992188 729 146 732.833007812 140 734.5 c 0
 134 736.166992188 128 737 122 737 c 0
 115.333007812 737 106.666992188 735.833007812 96 733.5 c 0
 85.3330078125 731.166992188 74.6669921875 728.333007812 64 725 c 0
 52 721.666992188 38.6669921875 717.666992188 24 713 c 0
 -4 790 l 0
 24 804.666992188 55.1669921875 820.5 89.5 837.5 c 0
 123.833007812 854.5 157 870.333007812 189 885 c 0
 221 899.666992188 249.833007812 911.833007812 275.5 921.5 c 0
 301.166992188 931.166992188 319.333007812 936 330 936 c 0
 349.333007812 936 365.5 926.5 378.5 907.5 c 0
 391.5 888.5 405.333007812 855.666992188 420 809 c 0
 425.333007812 791.666992188 431.666992188 767.5 439 736.5 c 0
 446.333007812 705.5 453.833007812 671.166992188 461.5 633.5 c 0
 469.166992188 595.833007812 476.833007812 556.833007812 484.5 516.5 c 0
 492.166992188 476.166992188 499 438.666992188 505 404 c 0
 511 369.333007812 516.166992188 339.166992188 520.5 313.5 c 0
 524.833007812 287.833007812 527.333007812 270.666992188 528 262 c 0
 572.666992188 332 607.833007812 392.666992188 633.5 444 c 0
 659.166992188 495.333007812 678.333007812 538.5 691 573.5 c 0
 703.666992188 608.5 711.5 636 714.5 656 c 0
 717.5 676 719 689.666992188 719 697 c 0
 719 715 715 728 707 736 c 0
 699 744 685.666992188 748 667 748 c 0
 655.666992188 748 644.833007812 746.833007812 634.5 744.5 c 0
 624.166992188 742.166992188 611.666992188 738.333007812 597 733 c 0
 574 808 l 0
 595.333007812 820 622 833.666992188 654 849 c 0
 686 864.333007812 718.5 878.5 751.5 891.5 c 0
 784.5 904.5 815.833007812 915.333007812 845.5 924 c 0
 875.166992188 932.666992188 898 936.666992188 914 936 c 0
 925.333007812 935.333007812 936.166992188 933.666992188 946.5 931 c 0
 956.833007812 928.333007812 965.833007812 923.666992188 973.5 917 c 0
 981.166992188 910.333007812 987.166992188 901.833007812 991.5 891.5 c 0
 995.833007812 881.166992188 998 868 998 852 c 0
EndSplineSet
EndChar

